G04 (created by PCBNEW (2013-07-07 BZR 4022)-stable) date 12/3/2013 2:23:43 AM*
%MOIN*%
G04 Gerber Fmt 3.4, Leading zero omitted, Abs format*
%FSLAX34Y34*%
G01*
G70*
G90*
G04 APERTURE LIST*
%ADD10C,0.00590551*%
%ADD11R,0.0787X0.0984*%
%ADD12R,0.0197X0.0906*%
%ADD13R,0.045X0.045*%
%ADD14R,0.0314X0.0314*%
%ADD15R,0.0669X0.0551*%
%ADD16R,0.05X0.04*%
%ADD17R,0.035X0.055*%
%ADD18R,0.025X0.045*%
%ADD19R,0.045X0.025*%
G04 APERTURE END LIST*
G54D10*
G54D11*
X13894Y-10386D03*
X17398Y-10386D03*
X17398Y-12551D03*
X13894Y-12551D03*
G54D12*
X16276Y-12591D03*
X15961Y-12591D03*
X15646Y-12591D03*
X15331Y-12591D03*
X15016Y-12591D03*
G54D10*
G36*
X15714Y-24485D02*
X15332Y-24103D01*
X15403Y-24032D01*
X15785Y-24414D01*
X15714Y-24485D01*
X15714Y-24485D01*
G37*
G36*
X15491Y-24708D02*
X15109Y-24326D01*
X15180Y-24255D01*
X15562Y-24637D01*
X15491Y-24708D01*
X15491Y-24708D01*
G37*
G36*
X15269Y-24930D02*
X14887Y-24548D01*
X14957Y-24478D01*
X15339Y-24860D01*
X15269Y-24930D01*
X15269Y-24930D01*
G37*
G36*
X15046Y-25153D02*
X14664Y-24771D01*
X14735Y-24700D01*
X15117Y-25082D01*
X15046Y-25153D01*
X15046Y-25153D01*
G37*
G36*
X14823Y-25376D02*
X14441Y-24994D01*
X14512Y-24923D01*
X14894Y-25305D01*
X14823Y-25376D01*
X14823Y-25376D01*
G37*
G36*
X14600Y-25598D02*
X14219Y-25217D01*
X14289Y-25146D01*
X14671Y-25528D01*
X14600Y-25598D01*
X14600Y-25598D01*
G37*
G36*
X15937Y-24262D02*
X15555Y-23880D01*
X15626Y-23809D01*
X16008Y-24191D01*
X15937Y-24262D01*
X15937Y-24262D01*
G37*
G36*
X16160Y-24039D02*
X15778Y-23657D01*
X15848Y-23587D01*
X16230Y-23969D01*
X16160Y-24039D01*
X16160Y-24039D01*
G37*
G36*
X16382Y-23817D02*
X16000Y-23435D01*
X16071Y-23364D01*
X16453Y-23746D01*
X16382Y-23817D01*
X16382Y-23817D01*
G37*
G36*
X16605Y-23594D02*
X16223Y-23212D01*
X16294Y-23141D01*
X16676Y-23523D01*
X16605Y-23594D01*
X16605Y-23594D01*
G37*
G36*
X16828Y-23371D02*
X16446Y-22989D01*
X16517Y-22919D01*
X16898Y-23300D01*
X16828Y-23371D01*
X16828Y-23371D01*
G37*
G36*
X18896Y-27667D02*
X18514Y-27285D01*
X18585Y-27214D01*
X18967Y-27596D01*
X18896Y-27667D01*
X18896Y-27667D01*
G37*
G36*
X18673Y-27890D02*
X18291Y-27508D01*
X18362Y-27437D01*
X18744Y-27819D01*
X18673Y-27890D01*
X18673Y-27890D01*
G37*
G36*
X18451Y-28112D02*
X18069Y-27730D01*
X18139Y-27660D01*
X18521Y-28042D01*
X18451Y-28112D01*
X18451Y-28112D01*
G37*
G36*
X18228Y-28335D02*
X17846Y-27953D01*
X17917Y-27882D01*
X18299Y-28264D01*
X18228Y-28335D01*
X18228Y-28335D01*
G37*
G36*
X18005Y-28558D02*
X17623Y-28176D01*
X17694Y-28105D01*
X18076Y-28487D01*
X18005Y-28558D01*
X18005Y-28558D01*
G37*
G36*
X17782Y-28780D02*
X17401Y-28399D01*
X17471Y-28328D01*
X17853Y-28710D01*
X17782Y-28780D01*
X17782Y-28780D01*
G37*
G36*
X19119Y-27444D02*
X18737Y-27062D01*
X18808Y-26991D01*
X19190Y-27373D01*
X19119Y-27444D01*
X19119Y-27444D01*
G37*
G36*
X19342Y-27221D02*
X18960Y-26839D01*
X19030Y-26769D01*
X19412Y-27151D01*
X19342Y-27221D01*
X19342Y-27221D01*
G37*
G36*
X19564Y-26999D02*
X19182Y-26617D01*
X19253Y-26546D01*
X19635Y-26928D01*
X19564Y-26999D01*
X19564Y-26999D01*
G37*
G36*
X19787Y-26776D02*
X19405Y-26394D01*
X19476Y-26323D01*
X19858Y-26705D01*
X19787Y-26776D01*
X19787Y-26776D01*
G37*
G36*
X20010Y-26553D02*
X19628Y-26171D01*
X19699Y-26101D01*
X20080Y-26482D01*
X20010Y-26553D01*
X20010Y-26553D01*
G37*
G36*
X15403Y-27667D02*
X15332Y-27596D01*
X15714Y-27214D01*
X15785Y-27285D01*
X15403Y-27667D01*
X15403Y-27667D01*
G37*
G36*
X18585Y-24485D02*
X18514Y-24414D01*
X18896Y-24032D01*
X18967Y-24103D01*
X18585Y-24485D01*
X18585Y-24485D01*
G37*
G36*
X15626Y-27890D02*
X15555Y-27819D01*
X15937Y-27437D01*
X16008Y-27508D01*
X15626Y-27890D01*
X15626Y-27890D01*
G37*
G36*
X18808Y-24708D02*
X18737Y-24637D01*
X19119Y-24255D01*
X19190Y-24326D01*
X18808Y-24708D01*
X18808Y-24708D01*
G37*
G36*
X19030Y-24930D02*
X18960Y-24860D01*
X19342Y-24478D01*
X19412Y-24548D01*
X19030Y-24930D01*
X19030Y-24930D01*
G37*
G36*
X15848Y-28112D02*
X15778Y-28042D01*
X16160Y-27660D01*
X16230Y-27730D01*
X15848Y-28112D01*
X15848Y-28112D01*
G37*
G36*
X16071Y-28335D02*
X16000Y-28264D01*
X16382Y-27882D01*
X16453Y-27953D01*
X16071Y-28335D01*
X16071Y-28335D01*
G37*
G36*
X19253Y-25153D02*
X19182Y-25082D01*
X19564Y-24700D01*
X19635Y-24771D01*
X19253Y-25153D01*
X19253Y-25153D01*
G37*
G36*
X19476Y-25376D02*
X19405Y-25305D01*
X19787Y-24923D01*
X19858Y-24994D01*
X19476Y-25376D01*
X19476Y-25376D01*
G37*
G36*
X16294Y-28558D02*
X16223Y-28487D01*
X16605Y-28105D01*
X16676Y-28176D01*
X16294Y-28558D01*
X16294Y-28558D01*
G37*
G36*
X16517Y-28780D02*
X16446Y-28710D01*
X16828Y-28328D01*
X16898Y-28399D01*
X16517Y-28780D01*
X16517Y-28780D01*
G37*
G36*
X19699Y-25598D02*
X19628Y-25528D01*
X20010Y-25146D01*
X20080Y-25217D01*
X19699Y-25598D01*
X19699Y-25598D01*
G37*
G36*
X18362Y-24262D02*
X18291Y-24191D01*
X18673Y-23809D01*
X18744Y-23880D01*
X18362Y-24262D01*
X18362Y-24262D01*
G37*
G36*
X15180Y-27444D02*
X15109Y-27373D01*
X15491Y-26991D01*
X15562Y-27062D01*
X15180Y-27444D01*
X15180Y-27444D01*
G37*
G36*
X14957Y-27221D02*
X14887Y-27151D01*
X15269Y-26769D01*
X15339Y-26839D01*
X14957Y-27221D01*
X14957Y-27221D01*
G37*
G36*
X18139Y-24039D02*
X18069Y-23969D01*
X18451Y-23587D01*
X18521Y-23657D01*
X18139Y-24039D01*
X18139Y-24039D01*
G37*
G36*
X17917Y-23817D02*
X17846Y-23746D01*
X18228Y-23364D01*
X18299Y-23435D01*
X17917Y-23817D01*
X17917Y-23817D01*
G37*
G36*
X14735Y-26999D02*
X14664Y-26928D01*
X15046Y-26546D01*
X15117Y-26617D01*
X14735Y-26999D01*
X14735Y-26999D01*
G37*
G36*
X14512Y-26776D02*
X14441Y-26705D01*
X14823Y-26323D01*
X14894Y-26394D01*
X14512Y-26776D01*
X14512Y-26776D01*
G37*
G36*
X17694Y-23594D02*
X17623Y-23523D01*
X18005Y-23141D01*
X18076Y-23212D01*
X17694Y-23594D01*
X17694Y-23594D01*
G37*
G36*
X17471Y-23371D02*
X17401Y-23300D01*
X17782Y-22919D01*
X17853Y-22989D01*
X17471Y-23371D01*
X17471Y-23371D01*
G37*
G36*
X14289Y-26553D02*
X14219Y-26482D01*
X14600Y-26101D01*
X14671Y-26171D01*
X14289Y-26553D01*
X14289Y-26553D01*
G37*
G54D13*
X23150Y-27800D03*
X23150Y-27000D03*
X21950Y-28250D03*
X21950Y-27450D03*
X21250Y-28250D03*
X21250Y-27450D03*
X14150Y-20130D03*
X14150Y-19330D03*
X17820Y-20130D03*
X17820Y-19330D03*
X17800Y-31800D03*
X17000Y-31800D03*
X17000Y-30850D03*
X17800Y-30850D03*
X12050Y-13000D03*
X12850Y-13000D03*
G54D14*
X12155Y-12000D03*
X12745Y-12000D03*
X23190Y-15205D03*
X23190Y-14615D03*
G54D15*
X19200Y-31000D03*
X22330Y-31000D03*
X19200Y-32772D03*
X22330Y-32772D03*
G54D16*
X19900Y-16605D03*
X19900Y-17895D03*
G54D13*
X19050Y-16600D03*
X19050Y-17400D03*
G54D14*
X18300Y-16655D03*
X18300Y-17245D03*
G54D17*
X15825Y-15100D03*
X16575Y-15100D03*
X15825Y-14400D03*
X16575Y-14400D03*
G54D18*
X20880Y-22120D03*
X21480Y-22120D03*
X20880Y-21200D03*
X21480Y-21200D03*
G54D19*
X23200Y-16400D03*
X23200Y-15800D03*
G54D14*
X17005Y-32760D03*
X17595Y-32760D03*
M02*
