G04 (created by PCBNEW (2013-07-07 BZR 4022)-stable) date 12/3/2013 2:23:43 AM*
%MOIN*%
G04 Gerber Fmt 3.4, Leading zero omitted, Abs format*
%FSLAX34Y34*%
G01*
G70*
G90*
G04 APERTURE LIST*
%ADD10C,0.00590551*%
%ADD11C,0.005*%
%ADD12C,0.006*%
%ADD13C,0.01*%
%ADD14C,0.012*%
%ADD15C,0.0055*%
%ADD16C,0.0075*%
%ADD17C,0.007*%
%ADD18C,0.0079*%
%ADD19C,0.008*%
%ADD20C,0.0026*%
%ADD21C,0.004*%
%ADD22C,0.015*%
%ADD23C,0.0125*%
%ADD24C,0.0001*%
%ADD25C,0.0107*%
%ADD26C,0.0045*%
G04 APERTURE END LIST*
G54D10*
G54D11*
X24675Y-16000D02*
X24500Y-16000D01*
X24675Y-16100D02*
X24675Y-16000D01*
X24735Y-15583D02*
X24735Y-15416D01*
X24821Y-15616D02*
X24521Y-15500D01*
X24821Y-15383D01*
X24521Y-15266D02*
X24764Y-15266D01*
X24792Y-15250D01*
X24807Y-15233D01*
X24821Y-15200D01*
X24821Y-15133D01*
X24807Y-15100D01*
X24792Y-15083D01*
X24764Y-15066D01*
X24521Y-15066D01*
X24521Y-14933D02*
X24821Y-14700D01*
X24521Y-14700D02*
X24821Y-14933D01*
X24521Y-18608D02*
X24764Y-18608D01*
X24792Y-18591D01*
X24807Y-18575D01*
X24821Y-18541D01*
X24821Y-18475D01*
X24807Y-18441D01*
X24792Y-18425D01*
X24764Y-18408D01*
X24521Y-18408D01*
X24807Y-18258D02*
X24821Y-18208D01*
X24821Y-18125D01*
X24807Y-18091D01*
X24792Y-18075D01*
X24764Y-18058D01*
X24735Y-18058D01*
X24707Y-18075D01*
X24692Y-18091D01*
X24678Y-18125D01*
X24664Y-18191D01*
X24650Y-18225D01*
X24635Y-18241D01*
X24607Y-18258D01*
X24578Y-18258D01*
X24550Y-18241D01*
X24535Y-18225D01*
X24521Y-18191D01*
X24521Y-18108D01*
X24535Y-18058D01*
X24664Y-17908D02*
X24664Y-17791D01*
X24821Y-17741D02*
X24821Y-17908D01*
X24521Y-17908D01*
X24521Y-17741D01*
X24821Y-17391D02*
X24678Y-17508D01*
X24821Y-17591D02*
X24521Y-17591D01*
X24521Y-17458D01*
X24535Y-17425D01*
X24550Y-17408D01*
X24578Y-17391D01*
X24621Y-17391D01*
X24650Y-17408D01*
X24664Y-17425D01*
X24678Y-17458D01*
X24678Y-17591D01*
X24821Y-16808D02*
X24821Y-16975D01*
X24521Y-16975D01*
X24664Y-16691D02*
X24664Y-16575D01*
X24821Y-16525D02*
X24821Y-16691D01*
X24521Y-16691D01*
X24521Y-16525D01*
X24821Y-16375D02*
X24521Y-16375D01*
X24521Y-16291D01*
X24535Y-16241D01*
X24564Y-16208D01*
X24592Y-16191D01*
X24650Y-16175D01*
X24692Y-16175D01*
X24750Y-16191D01*
X24778Y-16208D01*
X24807Y-16241D01*
X24821Y-16291D01*
X24821Y-16375D01*
G54D12*
X20441Y-26132D02*
X20251Y-26132D01*
X20251Y-25532D01*
X20556Y-25961D02*
X20746Y-25961D01*
X20518Y-26132D02*
X20651Y-25532D01*
X20784Y-26132D01*
X21051Y-25818D02*
X21108Y-25847D01*
X21127Y-25875D01*
X21146Y-25932D01*
X21146Y-26018D01*
X21127Y-26075D01*
X21108Y-26104D01*
X21070Y-26132D01*
X20918Y-26132D01*
X20918Y-25532D01*
X21051Y-25532D01*
X21089Y-25561D01*
X21108Y-25590D01*
X21127Y-25647D01*
X21127Y-25704D01*
X21108Y-25761D01*
X21089Y-25790D01*
X21051Y-25818D01*
X20918Y-25818D01*
X21299Y-26104D02*
X21356Y-26132D01*
X21451Y-26132D01*
X21489Y-26104D01*
X21508Y-26075D01*
X21527Y-26018D01*
X21527Y-25961D01*
X21508Y-25904D01*
X21489Y-25875D01*
X21451Y-25847D01*
X21375Y-25818D01*
X21337Y-25790D01*
X21318Y-25761D01*
X21299Y-25704D01*
X21299Y-25647D01*
X21318Y-25590D01*
X21337Y-25561D01*
X21375Y-25532D01*
X21470Y-25532D01*
X21527Y-25561D01*
X12747Y-26132D02*
X12747Y-25532D01*
X12975Y-26132D02*
X12804Y-25790D01*
X12975Y-25532D02*
X12747Y-25875D01*
X13147Y-26132D02*
X13147Y-25532D01*
X13280Y-25961D01*
X13413Y-25532D01*
X13413Y-26132D01*
X13832Y-26132D02*
X13699Y-25847D01*
X13604Y-26132D02*
X13604Y-25532D01*
X13756Y-25532D01*
X13794Y-25561D01*
X13813Y-25590D01*
X13832Y-25647D01*
X13832Y-25732D01*
X13813Y-25790D01*
X13794Y-25818D01*
X13756Y-25847D01*
X13604Y-25847D01*
X14004Y-26132D02*
X14004Y-25532D01*
X14004Y-25818D02*
X14232Y-25818D01*
X14232Y-26132D02*
X14232Y-25532D01*
G54D13*
X22583Y-14411D02*
X21883Y-14411D01*
X21883Y-14221D01*
X21916Y-14173D01*
X21950Y-14149D01*
X22016Y-14126D01*
X22116Y-14126D01*
X22183Y-14149D01*
X22216Y-14173D01*
X22250Y-14221D01*
X22250Y-14411D01*
X22583Y-13840D02*
X22550Y-13888D01*
X22516Y-13911D01*
X22450Y-13935D01*
X22250Y-13935D01*
X22183Y-13911D01*
X22150Y-13888D01*
X22116Y-13840D01*
X22116Y-13769D01*
X22150Y-13721D01*
X22183Y-13697D01*
X22250Y-13673D01*
X22450Y-13673D01*
X22516Y-13697D01*
X22550Y-13721D01*
X22583Y-13769D01*
X22583Y-13840D01*
X22116Y-13507D02*
X22583Y-13411D01*
X22250Y-13316D01*
X22583Y-13221D01*
X22116Y-13126D01*
X22550Y-12745D02*
X22583Y-12792D01*
X22583Y-12888D01*
X22550Y-12935D01*
X22483Y-12959D01*
X22216Y-12959D01*
X22150Y-12935D01*
X22116Y-12888D01*
X22116Y-12792D01*
X22150Y-12745D01*
X22216Y-12721D01*
X22283Y-12721D01*
X22350Y-12959D01*
X22583Y-12507D02*
X22116Y-12507D01*
X22250Y-12507D02*
X22183Y-12483D01*
X22150Y-12459D01*
X22116Y-12411D01*
X22116Y-12364D01*
X21883Y-11673D02*
X22383Y-11673D01*
X22483Y-11697D01*
X22550Y-11745D01*
X22583Y-11816D01*
X22583Y-11864D01*
X22583Y-11221D02*
X22216Y-11221D01*
X22150Y-11245D01*
X22116Y-11292D01*
X22116Y-11388D01*
X22150Y-11435D01*
X22550Y-11221D02*
X22583Y-11269D01*
X22583Y-11388D01*
X22550Y-11435D01*
X22483Y-11459D01*
X22416Y-11459D01*
X22350Y-11435D01*
X22316Y-11388D01*
X22316Y-11269D01*
X22283Y-11221D01*
X22550Y-10769D02*
X22583Y-10816D01*
X22583Y-10911D01*
X22550Y-10959D01*
X22516Y-10983D01*
X22450Y-11007D01*
X22250Y-11007D01*
X22183Y-10983D01*
X22150Y-10959D01*
X22116Y-10911D01*
X22116Y-10816D01*
X22150Y-10769D01*
X22583Y-10554D02*
X21883Y-10554D01*
X22316Y-10507D02*
X22583Y-10364D01*
X22116Y-10364D02*
X22383Y-10554D01*
G54D14*
X14892Y-9823D02*
X14892Y-10471D01*
X14921Y-10547D01*
X14950Y-10585D01*
X15007Y-10623D01*
X15121Y-10623D01*
X15178Y-10585D01*
X15207Y-10547D01*
X15235Y-10471D01*
X15235Y-9823D01*
X15492Y-10585D02*
X15578Y-10623D01*
X15721Y-10623D01*
X15778Y-10585D01*
X15807Y-10547D01*
X15835Y-10471D01*
X15835Y-10395D01*
X15807Y-10319D01*
X15778Y-10280D01*
X15721Y-10242D01*
X15607Y-10204D01*
X15550Y-10166D01*
X15521Y-10128D01*
X15492Y-10052D01*
X15492Y-9976D01*
X15521Y-9900D01*
X15550Y-9861D01*
X15607Y-9823D01*
X15750Y-9823D01*
X15835Y-9861D01*
X16292Y-10204D02*
X16378Y-10242D01*
X16407Y-10280D01*
X16435Y-10357D01*
X16435Y-10471D01*
X16407Y-10547D01*
X16378Y-10585D01*
X16321Y-10623D01*
X16092Y-10623D01*
X16092Y-9823D01*
X16292Y-9823D01*
X16350Y-9861D01*
X16378Y-9900D01*
X16407Y-9976D01*
X16407Y-10052D01*
X16378Y-10128D01*
X16350Y-10166D01*
X16292Y-10204D01*
X16092Y-10204D01*
G54D15*
X24650Y-28000D02*
X24650Y-28150D01*
X24400Y-28000D02*
X24650Y-28000D01*
X24650Y-27000D02*
X24400Y-27000D01*
X24650Y-26800D02*
X24650Y-27000D01*
G54D13*
X19500Y-17550D02*
X20250Y-17550D01*
G54D11*
X17659Y-17829D02*
X17979Y-17755D01*
X17659Y-17682D01*
X17949Y-17483D02*
X17964Y-17493D01*
X17979Y-17525D01*
X17979Y-17546D01*
X17964Y-17577D01*
X17933Y-17598D01*
X17903Y-17609D01*
X17842Y-17619D01*
X17796Y-17619D01*
X17735Y-17609D01*
X17705Y-17598D01*
X17674Y-17577D01*
X17659Y-17546D01*
X17659Y-17525D01*
X17674Y-17493D01*
X17690Y-17483D01*
X17949Y-17263D02*
X17964Y-17273D01*
X17979Y-17305D01*
X17979Y-17326D01*
X17964Y-17357D01*
X17933Y-17378D01*
X17903Y-17389D01*
X17842Y-17399D01*
X17796Y-17399D01*
X17735Y-17389D01*
X17705Y-17378D01*
X17674Y-17357D01*
X17659Y-17326D01*
X17659Y-17305D01*
X17674Y-17273D01*
X17690Y-17263D01*
X17979Y-17001D02*
X17659Y-17001D01*
X17659Y-16917D01*
X17674Y-16896D01*
X17690Y-16886D01*
X17720Y-16875D01*
X17766Y-16875D01*
X17796Y-16886D01*
X17811Y-16896D01*
X17827Y-16917D01*
X17827Y-17001D01*
X17659Y-16739D02*
X17659Y-16697D01*
X17674Y-16676D01*
X17705Y-16655D01*
X17766Y-16645D01*
X17872Y-16645D01*
X17933Y-16655D01*
X17964Y-16676D01*
X17979Y-16697D01*
X17979Y-16739D01*
X17964Y-16760D01*
X17933Y-16781D01*
X17872Y-16791D01*
X17766Y-16791D01*
X17705Y-16781D01*
X17674Y-16760D01*
X17659Y-16739D01*
X17979Y-16446D02*
X17979Y-16550D01*
X17659Y-16550D01*
X17979Y-16079D02*
X17827Y-16152D01*
X17979Y-16205D02*
X17659Y-16205D01*
X17659Y-16121D01*
X17674Y-16100D01*
X17690Y-16090D01*
X17720Y-16079D01*
X17766Y-16079D01*
X17796Y-16090D01*
X17811Y-16100D01*
X17827Y-16121D01*
X17827Y-16205D01*
X17811Y-15985D02*
X17811Y-15911D01*
X17979Y-15880D02*
X17979Y-15985D01*
X17659Y-15985D01*
X17659Y-15880D01*
X17659Y-15817D02*
X17979Y-15744D01*
X17659Y-15670D01*
X16341Y-33021D02*
X16558Y-33021D01*
X16441Y-33135D01*
X16491Y-33135D01*
X16525Y-33150D01*
X16541Y-33164D01*
X16558Y-33192D01*
X16558Y-33264D01*
X16541Y-33292D01*
X16525Y-33307D01*
X16491Y-33321D01*
X16391Y-33321D01*
X16358Y-33307D01*
X16341Y-33292D01*
X16708Y-33292D02*
X16725Y-33307D01*
X16708Y-33321D01*
X16691Y-33307D01*
X16708Y-33292D01*
X16708Y-33321D01*
X16841Y-33021D02*
X17058Y-33021D01*
X16941Y-33135D01*
X16991Y-33135D01*
X17025Y-33150D01*
X17041Y-33164D01*
X17058Y-33192D01*
X17058Y-33264D01*
X17041Y-33292D01*
X17025Y-33307D01*
X16991Y-33321D01*
X16891Y-33321D01*
X16858Y-33307D01*
X16841Y-33292D01*
X17158Y-33021D02*
X17275Y-33321D01*
X17391Y-33021D01*
X17841Y-33021D02*
X17908Y-33021D01*
X17941Y-33035D01*
X17975Y-33064D01*
X17991Y-33121D01*
X17991Y-33221D01*
X17975Y-33278D01*
X17941Y-33307D01*
X17908Y-33321D01*
X17841Y-33321D01*
X17808Y-33307D01*
X17775Y-33278D01*
X17758Y-33221D01*
X17758Y-33121D01*
X17775Y-33064D01*
X17808Y-33035D01*
X17841Y-33021D01*
X18141Y-33321D02*
X18141Y-33021D01*
X18341Y-33321D02*
X18191Y-33150D01*
X18341Y-33021D02*
X18141Y-33192D01*
X13575Y-31479D02*
X13575Y-31159D01*
X13805Y-31449D02*
X13795Y-31464D01*
X13763Y-31479D01*
X13742Y-31479D01*
X13711Y-31464D01*
X13690Y-31433D01*
X13680Y-31403D01*
X13669Y-31342D01*
X13669Y-31296D01*
X13680Y-31235D01*
X13690Y-31205D01*
X13711Y-31174D01*
X13742Y-31159D01*
X13763Y-31159D01*
X13795Y-31174D01*
X13805Y-31190D01*
X13889Y-31464D02*
X13920Y-31479D01*
X13973Y-31479D01*
X13994Y-31464D01*
X14004Y-31449D01*
X14015Y-31418D01*
X14015Y-31388D01*
X14004Y-31357D01*
X13994Y-31342D01*
X13973Y-31327D01*
X13931Y-31311D01*
X13910Y-31296D01*
X13900Y-31281D01*
X13889Y-31250D01*
X13889Y-31220D01*
X13900Y-31190D01*
X13910Y-31174D01*
X13931Y-31159D01*
X13983Y-31159D01*
X14015Y-31174D01*
X14109Y-31479D02*
X14109Y-31159D01*
X14193Y-31159D01*
X14214Y-31174D01*
X14224Y-31190D01*
X14235Y-31220D01*
X14235Y-31266D01*
X14224Y-31296D01*
X14214Y-31311D01*
X14193Y-31327D01*
X14109Y-31327D01*
G54D14*
X19728Y-30473D02*
X19528Y-30092D01*
X19385Y-30473D02*
X19385Y-29673D01*
X19614Y-29673D01*
X19671Y-29711D01*
X19700Y-29750D01*
X19728Y-29826D01*
X19728Y-29940D01*
X19700Y-30016D01*
X19671Y-30054D01*
X19614Y-30092D01*
X19385Y-30092D01*
X19985Y-30054D02*
X20185Y-30054D01*
X20271Y-30473D02*
X19985Y-30473D01*
X19985Y-29673D01*
X20271Y-29673D01*
X20500Y-30435D02*
X20585Y-30473D01*
X20728Y-30473D01*
X20785Y-30435D01*
X20814Y-30397D01*
X20842Y-30321D01*
X20842Y-30245D01*
X20814Y-30169D01*
X20785Y-30130D01*
X20728Y-30092D01*
X20614Y-30054D01*
X20557Y-30016D01*
X20528Y-29978D01*
X20500Y-29902D01*
X20500Y-29826D01*
X20528Y-29750D01*
X20557Y-29711D01*
X20614Y-29673D01*
X20757Y-29673D01*
X20842Y-29711D01*
X21100Y-30054D02*
X21300Y-30054D01*
X21385Y-30473D02*
X21100Y-30473D01*
X21100Y-29673D01*
X21385Y-29673D01*
X21557Y-29673D02*
X21900Y-29673D01*
X21728Y-30473D02*
X21728Y-29673D01*
G54D11*
X15978Y-16661D02*
X16010Y-16677D01*
X16020Y-16692D01*
X16030Y-16722D01*
X16030Y-16768D01*
X16020Y-16799D01*
X16010Y-16814D01*
X15989Y-16829D01*
X15905Y-16829D01*
X15905Y-16509D01*
X15978Y-16509D01*
X15999Y-16524D01*
X16010Y-16540D01*
X16020Y-16570D01*
X16020Y-16600D01*
X16010Y-16631D01*
X15999Y-16646D01*
X15978Y-16661D01*
X15905Y-16661D01*
X16167Y-16677D02*
X16167Y-16829D01*
X16093Y-16509D02*
X16167Y-16677D01*
X16240Y-16509D01*
X16313Y-16829D02*
X16313Y-16509D01*
X16397Y-16509D01*
X16418Y-16524D01*
X16429Y-16540D01*
X16439Y-16570D01*
X16439Y-16616D01*
X16429Y-16646D01*
X16418Y-16661D01*
X16397Y-16677D01*
X16313Y-16677D01*
X16806Y-16509D02*
X16701Y-16509D01*
X16690Y-16661D01*
X16701Y-16646D01*
X16722Y-16631D01*
X16774Y-16631D01*
X16795Y-16646D01*
X16806Y-16661D01*
X16816Y-16692D01*
X16816Y-16768D01*
X16806Y-16799D01*
X16795Y-16814D01*
X16774Y-16829D01*
X16722Y-16829D01*
X16701Y-16814D01*
X16690Y-16799D01*
X16879Y-16509D02*
X16952Y-16829D01*
X17026Y-16509D01*
X16308Y-17327D02*
X16235Y-17175D01*
X16182Y-17327D02*
X16182Y-17007D01*
X16266Y-17007D01*
X16287Y-17022D01*
X16298Y-17038D01*
X16308Y-17068D01*
X16308Y-17114D01*
X16298Y-17144D01*
X16287Y-17159D01*
X16266Y-17175D01*
X16182Y-17175D01*
X16402Y-17159D02*
X16476Y-17159D01*
X16507Y-17327D02*
X16402Y-17327D01*
X16402Y-17007D01*
X16507Y-17007D01*
X16717Y-17022D02*
X16696Y-17007D01*
X16664Y-17007D01*
X16633Y-17022D01*
X16612Y-17053D01*
X16601Y-17083D01*
X16591Y-17144D01*
X16591Y-17190D01*
X16601Y-17251D01*
X16612Y-17281D01*
X16633Y-17312D01*
X16664Y-17327D01*
X16685Y-17327D01*
X16717Y-17312D01*
X16727Y-17297D01*
X16727Y-17190D01*
X16685Y-17190D01*
X12321Y-11358D02*
X12321Y-11524D01*
X12464Y-11541D01*
X12450Y-11524D01*
X12435Y-11491D01*
X12435Y-11408D01*
X12450Y-11374D01*
X12464Y-11358D01*
X12492Y-11341D01*
X12564Y-11341D01*
X12592Y-11358D01*
X12607Y-11374D01*
X12621Y-11408D01*
X12621Y-11491D01*
X12607Y-11524D01*
X12592Y-11541D01*
X12321Y-11241D02*
X12621Y-11124D01*
X12321Y-11008D01*
X12321Y-10558D02*
X12321Y-10491D01*
X12335Y-10458D01*
X12364Y-10424D01*
X12421Y-10408D01*
X12521Y-10408D01*
X12578Y-10424D01*
X12607Y-10458D01*
X12621Y-10491D01*
X12621Y-10558D01*
X12607Y-10591D01*
X12578Y-10624D01*
X12521Y-10641D01*
X12421Y-10641D01*
X12364Y-10624D01*
X12335Y-10591D01*
X12321Y-10558D01*
X12621Y-10258D02*
X12321Y-10258D01*
X12621Y-10058D02*
X12450Y-10208D01*
X12321Y-10058D02*
X12492Y-10258D01*
X24771Y-29200D02*
X24628Y-29316D01*
X24771Y-29400D02*
X24471Y-29400D01*
X24471Y-29266D01*
X24485Y-29233D01*
X24500Y-29216D01*
X24528Y-29200D01*
X24571Y-29200D01*
X24600Y-29216D01*
X24614Y-29233D01*
X24628Y-29266D01*
X24628Y-29400D01*
X24614Y-28933D02*
X24628Y-28883D01*
X24642Y-28866D01*
X24671Y-28850D01*
X24714Y-28850D01*
X24742Y-28866D01*
X24757Y-28883D01*
X24771Y-28916D01*
X24771Y-29050D01*
X24471Y-29050D01*
X24471Y-28933D01*
X24485Y-28900D01*
X24500Y-28883D01*
X24528Y-28866D01*
X24557Y-28866D01*
X24585Y-28883D01*
X24600Y-28900D01*
X24614Y-28933D01*
X24614Y-29050D01*
X24771Y-28516D02*
X24771Y-28716D01*
X24771Y-28616D02*
X24471Y-28616D01*
X24514Y-28650D01*
X24542Y-28683D01*
X24557Y-28716D01*
X24471Y-28200D02*
X24471Y-28366D01*
X24614Y-28383D01*
X24600Y-28366D01*
X24585Y-28333D01*
X24585Y-28250D01*
X24600Y-28216D01*
X24614Y-28200D01*
X24642Y-28183D01*
X24714Y-28183D01*
X24742Y-28200D01*
X24757Y-28216D01*
X24771Y-28250D01*
X24771Y-28333D01*
X24757Y-28366D01*
X24742Y-28383D01*
X24771Y-26758D02*
X24471Y-26758D01*
X24685Y-26641D01*
X24471Y-26525D01*
X24771Y-26525D01*
X24742Y-26158D02*
X24757Y-26175D01*
X24771Y-26225D01*
X24771Y-26258D01*
X24757Y-26308D01*
X24728Y-26341D01*
X24700Y-26358D01*
X24642Y-26375D01*
X24600Y-26375D01*
X24542Y-26358D01*
X24514Y-26341D01*
X24485Y-26308D01*
X24471Y-26258D01*
X24471Y-26225D01*
X24485Y-26175D01*
X24500Y-26158D01*
X24771Y-25841D02*
X24771Y-26008D01*
X24471Y-26008D01*
X24771Y-25524D02*
X24628Y-25641D01*
X24771Y-25724D02*
X24471Y-25724D01*
X24471Y-25591D01*
X24485Y-25558D01*
X24500Y-25541D01*
X24528Y-25524D01*
X24571Y-25524D01*
X24600Y-25541D01*
X24614Y-25558D01*
X24628Y-25591D01*
X24628Y-25724D01*
X22450Y-29121D02*
X22333Y-28978D01*
X22250Y-29121D02*
X22250Y-28821D01*
X22383Y-28821D01*
X22416Y-28835D01*
X22433Y-28850D01*
X22450Y-28878D01*
X22450Y-28921D01*
X22433Y-28950D01*
X22416Y-28964D01*
X22383Y-28978D01*
X22250Y-28978D01*
X22716Y-28964D02*
X22766Y-28978D01*
X22783Y-28992D01*
X22800Y-29021D01*
X22800Y-29064D01*
X22783Y-29092D01*
X22766Y-29107D01*
X22733Y-29121D01*
X22600Y-29121D01*
X22600Y-28821D01*
X22716Y-28821D01*
X22750Y-28835D01*
X22766Y-28850D01*
X22783Y-28878D01*
X22783Y-28907D01*
X22766Y-28935D01*
X22750Y-28950D01*
X22716Y-28964D01*
X22600Y-28964D01*
X23133Y-29121D02*
X22933Y-29121D01*
X23033Y-29121D02*
X23033Y-28821D01*
X23000Y-28864D01*
X22966Y-28892D01*
X22933Y-28907D01*
X23250Y-28821D02*
X23466Y-28821D01*
X23350Y-28935D01*
X23400Y-28935D01*
X23433Y-28950D01*
X23450Y-28964D01*
X23466Y-28992D01*
X23466Y-29064D01*
X23450Y-29092D01*
X23433Y-29107D01*
X23400Y-29121D01*
X23300Y-29121D01*
X23266Y-29107D01*
X23250Y-29092D01*
X22891Y-30121D02*
X22775Y-29978D01*
X22691Y-30121D02*
X22691Y-29821D01*
X22825Y-29821D01*
X22858Y-29835D01*
X22875Y-29850D01*
X22891Y-29878D01*
X22891Y-29921D01*
X22875Y-29950D01*
X22858Y-29964D01*
X22825Y-29978D01*
X22691Y-29978D01*
X23025Y-30035D02*
X23191Y-30035D01*
X22991Y-30121D02*
X23108Y-29821D01*
X23225Y-30121D01*
X23308Y-29821D02*
X23541Y-29821D01*
X23391Y-30121D01*
X24771Y-31325D02*
X24628Y-31441D01*
X24771Y-31525D02*
X24471Y-31525D01*
X24471Y-31391D01*
X24485Y-31358D01*
X24500Y-31341D01*
X24528Y-31325D01*
X24571Y-31325D01*
X24600Y-31341D01*
X24614Y-31358D01*
X24628Y-31391D01*
X24628Y-31525D01*
X24685Y-31191D02*
X24685Y-31025D01*
X24771Y-31225D02*
X24471Y-31108D01*
X24771Y-30991D01*
X24771Y-30691D02*
X24771Y-30891D01*
X24771Y-30791D02*
X24471Y-30791D01*
X24514Y-30825D01*
X24542Y-30858D01*
X24557Y-30891D01*
X24471Y-30475D02*
X24471Y-30441D01*
X24485Y-30408D01*
X24500Y-30391D01*
X24528Y-30375D01*
X24585Y-30358D01*
X24657Y-30358D01*
X24714Y-30375D01*
X24742Y-30391D01*
X24757Y-30408D01*
X24771Y-30441D01*
X24771Y-30475D01*
X24757Y-30508D01*
X24742Y-30525D01*
X24714Y-30541D01*
X24657Y-30558D01*
X24585Y-30558D01*
X24528Y-30541D01*
X24500Y-30525D01*
X24485Y-30508D01*
X24471Y-30475D01*
X22891Y-26121D02*
X22775Y-25978D01*
X22691Y-26121D02*
X22691Y-25821D01*
X22825Y-25821D01*
X22858Y-25835D01*
X22875Y-25850D01*
X22891Y-25878D01*
X22891Y-25921D01*
X22875Y-25950D01*
X22858Y-25964D01*
X22825Y-25978D01*
X22691Y-25978D01*
X23025Y-26035D02*
X23191Y-26035D01*
X22991Y-26121D02*
X23108Y-25821D01*
X23225Y-26121D01*
X23408Y-25821D02*
X23441Y-25821D01*
X23475Y-25835D01*
X23491Y-25850D01*
X23508Y-25878D01*
X23525Y-25935D01*
X23525Y-26007D01*
X23508Y-26064D01*
X23491Y-26092D01*
X23475Y-26107D01*
X23441Y-26121D01*
X23408Y-26121D01*
X23375Y-26107D01*
X23358Y-26092D01*
X23341Y-26064D01*
X23325Y-26007D01*
X23325Y-25935D01*
X23341Y-25878D01*
X23358Y-25850D01*
X23375Y-25835D01*
X23408Y-25821D01*
X22891Y-25121D02*
X22775Y-24978D01*
X22691Y-25121D02*
X22691Y-24821D01*
X22825Y-24821D01*
X22858Y-24835D01*
X22875Y-24850D01*
X22891Y-24878D01*
X22891Y-24921D01*
X22875Y-24950D01*
X22858Y-24964D01*
X22825Y-24978D01*
X22691Y-24978D01*
X23025Y-25035D02*
X23191Y-25035D01*
X22991Y-25121D02*
X23108Y-24821D01*
X23225Y-25121D01*
X23525Y-25121D02*
X23325Y-25121D01*
X23425Y-25121D02*
X23425Y-24821D01*
X23391Y-24864D01*
X23358Y-24892D01*
X23325Y-24907D01*
X22866Y-24121D02*
X22750Y-23978D01*
X22666Y-24121D02*
X22666Y-23821D01*
X22800Y-23821D01*
X22833Y-23835D01*
X22850Y-23850D01*
X22866Y-23878D01*
X22866Y-23921D01*
X22850Y-23950D01*
X22833Y-23964D01*
X22800Y-23978D01*
X22666Y-23978D01*
X23133Y-23964D02*
X23183Y-23978D01*
X23200Y-23992D01*
X23216Y-24021D01*
X23216Y-24064D01*
X23200Y-24092D01*
X23183Y-24107D01*
X23150Y-24121D01*
X23016Y-24121D01*
X23016Y-23821D01*
X23133Y-23821D01*
X23166Y-23835D01*
X23183Y-23850D01*
X23200Y-23878D01*
X23200Y-23907D01*
X23183Y-23935D01*
X23166Y-23950D01*
X23133Y-23964D01*
X23016Y-23964D01*
X23433Y-23821D02*
X23466Y-23821D01*
X23500Y-23835D01*
X23516Y-23850D01*
X23533Y-23878D01*
X23550Y-23935D01*
X23550Y-24007D01*
X23533Y-24064D01*
X23516Y-24092D01*
X23500Y-24107D01*
X23466Y-24121D01*
X23433Y-24121D01*
X23400Y-24107D01*
X23383Y-24092D01*
X23366Y-24064D01*
X23350Y-24007D01*
X23350Y-23935D01*
X23366Y-23878D01*
X23383Y-23850D01*
X23400Y-23835D01*
X23433Y-23821D01*
X22866Y-23121D02*
X22750Y-22978D01*
X22666Y-23121D02*
X22666Y-22821D01*
X22800Y-22821D01*
X22833Y-22835D01*
X22850Y-22850D01*
X22866Y-22878D01*
X22866Y-22921D01*
X22850Y-22950D01*
X22833Y-22964D01*
X22800Y-22978D01*
X22666Y-22978D01*
X23133Y-22964D02*
X23183Y-22978D01*
X23200Y-22992D01*
X23216Y-23021D01*
X23216Y-23064D01*
X23200Y-23092D01*
X23183Y-23107D01*
X23150Y-23121D01*
X23016Y-23121D01*
X23016Y-22821D01*
X23133Y-22821D01*
X23166Y-22835D01*
X23183Y-22850D01*
X23200Y-22878D01*
X23200Y-22907D01*
X23183Y-22935D01*
X23166Y-22950D01*
X23133Y-22964D01*
X23016Y-22964D01*
X23550Y-23121D02*
X23350Y-23121D01*
X23450Y-23121D02*
X23450Y-22821D01*
X23416Y-22864D01*
X23383Y-22892D01*
X23350Y-22907D01*
X22866Y-22121D02*
X22750Y-21978D01*
X22666Y-22121D02*
X22666Y-21821D01*
X22800Y-21821D01*
X22833Y-21835D01*
X22850Y-21850D01*
X22866Y-21878D01*
X22866Y-21921D01*
X22850Y-21950D01*
X22833Y-21964D01*
X22800Y-21978D01*
X22666Y-21978D01*
X23133Y-21964D02*
X23183Y-21978D01*
X23200Y-21992D01*
X23216Y-22021D01*
X23216Y-22064D01*
X23200Y-22092D01*
X23183Y-22107D01*
X23150Y-22121D01*
X23016Y-22121D01*
X23016Y-21821D01*
X23133Y-21821D01*
X23166Y-21835D01*
X23183Y-21850D01*
X23200Y-21878D01*
X23200Y-21907D01*
X23183Y-21935D01*
X23166Y-21950D01*
X23133Y-21964D01*
X23016Y-21964D01*
X23350Y-21850D02*
X23366Y-21835D01*
X23400Y-21821D01*
X23483Y-21821D01*
X23516Y-21835D01*
X23533Y-21850D01*
X23550Y-21878D01*
X23550Y-21907D01*
X23533Y-21950D01*
X23333Y-22121D01*
X23550Y-22121D01*
X22866Y-21121D02*
X22750Y-20978D01*
X22666Y-21121D02*
X22666Y-20821D01*
X22800Y-20821D01*
X22833Y-20835D01*
X22850Y-20850D01*
X22866Y-20878D01*
X22866Y-20921D01*
X22850Y-20950D01*
X22833Y-20964D01*
X22800Y-20978D01*
X22666Y-20978D01*
X23133Y-20964D02*
X23183Y-20978D01*
X23200Y-20992D01*
X23216Y-21021D01*
X23216Y-21064D01*
X23200Y-21092D01*
X23183Y-21107D01*
X23150Y-21121D01*
X23016Y-21121D01*
X23016Y-20821D01*
X23133Y-20821D01*
X23166Y-20835D01*
X23183Y-20850D01*
X23200Y-20878D01*
X23200Y-20907D01*
X23183Y-20935D01*
X23166Y-20950D01*
X23133Y-20964D01*
X23016Y-20964D01*
X23333Y-20821D02*
X23550Y-20821D01*
X23433Y-20935D01*
X23483Y-20935D01*
X23516Y-20950D01*
X23533Y-20964D01*
X23550Y-20992D01*
X23550Y-21064D01*
X23533Y-21092D01*
X23516Y-21107D01*
X23483Y-21121D01*
X23383Y-21121D01*
X23350Y-21107D01*
X23333Y-21092D01*
X22866Y-20121D02*
X22750Y-19978D01*
X22666Y-20121D02*
X22666Y-19821D01*
X22800Y-19821D01*
X22833Y-19835D01*
X22850Y-19850D01*
X22866Y-19878D01*
X22866Y-19921D01*
X22850Y-19950D01*
X22833Y-19964D01*
X22800Y-19978D01*
X22666Y-19978D01*
X23216Y-20092D02*
X23200Y-20107D01*
X23150Y-20121D01*
X23116Y-20121D01*
X23066Y-20107D01*
X23033Y-20078D01*
X23016Y-20050D01*
X23000Y-19992D01*
X23000Y-19950D01*
X23016Y-19892D01*
X23033Y-19864D01*
X23066Y-19835D01*
X23116Y-19821D01*
X23150Y-19821D01*
X23200Y-19835D01*
X23216Y-19850D01*
X23433Y-19821D02*
X23466Y-19821D01*
X23500Y-19835D01*
X23516Y-19850D01*
X23533Y-19878D01*
X23550Y-19935D01*
X23550Y-20007D01*
X23533Y-20064D01*
X23516Y-20092D01*
X23500Y-20107D01*
X23466Y-20121D01*
X23433Y-20121D01*
X23400Y-20107D01*
X23383Y-20092D01*
X23366Y-20064D01*
X23350Y-20007D01*
X23350Y-19935D01*
X23366Y-19878D01*
X23383Y-19850D01*
X23400Y-19835D01*
X23433Y-19821D01*
X22966Y-19321D02*
X22850Y-19178D01*
X22766Y-19321D02*
X22766Y-19021D01*
X22900Y-19021D01*
X22933Y-19035D01*
X22950Y-19050D01*
X22966Y-19078D01*
X22966Y-19121D01*
X22950Y-19150D01*
X22933Y-19164D01*
X22900Y-19178D01*
X22766Y-19178D01*
X23316Y-19292D02*
X23300Y-19307D01*
X23250Y-19321D01*
X23216Y-19321D01*
X23166Y-19307D01*
X23133Y-19278D01*
X23116Y-19250D01*
X23100Y-19192D01*
X23100Y-19150D01*
X23116Y-19092D01*
X23133Y-19064D01*
X23166Y-19035D01*
X23216Y-19021D01*
X23250Y-19021D01*
X23300Y-19035D01*
X23316Y-19050D01*
X23650Y-19321D02*
X23450Y-19321D01*
X23550Y-19321D02*
X23550Y-19021D01*
X23516Y-19064D01*
X23483Y-19092D01*
X23450Y-19107D01*
X22866Y-18121D02*
X22750Y-17978D01*
X22666Y-18121D02*
X22666Y-17821D01*
X22800Y-17821D01*
X22833Y-17835D01*
X22850Y-17850D01*
X22866Y-17878D01*
X22866Y-17921D01*
X22850Y-17950D01*
X22833Y-17964D01*
X22800Y-17978D01*
X22666Y-17978D01*
X23216Y-18092D02*
X23200Y-18107D01*
X23150Y-18121D01*
X23116Y-18121D01*
X23066Y-18107D01*
X23033Y-18078D01*
X23016Y-18050D01*
X23000Y-17992D01*
X23000Y-17950D01*
X23016Y-17892D01*
X23033Y-17864D01*
X23066Y-17835D01*
X23116Y-17821D01*
X23150Y-17821D01*
X23200Y-17835D01*
X23216Y-17850D01*
X23350Y-17850D02*
X23366Y-17835D01*
X23400Y-17821D01*
X23483Y-17821D01*
X23516Y-17835D01*
X23533Y-17850D01*
X23550Y-17878D01*
X23550Y-17907D01*
X23533Y-17950D01*
X23333Y-18121D01*
X23550Y-18121D01*
X22866Y-17346D02*
X22750Y-17203D01*
X22666Y-17346D02*
X22666Y-17046D01*
X22800Y-17046D01*
X22833Y-17060D01*
X22850Y-17075D01*
X22866Y-17103D01*
X22866Y-17146D01*
X22850Y-17175D01*
X22833Y-17189D01*
X22800Y-17203D01*
X22666Y-17203D01*
X23000Y-17260D02*
X23166Y-17260D01*
X22966Y-17346D02*
X23083Y-17046D01*
X23200Y-17346D01*
X23366Y-17175D02*
X23333Y-17160D01*
X23316Y-17146D01*
X23300Y-17117D01*
X23300Y-17103D01*
X23316Y-17075D01*
X23333Y-17060D01*
X23366Y-17046D01*
X23433Y-17046D01*
X23466Y-17060D01*
X23483Y-17075D01*
X23500Y-17103D01*
X23500Y-17117D01*
X23483Y-17146D01*
X23466Y-17160D01*
X23433Y-17175D01*
X23366Y-17175D01*
X23333Y-17189D01*
X23316Y-17203D01*
X23300Y-17232D01*
X23300Y-17289D01*
X23316Y-17317D01*
X23333Y-17332D01*
X23366Y-17346D01*
X23433Y-17346D01*
X23466Y-17332D01*
X23483Y-17317D01*
X23500Y-17289D01*
X23500Y-17232D01*
X23483Y-17203D01*
X23466Y-17189D01*
X23433Y-17175D01*
X24535Y-14266D02*
X24521Y-14299D01*
X24521Y-14349D01*
X24535Y-14399D01*
X24564Y-14433D01*
X24592Y-14449D01*
X24650Y-14466D01*
X24692Y-14466D01*
X24750Y-14449D01*
X24778Y-14433D01*
X24807Y-14399D01*
X24821Y-14349D01*
X24821Y-14316D01*
X24807Y-14266D01*
X24792Y-14249D01*
X24692Y-14249D01*
X24692Y-14316D01*
X24821Y-14099D02*
X24521Y-14099D01*
X24821Y-13899D01*
X24521Y-13899D01*
X24821Y-13733D02*
X24521Y-13733D01*
X24521Y-13650D01*
X24535Y-13600D01*
X24564Y-13566D01*
X24592Y-13550D01*
X24650Y-13533D01*
X24692Y-13533D01*
X24750Y-13550D01*
X24778Y-13566D01*
X24807Y-13600D01*
X24821Y-13650D01*
X24821Y-13733D01*
X24521Y-13066D02*
X24521Y-13233D01*
X24664Y-13250D01*
X24650Y-13233D01*
X24635Y-13200D01*
X24635Y-13116D01*
X24650Y-13083D01*
X24664Y-13066D01*
X24692Y-13050D01*
X24764Y-13050D01*
X24792Y-13066D01*
X24807Y-13083D01*
X24821Y-13116D01*
X24821Y-13200D01*
X24807Y-13233D01*
X24792Y-13250D01*
X24521Y-12949D02*
X24821Y-12833D01*
X24521Y-12716D01*
X24521Y-12516D02*
X24521Y-12300D01*
X24635Y-12416D01*
X24635Y-12366D01*
X24650Y-12333D01*
X24664Y-12316D01*
X24692Y-12300D01*
X24764Y-12300D01*
X24792Y-12316D01*
X24807Y-12333D01*
X24821Y-12366D01*
X24821Y-12466D01*
X24807Y-12500D01*
X24792Y-12516D01*
X24792Y-12149D02*
X24807Y-12133D01*
X24821Y-12149D01*
X24807Y-12166D01*
X24792Y-12149D01*
X24821Y-12149D01*
X24521Y-12016D02*
X24521Y-11800D01*
X24635Y-11916D01*
X24635Y-11866D01*
X24650Y-11833D01*
X24664Y-11816D01*
X24692Y-11800D01*
X24764Y-11800D01*
X24792Y-11816D01*
X24807Y-11833D01*
X24821Y-11866D01*
X24821Y-11966D01*
X24807Y-12000D01*
X24792Y-12016D01*
X24521Y-11699D02*
X24821Y-11583D01*
X24521Y-11466D01*
X11616Y-13971D02*
X11500Y-13828D01*
X11416Y-13971D02*
X11416Y-13671D01*
X11550Y-13671D01*
X11583Y-13685D01*
X11600Y-13700D01*
X11616Y-13728D01*
X11616Y-13771D01*
X11600Y-13800D01*
X11583Y-13814D01*
X11550Y-13828D01*
X11416Y-13828D01*
X11883Y-13814D02*
X11933Y-13828D01*
X11950Y-13842D01*
X11966Y-13871D01*
X11966Y-13914D01*
X11950Y-13942D01*
X11933Y-13957D01*
X11900Y-13971D01*
X11766Y-13971D01*
X11766Y-13671D01*
X11883Y-13671D01*
X11916Y-13685D01*
X11933Y-13700D01*
X11950Y-13728D01*
X11950Y-13757D01*
X11933Y-13785D01*
X11916Y-13800D01*
X11883Y-13814D01*
X11766Y-13814D01*
X12266Y-13771D02*
X12266Y-13971D01*
X12183Y-13657D02*
X12100Y-13871D01*
X12316Y-13871D01*
X11691Y-15121D02*
X11575Y-14978D01*
X11491Y-15121D02*
X11491Y-14821D01*
X11625Y-14821D01*
X11658Y-14835D01*
X11675Y-14850D01*
X11691Y-14878D01*
X11691Y-14921D01*
X11675Y-14950D01*
X11658Y-14964D01*
X11625Y-14978D01*
X11491Y-14978D01*
X11825Y-15035D02*
X11991Y-15035D01*
X11791Y-15121D02*
X11908Y-14821D01*
X12025Y-15121D01*
X12291Y-14921D02*
X12291Y-15121D01*
X12208Y-14807D02*
X12125Y-15021D01*
X12341Y-15021D01*
X10251Y-13057D02*
X10251Y-13199D01*
X10370Y-13214D01*
X10358Y-13199D01*
X10346Y-13171D01*
X10346Y-13099D01*
X10358Y-13071D01*
X10370Y-13057D01*
X10394Y-13042D01*
X10453Y-13042D01*
X10477Y-13057D01*
X10489Y-13071D01*
X10501Y-13099D01*
X10501Y-13171D01*
X10489Y-13199D01*
X10477Y-13214D01*
X10251Y-12957D02*
X10501Y-12857D01*
X10251Y-12757D01*
X11691Y-16121D02*
X11575Y-15978D01*
X11491Y-16121D02*
X11491Y-15821D01*
X11625Y-15821D01*
X11658Y-15835D01*
X11675Y-15850D01*
X11691Y-15878D01*
X11691Y-15921D01*
X11675Y-15950D01*
X11658Y-15964D01*
X11625Y-15978D01*
X11491Y-15978D01*
X11825Y-16035D02*
X11991Y-16035D01*
X11791Y-16121D02*
X11908Y-15821D01*
X12025Y-16121D01*
X12158Y-16121D02*
X12225Y-16121D01*
X12258Y-16107D01*
X12275Y-16092D01*
X12308Y-16050D01*
X12325Y-15992D01*
X12325Y-15878D01*
X12308Y-15850D01*
X12291Y-15835D01*
X12258Y-15821D01*
X12191Y-15821D01*
X12158Y-15835D01*
X12141Y-15850D01*
X12125Y-15878D01*
X12125Y-15950D01*
X12141Y-15978D01*
X12158Y-15992D01*
X12191Y-16007D01*
X12258Y-16007D01*
X12291Y-15992D01*
X12308Y-15978D01*
X12325Y-15950D01*
X11666Y-17121D02*
X11550Y-16978D01*
X11466Y-17121D02*
X11466Y-16821D01*
X11600Y-16821D01*
X11633Y-16835D01*
X11650Y-16850D01*
X11666Y-16878D01*
X11666Y-16921D01*
X11650Y-16950D01*
X11633Y-16964D01*
X11600Y-16978D01*
X11466Y-16978D01*
X12016Y-17092D02*
X12000Y-17107D01*
X11950Y-17121D01*
X11916Y-17121D01*
X11866Y-17107D01*
X11833Y-17078D01*
X11816Y-17050D01*
X11800Y-16992D01*
X11800Y-16950D01*
X11816Y-16892D01*
X11833Y-16864D01*
X11866Y-16835D01*
X11916Y-16821D01*
X11950Y-16821D01*
X12000Y-16835D01*
X12016Y-16850D01*
X12133Y-16821D02*
X12350Y-16821D01*
X12233Y-16935D01*
X12283Y-16935D01*
X12316Y-16950D01*
X12333Y-16964D01*
X12350Y-16992D01*
X12350Y-17064D01*
X12333Y-17092D01*
X12316Y-17107D01*
X12283Y-17121D01*
X12183Y-17121D01*
X12150Y-17107D01*
X12133Y-17092D01*
X11666Y-18121D02*
X11550Y-17978D01*
X11466Y-18121D02*
X11466Y-17821D01*
X11600Y-17821D01*
X11633Y-17835D01*
X11650Y-17850D01*
X11666Y-17878D01*
X11666Y-17921D01*
X11650Y-17950D01*
X11633Y-17964D01*
X11600Y-17978D01*
X11466Y-17978D01*
X12016Y-18092D02*
X12000Y-18107D01*
X11950Y-18121D01*
X11916Y-18121D01*
X11866Y-18107D01*
X11833Y-18078D01*
X11816Y-18050D01*
X11800Y-17992D01*
X11800Y-17950D01*
X11816Y-17892D01*
X11833Y-17864D01*
X11866Y-17835D01*
X11916Y-17821D01*
X11950Y-17821D01*
X12000Y-17835D01*
X12016Y-17850D01*
X12316Y-17921D02*
X12316Y-18121D01*
X12233Y-17807D02*
X12150Y-18021D01*
X12366Y-18021D01*
X11666Y-19121D02*
X11550Y-18978D01*
X11466Y-19121D02*
X11466Y-18821D01*
X11600Y-18821D01*
X11633Y-18835D01*
X11650Y-18850D01*
X11666Y-18878D01*
X11666Y-18921D01*
X11650Y-18950D01*
X11633Y-18964D01*
X11600Y-18978D01*
X11466Y-18978D01*
X12016Y-19092D02*
X12000Y-19107D01*
X11950Y-19121D01*
X11916Y-19121D01*
X11866Y-19107D01*
X11833Y-19078D01*
X11816Y-19050D01*
X11800Y-18992D01*
X11800Y-18950D01*
X11816Y-18892D01*
X11833Y-18864D01*
X11866Y-18835D01*
X11916Y-18821D01*
X11950Y-18821D01*
X12000Y-18835D01*
X12016Y-18850D01*
X12333Y-18821D02*
X12166Y-18821D01*
X12150Y-18964D01*
X12166Y-18950D01*
X12200Y-18935D01*
X12283Y-18935D01*
X12316Y-18950D01*
X12333Y-18964D01*
X12350Y-18992D01*
X12350Y-19064D01*
X12333Y-19092D01*
X12316Y-19107D01*
X12283Y-19121D01*
X12200Y-19121D01*
X12166Y-19107D01*
X12150Y-19092D01*
X11666Y-20121D02*
X11550Y-19978D01*
X11466Y-20121D02*
X11466Y-19821D01*
X11600Y-19821D01*
X11633Y-19835D01*
X11650Y-19850D01*
X11666Y-19878D01*
X11666Y-19921D01*
X11650Y-19950D01*
X11633Y-19964D01*
X11600Y-19978D01*
X11466Y-19978D01*
X11933Y-19964D02*
X11983Y-19978D01*
X12000Y-19992D01*
X12016Y-20021D01*
X12016Y-20064D01*
X12000Y-20092D01*
X11983Y-20107D01*
X11950Y-20121D01*
X11816Y-20121D01*
X11816Y-19821D01*
X11933Y-19821D01*
X11966Y-19835D01*
X11983Y-19850D01*
X12000Y-19878D01*
X12000Y-19907D01*
X11983Y-19935D01*
X11966Y-19950D01*
X11933Y-19964D01*
X11816Y-19964D01*
X12333Y-19821D02*
X12166Y-19821D01*
X12150Y-19964D01*
X12166Y-19950D01*
X12200Y-19935D01*
X12283Y-19935D01*
X12316Y-19950D01*
X12333Y-19964D01*
X12350Y-19992D01*
X12350Y-20064D01*
X12333Y-20092D01*
X12316Y-20107D01*
X12283Y-20121D01*
X12200Y-20121D01*
X12166Y-20107D01*
X12150Y-20092D01*
X11666Y-21121D02*
X11550Y-20978D01*
X11466Y-21121D02*
X11466Y-20821D01*
X11600Y-20821D01*
X11633Y-20835D01*
X11650Y-20850D01*
X11666Y-20878D01*
X11666Y-20921D01*
X11650Y-20950D01*
X11633Y-20964D01*
X11600Y-20978D01*
X11466Y-20978D01*
X11933Y-20964D02*
X11983Y-20978D01*
X12000Y-20992D01*
X12016Y-21021D01*
X12016Y-21064D01*
X12000Y-21092D01*
X11983Y-21107D01*
X11950Y-21121D01*
X11816Y-21121D01*
X11816Y-20821D01*
X11933Y-20821D01*
X11966Y-20835D01*
X11983Y-20850D01*
X12000Y-20878D01*
X12000Y-20907D01*
X11983Y-20935D01*
X11966Y-20950D01*
X11933Y-20964D01*
X11816Y-20964D01*
X12133Y-20821D02*
X12366Y-20821D01*
X12216Y-21121D01*
X11666Y-22121D02*
X11550Y-21978D01*
X11466Y-22121D02*
X11466Y-21821D01*
X11600Y-21821D01*
X11633Y-21835D01*
X11650Y-21850D01*
X11666Y-21878D01*
X11666Y-21921D01*
X11650Y-21950D01*
X11633Y-21964D01*
X11600Y-21978D01*
X11466Y-21978D01*
X11933Y-21964D02*
X11983Y-21978D01*
X12000Y-21992D01*
X12016Y-22021D01*
X12016Y-22064D01*
X12000Y-22092D01*
X11983Y-22107D01*
X11950Y-22121D01*
X11816Y-22121D01*
X11816Y-21821D01*
X11933Y-21821D01*
X11966Y-21835D01*
X11983Y-21850D01*
X12000Y-21878D01*
X12000Y-21907D01*
X11983Y-21935D01*
X11966Y-21950D01*
X11933Y-21964D01*
X11816Y-21964D01*
X12216Y-21950D02*
X12183Y-21935D01*
X12166Y-21921D01*
X12150Y-21892D01*
X12150Y-21878D01*
X12166Y-21850D01*
X12183Y-21835D01*
X12216Y-21821D01*
X12283Y-21821D01*
X12316Y-21835D01*
X12333Y-21850D01*
X12350Y-21878D01*
X12350Y-21892D01*
X12333Y-21921D01*
X12316Y-21935D01*
X12283Y-21950D01*
X12216Y-21950D01*
X12183Y-21964D01*
X12166Y-21978D01*
X12150Y-22007D01*
X12150Y-22064D01*
X12166Y-22092D01*
X12183Y-22107D01*
X12216Y-22121D01*
X12283Y-22121D01*
X12316Y-22107D01*
X12333Y-22092D01*
X12350Y-22064D01*
X12350Y-22007D01*
X12333Y-21978D01*
X12316Y-21964D01*
X12283Y-21950D01*
X11666Y-23121D02*
X11550Y-22978D01*
X11466Y-23121D02*
X11466Y-22821D01*
X11600Y-22821D01*
X11633Y-22835D01*
X11650Y-22850D01*
X11666Y-22878D01*
X11666Y-22921D01*
X11650Y-22950D01*
X11633Y-22964D01*
X11600Y-22978D01*
X11466Y-22978D01*
X11933Y-22964D02*
X11983Y-22978D01*
X12000Y-22992D01*
X12016Y-23021D01*
X12016Y-23064D01*
X12000Y-23092D01*
X11983Y-23107D01*
X11950Y-23121D01*
X11816Y-23121D01*
X11816Y-22821D01*
X11933Y-22821D01*
X11966Y-22835D01*
X11983Y-22850D01*
X12000Y-22878D01*
X12000Y-22907D01*
X11983Y-22935D01*
X11966Y-22950D01*
X11933Y-22964D01*
X11816Y-22964D01*
X12183Y-23121D02*
X12250Y-23121D01*
X12283Y-23107D01*
X12300Y-23092D01*
X12333Y-23050D01*
X12350Y-22992D01*
X12350Y-22878D01*
X12333Y-22850D01*
X12316Y-22835D01*
X12283Y-22821D01*
X12216Y-22821D01*
X12183Y-22835D01*
X12166Y-22850D01*
X12150Y-22878D01*
X12150Y-22950D01*
X12166Y-22978D01*
X12183Y-22992D01*
X12216Y-23007D01*
X12283Y-23007D01*
X12316Y-22992D01*
X12333Y-22978D01*
X12350Y-22950D01*
X11666Y-24121D02*
X11550Y-23978D01*
X11466Y-24121D02*
X11466Y-23821D01*
X11600Y-23821D01*
X11633Y-23835D01*
X11650Y-23850D01*
X11666Y-23878D01*
X11666Y-23921D01*
X11650Y-23950D01*
X11633Y-23964D01*
X11600Y-23978D01*
X11466Y-23978D01*
X12016Y-24092D02*
X12000Y-24107D01*
X11950Y-24121D01*
X11916Y-24121D01*
X11866Y-24107D01*
X11833Y-24078D01*
X11816Y-24050D01*
X11800Y-23992D01*
X11800Y-23950D01*
X11816Y-23892D01*
X11833Y-23864D01*
X11866Y-23835D01*
X11916Y-23821D01*
X11950Y-23821D01*
X12000Y-23835D01*
X12016Y-23850D01*
X12316Y-23821D02*
X12250Y-23821D01*
X12216Y-23835D01*
X12200Y-23850D01*
X12166Y-23892D01*
X12150Y-23950D01*
X12150Y-24064D01*
X12166Y-24092D01*
X12183Y-24107D01*
X12216Y-24121D01*
X12283Y-24121D01*
X12316Y-24107D01*
X12333Y-24092D01*
X12350Y-24064D01*
X12350Y-23992D01*
X12333Y-23964D01*
X12316Y-23950D01*
X12283Y-23935D01*
X12216Y-23935D01*
X12183Y-23950D01*
X12166Y-23964D01*
X12150Y-23992D01*
X11666Y-25121D02*
X11550Y-24978D01*
X11466Y-25121D02*
X11466Y-24821D01*
X11600Y-24821D01*
X11633Y-24835D01*
X11650Y-24850D01*
X11666Y-24878D01*
X11666Y-24921D01*
X11650Y-24950D01*
X11633Y-24964D01*
X11600Y-24978D01*
X11466Y-24978D01*
X12016Y-25092D02*
X12000Y-25107D01*
X11950Y-25121D01*
X11916Y-25121D01*
X11866Y-25107D01*
X11833Y-25078D01*
X11816Y-25050D01*
X11800Y-24992D01*
X11800Y-24950D01*
X11816Y-24892D01*
X11833Y-24864D01*
X11866Y-24835D01*
X11916Y-24821D01*
X11950Y-24821D01*
X12000Y-24835D01*
X12016Y-24850D01*
X12133Y-24821D02*
X12366Y-24821D01*
X12216Y-25121D01*
X11666Y-26121D02*
X11550Y-25978D01*
X11466Y-26121D02*
X11466Y-25821D01*
X11600Y-25821D01*
X11633Y-25835D01*
X11650Y-25850D01*
X11666Y-25878D01*
X11666Y-25921D01*
X11650Y-25950D01*
X11633Y-25964D01*
X11600Y-25978D01*
X11466Y-25978D01*
X12016Y-26092D02*
X12000Y-26107D01*
X11950Y-26121D01*
X11916Y-26121D01*
X11866Y-26107D01*
X11833Y-26078D01*
X11816Y-26050D01*
X11800Y-25992D01*
X11800Y-25950D01*
X11816Y-25892D01*
X11833Y-25864D01*
X11866Y-25835D01*
X11916Y-25821D01*
X11950Y-25821D01*
X12000Y-25835D01*
X12016Y-25850D01*
X12216Y-25950D02*
X12183Y-25935D01*
X12166Y-25921D01*
X12150Y-25892D01*
X12150Y-25878D01*
X12166Y-25850D01*
X12183Y-25835D01*
X12216Y-25821D01*
X12283Y-25821D01*
X12316Y-25835D01*
X12333Y-25850D01*
X12350Y-25878D01*
X12350Y-25892D01*
X12333Y-25921D01*
X12316Y-25935D01*
X12283Y-25950D01*
X12216Y-25950D01*
X12183Y-25964D01*
X12166Y-25978D01*
X12150Y-26007D01*
X12150Y-26064D01*
X12166Y-26092D01*
X12183Y-26107D01*
X12216Y-26121D01*
X12283Y-26121D01*
X12316Y-26107D01*
X12333Y-26092D01*
X12350Y-26064D01*
X12350Y-26007D01*
X12333Y-25978D01*
X12316Y-25964D01*
X12283Y-25950D01*
X11666Y-27121D02*
X11550Y-26978D01*
X11466Y-27121D02*
X11466Y-26821D01*
X11600Y-26821D01*
X11633Y-26835D01*
X11650Y-26850D01*
X11666Y-26878D01*
X11666Y-26921D01*
X11650Y-26950D01*
X11633Y-26964D01*
X11600Y-26978D01*
X11466Y-26978D01*
X12016Y-27092D02*
X12000Y-27107D01*
X11950Y-27121D01*
X11916Y-27121D01*
X11866Y-27107D01*
X11833Y-27078D01*
X11816Y-27050D01*
X11800Y-26992D01*
X11800Y-26950D01*
X11816Y-26892D01*
X11833Y-26864D01*
X11866Y-26835D01*
X11916Y-26821D01*
X11950Y-26821D01*
X12000Y-26835D01*
X12016Y-26850D01*
X12183Y-27121D02*
X12250Y-27121D01*
X12283Y-27107D01*
X12300Y-27092D01*
X12333Y-27050D01*
X12350Y-26992D01*
X12350Y-26878D01*
X12333Y-26850D01*
X12316Y-26835D01*
X12283Y-26821D01*
X12216Y-26821D01*
X12183Y-26835D01*
X12166Y-26850D01*
X12150Y-26878D01*
X12150Y-26950D01*
X12166Y-26978D01*
X12183Y-26992D01*
X12216Y-27007D01*
X12283Y-27007D01*
X12316Y-26992D01*
X12333Y-26978D01*
X12350Y-26950D01*
X11483Y-27821D02*
X11483Y-28064D01*
X11500Y-28092D01*
X11516Y-28107D01*
X11550Y-28121D01*
X11616Y-28121D01*
X11650Y-28107D01*
X11666Y-28092D01*
X11683Y-28064D01*
X11683Y-27821D01*
X11833Y-28107D02*
X11883Y-28121D01*
X11966Y-28121D01*
X12000Y-28107D01*
X12016Y-28092D01*
X12033Y-28064D01*
X12033Y-28035D01*
X12016Y-28007D01*
X12000Y-27992D01*
X11966Y-27978D01*
X11900Y-27964D01*
X11866Y-27950D01*
X11850Y-27935D01*
X11833Y-27907D01*
X11833Y-27878D01*
X11850Y-27850D01*
X11866Y-27835D01*
X11900Y-27821D01*
X11983Y-27821D01*
X12033Y-27835D01*
X12300Y-27964D02*
X12350Y-27978D01*
X12366Y-27992D01*
X12383Y-28021D01*
X12383Y-28064D01*
X12366Y-28092D01*
X12350Y-28107D01*
X12316Y-28121D01*
X12183Y-28121D01*
X12183Y-27821D01*
X12300Y-27821D01*
X12333Y-27835D01*
X12350Y-27850D01*
X12366Y-27878D01*
X12366Y-27907D01*
X12350Y-27935D01*
X12333Y-27950D01*
X12300Y-27964D01*
X12183Y-27964D01*
X12450Y-28150D02*
X12716Y-28150D01*
X12800Y-28121D02*
X12800Y-27821D01*
X12883Y-27821D01*
X12933Y-27835D01*
X12966Y-27864D01*
X12983Y-27892D01*
X13000Y-27950D01*
X13000Y-27992D01*
X12983Y-28050D01*
X12966Y-28078D01*
X12933Y-28107D01*
X12883Y-28121D01*
X12800Y-28121D01*
X13150Y-28007D02*
X13416Y-28007D01*
X13283Y-28121D02*
X13283Y-27892D01*
X11483Y-28821D02*
X11483Y-29064D01*
X11500Y-29092D01*
X11516Y-29107D01*
X11550Y-29121D01*
X11616Y-29121D01*
X11650Y-29107D01*
X11666Y-29092D01*
X11683Y-29064D01*
X11683Y-28821D01*
X11833Y-29107D02*
X11883Y-29121D01*
X11966Y-29121D01*
X12000Y-29107D01*
X12016Y-29092D01*
X12033Y-29064D01*
X12033Y-29035D01*
X12016Y-29007D01*
X12000Y-28992D01*
X11966Y-28978D01*
X11900Y-28964D01*
X11866Y-28950D01*
X11850Y-28935D01*
X11833Y-28907D01*
X11833Y-28878D01*
X11850Y-28850D01*
X11866Y-28835D01*
X11900Y-28821D01*
X11983Y-28821D01*
X12033Y-28835D01*
X12300Y-28964D02*
X12350Y-28978D01*
X12366Y-28992D01*
X12383Y-29021D01*
X12383Y-29064D01*
X12366Y-29092D01*
X12350Y-29107D01*
X12316Y-29121D01*
X12183Y-29121D01*
X12183Y-28821D01*
X12300Y-28821D01*
X12333Y-28835D01*
X12350Y-28850D01*
X12366Y-28878D01*
X12366Y-28907D01*
X12350Y-28935D01*
X12333Y-28950D01*
X12300Y-28964D01*
X12183Y-28964D01*
X12450Y-29150D02*
X12716Y-29150D01*
X12800Y-29121D02*
X12800Y-28821D01*
X12883Y-28821D01*
X12933Y-28835D01*
X12966Y-28864D01*
X12983Y-28892D01*
X13000Y-28950D01*
X13000Y-28992D01*
X12983Y-29050D01*
X12966Y-29078D01*
X12933Y-29107D01*
X12883Y-29121D01*
X12800Y-29121D01*
X13150Y-29007D02*
X13416Y-29007D01*
X11700Y-30121D02*
X11583Y-29978D01*
X11500Y-30121D02*
X11500Y-29821D01*
X11633Y-29821D01*
X11666Y-29835D01*
X11683Y-29850D01*
X11700Y-29878D01*
X11700Y-29921D01*
X11683Y-29950D01*
X11666Y-29964D01*
X11633Y-29978D01*
X11500Y-29978D01*
X11966Y-29964D02*
X12016Y-29978D01*
X12033Y-29992D01*
X12050Y-30021D01*
X12050Y-30064D01*
X12033Y-30092D01*
X12016Y-30107D01*
X11983Y-30121D01*
X11850Y-30121D01*
X11850Y-29821D01*
X11966Y-29821D01*
X12000Y-29835D01*
X12016Y-29850D01*
X12033Y-29878D01*
X12033Y-29907D01*
X12016Y-29935D01*
X12000Y-29950D01*
X11966Y-29964D01*
X11850Y-29964D01*
X12383Y-30121D02*
X12183Y-30121D01*
X12283Y-30121D02*
X12283Y-29821D01*
X12250Y-29864D01*
X12216Y-29892D01*
X12183Y-29907D01*
X12683Y-29921D02*
X12683Y-30121D01*
X12600Y-29807D02*
X12516Y-30021D01*
X12733Y-30021D01*
X11733Y-30835D02*
X11700Y-30821D01*
X11650Y-30821D01*
X11600Y-30835D01*
X11566Y-30864D01*
X11550Y-30892D01*
X11533Y-30950D01*
X11533Y-30992D01*
X11550Y-31050D01*
X11566Y-31078D01*
X11600Y-31107D01*
X11650Y-31121D01*
X11683Y-31121D01*
X11733Y-31107D01*
X11750Y-31092D01*
X11750Y-30992D01*
X11683Y-30992D01*
X11900Y-31121D02*
X11900Y-30821D01*
X12100Y-31121D01*
X12100Y-30821D01*
X12266Y-31121D02*
X12266Y-30821D01*
X12350Y-30821D01*
X12400Y-30835D01*
X12433Y-30864D01*
X12450Y-30892D01*
X12466Y-30950D01*
X12466Y-30992D01*
X12450Y-31050D01*
X12433Y-31078D01*
X12400Y-31107D01*
X12350Y-31121D01*
X12266Y-31121D01*
X10251Y-12269D02*
X10251Y-12114D01*
X10346Y-12197D01*
X10346Y-12161D01*
X10358Y-12138D01*
X10370Y-12126D01*
X10394Y-12114D01*
X10453Y-12114D01*
X10477Y-12126D01*
X10489Y-12138D01*
X10501Y-12161D01*
X10501Y-12233D01*
X10489Y-12257D01*
X10477Y-12269D01*
X10477Y-12007D02*
X10489Y-11995D01*
X10501Y-12007D01*
X10489Y-12019D01*
X10477Y-12007D01*
X10501Y-12007D01*
X10251Y-11911D02*
X10251Y-11757D01*
X10346Y-11840D01*
X10346Y-11804D01*
X10358Y-11780D01*
X10370Y-11769D01*
X10394Y-11757D01*
X10453Y-11757D01*
X10477Y-11769D01*
X10489Y-11780D01*
X10501Y-11804D01*
X10501Y-11876D01*
X10489Y-11900D01*
X10477Y-11911D01*
X10251Y-11685D02*
X10501Y-11602D01*
X10251Y-11519D01*
G54D16*
X20372Y-23751D02*
X20372Y-23351D01*
X20487Y-23351D01*
X20515Y-23370D01*
X20530Y-23390D01*
X20544Y-23428D01*
X20544Y-23485D01*
X20530Y-23523D01*
X20515Y-23542D01*
X20487Y-23561D01*
X20372Y-23561D01*
X20672Y-23751D02*
X20672Y-23485D01*
X20672Y-23561D02*
X20687Y-23523D01*
X20701Y-23504D01*
X20730Y-23485D01*
X20758Y-23485D01*
X20858Y-23751D02*
X20858Y-23485D01*
X20858Y-23351D02*
X20844Y-23370D01*
X20858Y-23390D01*
X20872Y-23370D01*
X20858Y-23351D01*
X20858Y-23390D01*
X20930Y-23790D02*
X21158Y-23790D01*
X21287Y-23351D02*
X21344Y-23351D01*
X21372Y-23370D01*
X21401Y-23409D01*
X21415Y-23485D01*
X21415Y-23618D01*
X21401Y-23694D01*
X21372Y-23732D01*
X21344Y-23751D01*
X21287Y-23751D01*
X21258Y-23732D01*
X21230Y-23694D01*
X21215Y-23618D01*
X21215Y-23485D01*
X21230Y-23409D01*
X21258Y-23370D01*
X21287Y-23351D01*
X21530Y-23732D02*
X21572Y-23751D01*
X21644Y-23751D01*
X21672Y-23732D01*
X21687Y-23713D01*
X21701Y-23675D01*
X21701Y-23637D01*
X21687Y-23599D01*
X21672Y-23580D01*
X21644Y-23561D01*
X21587Y-23542D01*
X21558Y-23523D01*
X21544Y-23504D01*
X21530Y-23466D01*
X21530Y-23428D01*
X21544Y-23390D01*
X21558Y-23370D01*
X21587Y-23351D01*
X21658Y-23351D01*
X21701Y-23370D01*
X22001Y-23713D02*
X21987Y-23732D01*
X21944Y-23751D01*
X21915Y-23751D01*
X21872Y-23732D01*
X21844Y-23694D01*
X21830Y-23656D01*
X21815Y-23580D01*
X21815Y-23523D01*
X21830Y-23447D01*
X21844Y-23409D01*
X21872Y-23370D01*
X21915Y-23351D01*
X21944Y-23351D01*
X21987Y-23370D01*
X22001Y-23390D01*
G54D12*
X15254Y-20301D02*
X15154Y-20111D01*
X15082Y-20301D02*
X15082Y-19901D01*
X15197Y-19901D01*
X15225Y-19920D01*
X15240Y-19940D01*
X15254Y-19978D01*
X15254Y-20035D01*
X15240Y-20073D01*
X15225Y-20092D01*
X15197Y-20111D01*
X15082Y-20111D01*
X15340Y-19901D02*
X15511Y-19901D01*
X15425Y-20301D02*
X15425Y-19901D01*
X15782Y-20263D02*
X15768Y-20282D01*
X15725Y-20301D01*
X15697Y-20301D01*
X15654Y-20282D01*
X15625Y-20244D01*
X15611Y-20206D01*
X15597Y-20130D01*
X15597Y-20073D01*
X15611Y-19997D01*
X15625Y-19959D01*
X15654Y-19920D01*
X15697Y-19901D01*
X15725Y-19901D01*
X15768Y-19920D01*
X15782Y-19940D01*
X15840Y-20340D02*
X16068Y-20340D01*
X16197Y-19901D02*
X16254Y-19901D01*
X16282Y-19920D01*
X16311Y-19959D01*
X16325Y-20035D01*
X16325Y-20168D01*
X16311Y-20244D01*
X16282Y-20282D01*
X16254Y-20301D01*
X16197Y-20301D01*
X16168Y-20282D01*
X16140Y-20244D01*
X16125Y-20168D01*
X16125Y-20035D01*
X16140Y-19959D01*
X16168Y-19920D01*
X16197Y-19901D01*
X16440Y-20282D02*
X16482Y-20301D01*
X16554Y-20301D01*
X16582Y-20282D01*
X16597Y-20263D01*
X16611Y-20225D01*
X16611Y-20187D01*
X16597Y-20149D01*
X16582Y-20130D01*
X16554Y-20111D01*
X16497Y-20092D01*
X16468Y-20073D01*
X16454Y-20054D01*
X16440Y-20016D01*
X16440Y-19978D01*
X16454Y-19940D01*
X16468Y-19920D01*
X16497Y-19901D01*
X16568Y-19901D01*
X16611Y-19920D01*
X16911Y-20263D02*
X16897Y-20282D01*
X16854Y-20301D01*
X16825Y-20301D01*
X16782Y-20282D01*
X16754Y-20244D01*
X16740Y-20206D01*
X16725Y-20130D01*
X16725Y-20073D01*
X16740Y-19997D01*
X16754Y-19959D01*
X16782Y-19920D01*
X16825Y-19901D01*
X16854Y-19901D01*
X16897Y-19920D01*
X16911Y-19940D01*
G54D11*
X20666Y-17335D02*
X20833Y-17335D01*
X20633Y-17421D02*
X20750Y-17121D01*
X20866Y-17421D01*
X20983Y-17121D02*
X20983Y-17364D01*
X21000Y-17392D01*
X21016Y-17407D01*
X21050Y-17421D01*
X21116Y-17421D01*
X21150Y-17407D01*
X21166Y-17392D01*
X21183Y-17364D01*
X21183Y-17121D01*
X21316Y-17121D02*
X21550Y-17421D01*
X21550Y-17121D02*
X21316Y-17421D01*
X21600Y-17450D02*
X21866Y-17450D01*
X21950Y-17421D02*
X21950Y-17121D01*
X22116Y-17421D02*
X22116Y-17121D01*
X22316Y-17421D01*
X22316Y-17121D01*
G54D17*
X14664Y-18483D02*
X14664Y-18366D01*
X14821Y-18316D02*
X14821Y-18483D01*
X14521Y-18483D01*
X14521Y-18316D01*
X14821Y-18200D02*
X14621Y-18016D01*
X14621Y-18200D02*
X14821Y-18016D01*
X14621Y-17933D02*
X14621Y-17800D01*
X14521Y-17883D02*
X14778Y-17883D01*
X14807Y-17866D01*
X14821Y-17833D01*
X14821Y-17800D01*
X14807Y-17550D02*
X14821Y-17583D01*
X14821Y-17650D01*
X14807Y-17683D01*
X14778Y-17700D01*
X14664Y-17700D01*
X14635Y-17683D01*
X14621Y-17650D01*
X14621Y-17583D01*
X14635Y-17550D01*
X14664Y-17533D01*
X14692Y-17533D01*
X14721Y-17700D01*
X14821Y-17383D02*
X14621Y-17383D01*
X14678Y-17383D02*
X14650Y-17366D01*
X14635Y-17350D01*
X14621Y-17316D01*
X14621Y-17283D01*
X14621Y-17166D02*
X14821Y-17166D01*
X14650Y-17166D02*
X14635Y-17150D01*
X14621Y-17116D01*
X14621Y-17066D01*
X14635Y-17033D01*
X14664Y-17016D01*
X14821Y-17016D01*
X13171Y-17941D02*
X13414Y-17941D01*
X13442Y-17925D01*
X13457Y-17908D01*
X13471Y-17875D01*
X13471Y-17808D01*
X13457Y-17775D01*
X13442Y-17758D01*
X13414Y-17741D01*
X13171Y-17741D01*
X13457Y-17591D02*
X13471Y-17541D01*
X13471Y-17458D01*
X13457Y-17425D01*
X13442Y-17408D01*
X13414Y-17391D01*
X13385Y-17391D01*
X13357Y-17408D01*
X13342Y-17425D01*
X13328Y-17458D01*
X13314Y-17525D01*
X13300Y-17558D01*
X13285Y-17575D01*
X13257Y-17591D01*
X13228Y-17591D01*
X13200Y-17575D01*
X13185Y-17558D01*
X13171Y-17525D01*
X13171Y-17441D01*
X13185Y-17391D01*
X13314Y-17125D02*
X13328Y-17075D01*
X13342Y-17058D01*
X13371Y-17041D01*
X13414Y-17041D01*
X13442Y-17058D01*
X13457Y-17075D01*
X13471Y-17108D01*
X13471Y-17241D01*
X13171Y-17241D01*
X13171Y-17125D01*
X13185Y-17091D01*
X13200Y-17075D01*
X13228Y-17058D01*
X13257Y-17058D01*
X13285Y-17075D01*
X13300Y-17091D01*
X13314Y-17125D01*
X13314Y-17241D01*
G54D18*
X16846Y-10976D02*
X16846Y-9697D01*
X14484Y-9697D02*
X14484Y-10976D01*
X16846Y-9500D02*
X14484Y-9500D01*
X13402Y-9500D02*
X14484Y-9500D01*
X14484Y-9500D02*
X14484Y-9697D01*
X14484Y-10976D02*
X16846Y-10976D01*
X16846Y-9697D02*
X16846Y-9500D01*
X16846Y-9500D02*
X17929Y-9500D01*
X17929Y-9500D02*
X17929Y-13240D01*
X17929Y-13240D02*
X13303Y-13240D01*
X13303Y-13240D02*
X13303Y-9500D01*
X13303Y-9500D02*
X13402Y-9500D01*
G54D14*
X17150Y-23063D02*
X19936Y-25850D01*
X19936Y-25850D02*
X17150Y-28636D01*
X14498Y-25984D02*
X17150Y-28636D01*
X14498Y-25715D02*
X17150Y-23063D01*
X14498Y-25984D02*
X14498Y-25715D01*
G54D19*
X15278Y-25850D02*
G75*
G03X15278Y-25850I-250J0D01*
G74*
G01*
G54D11*
X22900Y-27150D02*
X22900Y-26750D01*
X22900Y-26750D02*
X23400Y-26750D01*
X23400Y-26750D02*
X23400Y-28050D01*
X23400Y-28050D02*
X22900Y-28050D01*
X22900Y-28050D02*
X22900Y-27150D01*
X22900Y-26750D02*
X23400Y-26750D01*
X23400Y-28050D02*
X22900Y-28050D01*
X21700Y-27600D02*
X21700Y-27200D01*
X21700Y-27200D02*
X22200Y-27200D01*
X22200Y-27200D02*
X22200Y-28500D01*
X22200Y-28500D02*
X21700Y-28500D01*
X21700Y-28500D02*
X21700Y-27600D01*
X21700Y-27200D02*
X22200Y-27200D01*
X22200Y-28500D02*
X21700Y-28500D01*
X21000Y-27600D02*
X21000Y-27200D01*
X21000Y-27200D02*
X21500Y-27200D01*
X21500Y-27200D02*
X21500Y-28500D01*
X21500Y-28500D02*
X21000Y-28500D01*
X21000Y-28500D02*
X21000Y-27600D01*
X21000Y-27200D02*
X21500Y-27200D01*
X21500Y-28500D02*
X21000Y-28500D01*
X13900Y-19480D02*
X13900Y-19080D01*
X13900Y-19080D02*
X14400Y-19080D01*
X14400Y-19080D02*
X14400Y-20380D01*
X14400Y-20380D02*
X13900Y-20380D01*
X13900Y-20380D02*
X13900Y-19480D01*
X13900Y-19080D02*
X14400Y-19080D01*
X14400Y-20380D02*
X13900Y-20380D01*
X17570Y-19480D02*
X17570Y-19080D01*
X17570Y-19080D02*
X18070Y-19080D01*
X18070Y-19080D02*
X18070Y-20380D01*
X18070Y-20380D02*
X17570Y-20380D01*
X17570Y-20380D02*
X17570Y-19480D01*
X17570Y-19080D02*
X18070Y-19080D01*
X18070Y-20380D02*
X17570Y-20380D01*
X17150Y-32050D02*
X16750Y-32050D01*
X16750Y-32050D02*
X16750Y-31550D01*
X16750Y-31550D02*
X18050Y-31550D01*
X18050Y-31550D02*
X18050Y-32050D01*
X18050Y-32050D02*
X17150Y-32050D01*
X16750Y-32050D02*
X16750Y-31550D01*
X18050Y-31550D02*
X18050Y-32050D01*
X17650Y-30600D02*
X18050Y-30600D01*
X18050Y-30600D02*
X18050Y-31100D01*
X18050Y-31100D02*
X16750Y-31100D01*
X16750Y-31100D02*
X16750Y-30600D01*
X16750Y-30600D02*
X17650Y-30600D01*
X18050Y-30600D02*
X18050Y-31100D01*
X16750Y-31100D02*
X16750Y-30600D01*
X12700Y-12750D02*
X13100Y-12750D01*
X13100Y-12750D02*
X13100Y-13250D01*
X13100Y-13250D02*
X11800Y-13250D01*
X11800Y-13250D02*
X11800Y-12750D01*
X11800Y-12750D02*
X12700Y-12750D01*
X13100Y-12750D02*
X13100Y-13250D01*
X11800Y-13250D02*
X11800Y-12750D01*
G54D14*
X15500Y-15850D02*
X15500Y-16850D01*
X15500Y-16850D02*
X12500Y-16850D01*
X12500Y-16850D02*
X12500Y-15850D01*
X12500Y-15850D02*
X15500Y-15850D01*
X14500Y-16850D02*
X14500Y-15850D01*
X14980Y-22540D02*
X14980Y-21540D01*
X14980Y-21540D02*
X16980Y-21540D01*
X16980Y-21540D02*
X16980Y-22540D01*
X16980Y-22540D02*
X14980Y-22540D01*
X17400Y-17400D02*
X17400Y-18400D01*
X17400Y-18400D02*
X15400Y-18400D01*
X15400Y-18400D02*
X15400Y-17400D01*
X15400Y-17400D02*
X17400Y-17400D01*
X20500Y-17000D02*
X20500Y-16000D01*
X20500Y-16000D02*
X22500Y-16000D01*
X22500Y-16000D02*
X22500Y-17000D01*
X22500Y-17000D02*
X20500Y-17000D01*
G54D18*
X20584Y-10603D02*
G75*
G03X20584Y-10603I-175J0D01*
G74*
G01*
X21552Y-10603D02*
G75*
G03X21552Y-10603I-1103J0D01*
G74*
G01*
X18323Y-9500D02*
X18323Y-15878D01*
X18323Y-15878D02*
X22772Y-15878D01*
X22772Y-15878D02*
X22772Y-9500D01*
X22772Y-9500D02*
X18323Y-9500D01*
G54D20*
X12627Y-11823D02*
X12627Y-12177D01*
X12627Y-12177D02*
X12784Y-12177D01*
X12784Y-11823D02*
X12784Y-12177D01*
X12627Y-11823D02*
X12784Y-11823D01*
X12116Y-11823D02*
X12116Y-12177D01*
X12116Y-12177D02*
X12273Y-12177D01*
X12273Y-11823D02*
X12273Y-12177D01*
X12116Y-11823D02*
X12273Y-11823D01*
X12450Y-11823D02*
X12450Y-11882D01*
X12450Y-11882D02*
X12568Y-11882D01*
X12568Y-11823D02*
X12568Y-11882D01*
X12450Y-11823D02*
X12568Y-11823D01*
X12450Y-12118D02*
X12450Y-12177D01*
X12450Y-12177D02*
X12568Y-12177D01*
X12568Y-12118D02*
X12568Y-12177D01*
X12450Y-12118D02*
X12568Y-12118D01*
X12450Y-11941D02*
X12450Y-12059D01*
X12450Y-12059D02*
X12568Y-12059D01*
X12568Y-11941D02*
X12568Y-12059D01*
X12450Y-11941D02*
X12568Y-11941D01*
G54D21*
X12627Y-11843D02*
X12273Y-11843D01*
X12627Y-12157D02*
X12273Y-12157D01*
G54D20*
X23013Y-14733D02*
X23367Y-14733D01*
X23367Y-14733D02*
X23367Y-14576D01*
X23013Y-14576D02*
X23367Y-14576D01*
X23013Y-14733D02*
X23013Y-14576D01*
X23013Y-15244D02*
X23367Y-15244D01*
X23367Y-15244D02*
X23367Y-15087D01*
X23013Y-15087D02*
X23367Y-15087D01*
X23013Y-15244D02*
X23013Y-15087D01*
X23013Y-14910D02*
X23072Y-14910D01*
X23072Y-14910D02*
X23072Y-14792D01*
X23013Y-14792D02*
X23072Y-14792D01*
X23013Y-14910D02*
X23013Y-14792D01*
X23308Y-14910D02*
X23367Y-14910D01*
X23367Y-14910D02*
X23367Y-14792D01*
X23308Y-14792D02*
X23367Y-14792D01*
X23308Y-14910D02*
X23308Y-14792D01*
X23131Y-14910D02*
X23249Y-14910D01*
X23249Y-14910D02*
X23249Y-14792D01*
X23131Y-14792D02*
X23249Y-14792D01*
X23131Y-14910D02*
X23131Y-14792D01*
G54D21*
X23033Y-14733D02*
X23033Y-15087D01*
X23347Y-14733D02*
X23347Y-15087D01*
G54D18*
X22810Y-18750D02*
G75*
G03X22810Y-18750I-1260J0D01*
G74*
G01*
G54D11*
X20594Y-18566D02*
X20594Y-18226D01*
X20414Y-18396D02*
X20804Y-18396D01*
X23168Y-18750D02*
X22838Y-18750D01*
G54D14*
X13840Y-22530D02*
X13840Y-20550D01*
X13840Y-20550D02*
X14840Y-20550D01*
X14840Y-20550D02*
X14840Y-22550D01*
X14840Y-22550D02*
X13840Y-22550D01*
X14090Y-22550D02*
X13840Y-22300D01*
X17120Y-22530D02*
X17120Y-20550D01*
X17120Y-20550D02*
X18120Y-20550D01*
X18120Y-20550D02*
X18120Y-22550D01*
X18120Y-22550D02*
X17120Y-22550D01*
X17370Y-22550D02*
X17120Y-22300D01*
G54D18*
X21798Y-31000D02*
X21838Y-31000D01*
X19712Y-31000D02*
X19672Y-31000D01*
X20696Y-31236D02*
X21090Y-32417D01*
X20696Y-32772D02*
X20696Y-32496D01*
X20696Y-31000D02*
X20696Y-31236D01*
X19672Y-32772D02*
X21838Y-32772D01*
X19712Y-31000D02*
X21838Y-31000D01*
X18806Y-33087D02*
X18806Y-30685D01*
X18806Y-30685D02*
X22743Y-30685D01*
X22743Y-30685D02*
X22743Y-33087D01*
X22743Y-33087D02*
X18806Y-33087D01*
G54D22*
X15811Y-32500D02*
X15614Y-32500D01*
X12189Y-32500D02*
X12386Y-32500D01*
X12386Y-32500D02*
X12307Y-32500D01*
X12189Y-32500D02*
X12189Y-31634D01*
X12189Y-31634D02*
X15811Y-31634D01*
X15811Y-31634D02*
X15811Y-33012D01*
X15811Y-33012D02*
X12189Y-33012D01*
X12189Y-33012D02*
X12189Y-32500D01*
X11900Y-32500D02*
G75*
G03X11900Y-32500I-900J0D01*
G74*
G01*
X24900Y-32500D02*
G75*
G03X24900Y-32500I-900J0D01*
G74*
G01*
X24900Y-10500D02*
G75*
G03X24900Y-10500I-900J0D01*
G74*
G01*
X11900Y-10500D02*
G75*
G03X11900Y-10500I-900J0D01*
G74*
G01*
X20254Y-16069D02*
G75*
G03X20254Y-16069I-39J0D01*
G74*
G01*
G54D13*
X20294Y-16541D02*
X20294Y-16266D01*
X20294Y-16305D02*
X20294Y-18234D01*
X20294Y-18234D02*
X19506Y-18234D01*
X19506Y-18234D02*
X19506Y-16266D01*
X19506Y-16266D02*
X20294Y-16266D01*
G54D11*
X19300Y-17250D02*
X19300Y-17650D01*
X19300Y-17650D02*
X18800Y-17650D01*
X18800Y-17650D02*
X18800Y-16350D01*
X18800Y-16350D02*
X19300Y-16350D01*
X19300Y-16350D02*
X19300Y-17250D01*
X19300Y-17650D02*
X18800Y-17650D01*
X18800Y-16350D02*
X19300Y-16350D01*
G54D20*
X18477Y-17127D02*
X18123Y-17127D01*
X18123Y-17127D02*
X18123Y-17284D01*
X18477Y-17284D02*
X18123Y-17284D01*
X18477Y-17127D02*
X18477Y-17284D01*
X18477Y-16616D02*
X18123Y-16616D01*
X18123Y-16616D02*
X18123Y-16773D01*
X18477Y-16773D02*
X18123Y-16773D01*
X18477Y-16616D02*
X18477Y-16773D01*
X18477Y-16950D02*
X18418Y-16950D01*
X18418Y-16950D02*
X18418Y-17068D01*
X18477Y-17068D02*
X18418Y-17068D01*
X18477Y-16950D02*
X18477Y-17068D01*
X18182Y-16950D02*
X18123Y-16950D01*
X18123Y-16950D02*
X18123Y-17068D01*
X18182Y-17068D02*
X18123Y-17068D01*
X18182Y-16950D02*
X18182Y-17068D01*
X18359Y-16950D02*
X18241Y-16950D01*
X18241Y-16950D02*
X18241Y-17068D01*
X18359Y-17068D02*
X18241Y-17068D01*
X18359Y-16950D02*
X18359Y-17068D01*
G54D21*
X18457Y-17127D02*
X18457Y-16773D01*
X18143Y-17127D02*
X18143Y-16773D01*
G54D11*
X15600Y-15400D02*
G75*
G03X15600Y-15400I-50J0D01*
G74*
G01*
X16000Y-15400D02*
X15600Y-15400D01*
X15600Y-15400D02*
X15600Y-14800D01*
X15600Y-14800D02*
X16000Y-14800D01*
X16400Y-14800D02*
X16800Y-14800D01*
X16800Y-14800D02*
X16800Y-15400D01*
X16800Y-15400D02*
X16400Y-15400D01*
X15600Y-14700D02*
G75*
G03X15600Y-14700I-50J0D01*
G74*
G01*
X16000Y-14700D02*
X15600Y-14700D01*
X15600Y-14700D02*
X15600Y-14100D01*
X15600Y-14100D02*
X16000Y-14100D01*
X16400Y-14100D02*
X16800Y-14100D01*
X16800Y-14100D02*
X16800Y-14700D01*
X16800Y-14700D02*
X16400Y-14700D01*
X20730Y-21870D02*
X21630Y-21870D01*
X21630Y-21870D02*
X21630Y-22370D01*
X21630Y-22370D02*
X20730Y-22370D01*
X20730Y-22370D02*
X20730Y-21870D01*
X20730Y-20950D02*
X21630Y-20950D01*
X21630Y-20950D02*
X21630Y-21450D01*
X21630Y-21450D02*
X20730Y-21450D01*
X20730Y-21450D02*
X20730Y-20950D01*
G54D23*
X18430Y-20200D02*
X18430Y-22700D01*
X20430Y-20200D02*
X20430Y-22700D01*
X19430Y-23700D02*
G75*
G03X20430Y-22700I0J1000D01*
G74*
G01*
X18430Y-22700D02*
G75*
G03X19430Y-23700I1000J0D01*
G74*
G01*
X20430Y-20200D02*
G75*
G03X19430Y-19200I-1000J0D01*
G74*
G01*
X19430Y-19200D02*
G75*
G03X18430Y-20200I0J-1000D01*
G74*
G01*
G54D11*
X22950Y-16550D02*
X22950Y-15650D01*
X22950Y-15650D02*
X23450Y-15650D01*
X23450Y-15650D02*
X23450Y-16550D01*
X23450Y-16550D02*
X22950Y-16550D01*
G54D20*
X17477Y-32583D02*
X17477Y-32937D01*
X17477Y-32937D02*
X17634Y-32937D01*
X17634Y-32583D02*
X17634Y-32937D01*
X17477Y-32583D02*
X17634Y-32583D01*
X16966Y-32583D02*
X16966Y-32937D01*
X16966Y-32937D02*
X17123Y-32937D01*
X17123Y-32583D02*
X17123Y-32937D01*
X16966Y-32583D02*
X17123Y-32583D01*
X17300Y-32583D02*
X17300Y-32642D01*
X17300Y-32642D02*
X17418Y-32642D01*
X17418Y-32583D02*
X17418Y-32642D01*
X17300Y-32583D02*
X17418Y-32583D01*
X17300Y-32878D02*
X17300Y-32937D01*
X17300Y-32937D02*
X17418Y-32937D01*
X17418Y-32878D02*
X17418Y-32937D01*
X17300Y-32878D02*
X17418Y-32878D01*
X17300Y-32701D02*
X17300Y-32819D01*
X17300Y-32819D02*
X17418Y-32819D01*
X17418Y-32701D02*
X17418Y-32819D01*
X17300Y-32701D02*
X17418Y-32701D01*
G54D21*
X17477Y-32603D02*
X17123Y-32603D01*
X17477Y-32917D02*
X17123Y-32917D01*
G54D24*
G36*
X16366Y-31023D02*
X16366Y-29190D01*
X14733Y-29190D01*
X14733Y-28862D01*
X14839Y-28892D01*
X14910Y-28909D01*
X14959Y-28891D01*
X14897Y-28802D01*
X14855Y-28750D01*
X14858Y-28700D01*
X14881Y-28689D01*
X14894Y-28645D01*
X14820Y-28637D01*
X14805Y-28640D01*
X14700Y-28607D01*
X14675Y-28580D01*
X14617Y-28566D01*
X14616Y-28665D01*
X14637Y-28797D01*
X14656Y-28982D01*
X14673Y-29190D01*
X13034Y-29190D01*
X13034Y-31023D01*
X13067Y-31023D01*
X13067Y-30990D01*
X13067Y-29224D01*
X16333Y-29224D01*
X16333Y-30990D01*
X13067Y-30990D01*
X13067Y-31023D01*
X16366Y-31023D01*
X16366Y-31023D01*
G37*
G36*
X14804Y-30826D02*
X14962Y-30825D01*
X14962Y-30752D01*
X14914Y-30712D01*
X14908Y-30686D01*
X14909Y-30567D01*
X14911Y-30554D01*
X14922Y-30514D01*
X14928Y-30598D01*
X14942Y-30690D01*
X14978Y-30714D01*
X15009Y-30614D01*
X15022Y-30506D01*
X15019Y-30620D01*
X15008Y-30693D01*
X14962Y-30752D01*
X14962Y-30825D01*
X15153Y-30823D01*
X15153Y-30750D01*
X15083Y-30723D01*
X15080Y-30717D01*
X15114Y-30710D01*
X15123Y-30713D01*
X15164Y-30700D01*
X15110Y-30616D01*
X15082Y-30579D01*
X15094Y-30515D01*
X15110Y-30501D01*
X15175Y-30518D01*
X15195Y-30542D01*
X15158Y-30538D01*
X15149Y-30535D01*
X15102Y-30545D01*
X15153Y-30626D01*
X15168Y-30647D01*
X15184Y-30721D01*
X15153Y-30750D01*
X15153Y-30823D01*
X15164Y-30823D01*
X15491Y-30818D01*
X15761Y-30809D01*
X15947Y-30798D01*
X16026Y-30783D01*
X16046Y-30746D01*
X16066Y-30623D01*
X16061Y-30557D01*
X16026Y-30463D01*
X15996Y-30454D01*
X15853Y-30441D01*
X15616Y-30431D01*
X15311Y-30424D01*
X14962Y-30421D01*
X14596Y-30420D01*
X14236Y-30422D01*
X13909Y-30428D01*
X13639Y-30436D01*
X13453Y-30448D01*
X13374Y-30463D01*
X13354Y-30500D01*
X13334Y-30623D01*
X13339Y-30689D01*
X13374Y-30783D01*
X13404Y-30792D01*
X13547Y-30805D01*
X13784Y-30815D01*
X14089Y-30821D01*
X14296Y-30824D01*
X14296Y-30752D01*
X14248Y-30711D01*
X14237Y-30671D01*
X14248Y-30560D01*
X14301Y-30506D01*
X14327Y-30517D01*
X14351Y-30620D01*
X14340Y-30694D01*
X14296Y-30752D01*
X14296Y-30824D01*
X14438Y-30825D01*
X14442Y-30825D01*
X14442Y-30748D01*
X14416Y-30737D01*
X14401Y-30623D01*
X14406Y-30536D01*
X14442Y-30498D01*
X14463Y-30519D01*
X14484Y-30623D01*
X14478Y-30679D01*
X14442Y-30748D01*
X14442Y-30825D01*
X14608Y-30825D01*
X14608Y-30756D01*
X14585Y-30749D01*
X14542Y-30672D01*
X14539Y-30566D01*
X14584Y-30506D01*
X14592Y-30514D01*
X14591Y-30515D01*
X14568Y-30578D01*
X14609Y-30623D01*
X14621Y-30624D01*
X14601Y-30657D01*
X14571Y-30680D01*
X14601Y-30722D01*
X14618Y-30735D01*
X14608Y-30756D01*
X14608Y-30825D01*
X14703Y-30826D01*
X14703Y-30754D01*
X14733Y-30727D01*
X14762Y-30698D01*
X14721Y-30647D01*
X14709Y-30637D01*
X14676Y-30537D01*
X14689Y-30498D01*
X14697Y-30548D01*
X14699Y-30570D01*
X14731Y-30623D01*
X14741Y-30619D01*
X14777Y-30548D01*
X14786Y-30530D01*
X14788Y-30604D01*
X14781Y-30668D01*
X14733Y-30748D01*
X14703Y-30754D01*
X14703Y-30826D01*
X14804Y-30826D01*
X14804Y-30826D01*
G37*
G36*
X14038Y-30032D02*
X14100Y-30026D01*
X14082Y-29992D01*
X14019Y-29943D01*
X13877Y-29846D01*
X13692Y-29725D01*
X13494Y-29599D01*
X13314Y-29487D01*
X13184Y-29411D01*
X13134Y-29389D01*
X13138Y-29402D01*
X13202Y-29468D01*
X13253Y-29532D01*
X13310Y-29675D01*
X13332Y-29747D01*
X13411Y-29868D01*
X13556Y-29945D01*
X13800Y-29999D01*
X13875Y-30011D01*
X14038Y-30032D01*
X14038Y-30032D01*
G37*
G36*
X15338Y-30043D02*
X15351Y-30039D01*
X15466Y-30017D01*
X15643Y-29987D01*
X15680Y-29981D01*
X15907Y-29922D01*
X16033Y-29829D01*
X16088Y-29683D01*
X16104Y-29617D01*
X16188Y-29480D01*
X16223Y-29446D01*
X16266Y-29385D01*
X16264Y-29384D01*
X16196Y-29417D01*
X16054Y-29503D01*
X15870Y-29621D01*
X15673Y-29752D01*
X15493Y-29875D01*
X15361Y-29971D01*
X15306Y-30020D01*
X15305Y-30022D01*
X15338Y-30043D01*
X15338Y-30043D01*
G37*
G36*
X14301Y-30723D02*
X14316Y-30712D01*
X14334Y-30623D01*
X14330Y-30577D01*
X14301Y-30523D01*
X14285Y-30534D01*
X14267Y-30623D01*
X14271Y-30668D01*
X14301Y-30723D01*
X14301Y-30723D01*
G37*
G36*
X14457Y-30696D02*
X14454Y-30632D01*
X14449Y-30629D01*
X14436Y-30676D01*
X14438Y-30695D01*
X14457Y-30696D01*
X14457Y-30696D01*
G37*
G36*
X14456Y-30578D02*
X14456Y-30534D01*
X14456Y-30534D01*
X14434Y-30556D01*
X14434Y-30556D01*
X14456Y-30578D01*
X14456Y-30578D01*
G37*
G54D11*
X22729Y-26891D02*
X22577Y-26964D01*
X22729Y-27017D02*
X22409Y-27017D01*
X22409Y-26933D01*
X22424Y-26912D01*
X22440Y-26901D01*
X22470Y-26891D01*
X22516Y-26891D01*
X22546Y-26901D01*
X22561Y-26912D01*
X22577Y-26933D01*
X22577Y-27017D01*
X22729Y-26681D02*
X22729Y-26807D01*
X22729Y-26744D02*
X22409Y-26744D01*
X22455Y-26765D01*
X22485Y-26786D01*
X22500Y-26807D01*
X22409Y-26608D02*
X22409Y-26472D01*
X22531Y-26545D01*
X22531Y-26514D01*
X22546Y-26493D01*
X22561Y-26482D01*
X22592Y-26472D01*
X22668Y-26472D01*
X22699Y-26482D01*
X22714Y-26493D01*
X22729Y-26514D01*
X22729Y-26577D01*
X22714Y-26598D01*
X22699Y-26608D01*
X22079Y-26891D02*
X21927Y-26964D01*
X22079Y-27017D02*
X21759Y-27017D01*
X21759Y-26933D01*
X21774Y-26912D01*
X21790Y-26901D01*
X21820Y-26891D01*
X21866Y-26891D01*
X21896Y-26901D01*
X21911Y-26912D01*
X21927Y-26933D01*
X21927Y-27017D01*
X22079Y-26681D02*
X22079Y-26807D01*
X22079Y-26744D02*
X21759Y-26744D01*
X21805Y-26765D01*
X21835Y-26786D01*
X21850Y-26807D01*
X21790Y-26598D02*
X21774Y-26587D01*
X21759Y-26566D01*
X21759Y-26514D01*
X21774Y-26493D01*
X21790Y-26482D01*
X21820Y-26472D01*
X21850Y-26472D01*
X21896Y-26482D01*
X22079Y-26608D01*
X22079Y-26472D01*
X21379Y-26891D02*
X21227Y-26964D01*
X21379Y-27017D02*
X21059Y-27017D01*
X21059Y-26933D01*
X21074Y-26912D01*
X21090Y-26901D01*
X21120Y-26891D01*
X21166Y-26891D01*
X21196Y-26901D01*
X21211Y-26912D01*
X21227Y-26933D01*
X21227Y-27017D01*
X21379Y-26681D02*
X21379Y-26807D01*
X21379Y-26744D02*
X21059Y-26744D01*
X21105Y-26765D01*
X21135Y-26786D01*
X21150Y-26807D01*
X21379Y-26472D02*
X21379Y-26598D01*
X21379Y-26535D02*
X21059Y-26535D01*
X21105Y-26556D01*
X21135Y-26577D01*
X21150Y-26598D01*
X13759Y-20196D02*
X13607Y-20270D01*
X13759Y-20322D02*
X13439Y-20322D01*
X13439Y-20238D01*
X13454Y-20217D01*
X13470Y-20207D01*
X13500Y-20196D01*
X13546Y-20196D01*
X13576Y-20207D01*
X13591Y-20217D01*
X13607Y-20238D01*
X13607Y-20322D01*
X13576Y-20070D02*
X13561Y-20091D01*
X13546Y-20102D01*
X13515Y-20112D01*
X13500Y-20112D01*
X13470Y-20102D01*
X13454Y-20091D01*
X13439Y-20070D01*
X13439Y-20029D01*
X13454Y-20008D01*
X13470Y-19997D01*
X13500Y-19987D01*
X13515Y-19987D01*
X13546Y-19997D01*
X13561Y-20008D01*
X13576Y-20029D01*
X13576Y-20070D01*
X13591Y-20091D01*
X13607Y-20102D01*
X13637Y-20112D01*
X13698Y-20112D01*
X13729Y-20102D01*
X13744Y-20091D01*
X13759Y-20070D01*
X13759Y-20029D01*
X13744Y-20008D01*
X13729Y-19997D01*
X13698Y-19987D01*
X13637Y-19987D01*
X13607Y-19997D01*
X13591Y-20008D01*
X13576Y-20029D01*
X17439Y-20196D02*
X17287Y-20270D01*
X17439Y-20322D02*
X17119Y-20322D01*
X17119Y-20238D01*
X17134Y-20217D01*
X17150Y-20207D01*
X17180Y-20196D01*
X17226Y-20196D01*
X17256Y-20207D01*
X17271Y-20217D01*
X17287Y-20238D01*
X17287Y-20322D01*
X17119Y-20123D02*
X17119Y-19976D01*
X17439Y-20070D01*
X18363Y-31929D02*
X18290Y-31777D01*
X18237Y-31929D02*
X18237Y-31609D01*
X18321Y-31609D01*
X18342Y-31624D01*
X18352Y-31640D01*
X18363Y-31670D01*
X18363Y-31716D01*
X18352Y-31746D01*
X18342Y-31761D01*
X18321Y-31777D01*
X18237Y-31777D01*
X18562Y-31609D02*
X18457Y-31609D01*
X18447Y-31761D01*
X18457Y-31746D01*
X18478Y-31731D01*
X18530Y-31731D01*
X18551Y-31746D01*
X18562Y-31761D01*
X18572Y-31792D01*
X18572Y-31868D01*
X18562Y-31899D01*
X18551Y-31914D01*
X18530Y-31929D01*
X18478Y-31929D01*
X18457Y-31914D01*
X18447Y-31899D01*
X18363Y-31029D02*
X18290Y-30877D01*
X18237Y-31029D02*
X18237Y-30709D01*
X18321Y-30709D01*
X18342Y-30724D01*
X18352Y-30740D01*
X18363Y-30770D01*
X18363Y-30816D01*
X18352Y-30846D01*
X18342Y-30861D01*
X18321Y-30877D01*
X18237Y-30877D01*
X18551Y-30816D02*
X18551Y-31029D01*
X18499Y-30694D02*
X18447Y-30922D01*
X18583Y-30922D01*
X13013Y-13729D02*
X12940Y-13577D01*
X12887Y-13729D02*
X12887Y-13409D01*
X12971Y-13409D01*
X12992Y-13424D01*
X13002Y-13440D01*
X13013Y-13470D01*
X13013Y-13516D01*
X13002Y-13546D01*
X12992Y-13561D01*
X12971Y-13577D01*
X12887Y-13577D01*
X13222Y-13729D02*
X13097Y-13729D01*
X13160Y-13729D02*
X13160Y-13409D01*
X13139Y-13455D01*
X13118Y-13485D01*
X13097Y-13500D01*
G54D19*
X15636Y-20842D02*
X15902Y-21342D01*
X15902Y-20842D02*
X15636Y-21342D01*
X16017Y-20842D02*
X16264Y-20842D01*
X16131Y-21032D01*
X16188Y-21032D01*
X16226Y-21056D01*
X16245Y-21080D01*
X16264Y-21128D01*
X16264Y-21247D01*
X16245Y-21294D01*
X16226Y-21318D01*
X16188Y-21342D01*
X16074Y-21342D01*
X16036Y-21318D01*
X16017Y-21294D01*
G54D25*
X18857Y-15044D02*
X18857Y-15531D01*
X18836Y-15628D01*
X18796Y-15693D01*
X18735Y-15725D01*
X18694Y-15725D01*
X19285Y-15725D02*
X19040Y-15725D01*
X19163Y-15725D02*
X19163Y-15044D01*
X19122Y-15141D01*
X19081Y-15206D01*
X19040Y-15239D01*
G54D26*
X23140Y-14312D02*
X22940Y-14312D01*
X22940Y-14270D01*
X22950Y-14244D01*
X22969Y-14227D01*
X22988Y-14218D01*
X23026Y-14210D01*
X23055Y-14210D01*
X23093Y-14218D01*
X23112Y-14227D01*
X23131Y-14244D01*
X23140Y-14270D01*
X23140Y-14312D01*
X22960Y-14141D02*
X22950Y-14132D01*
X22940Y-14115D01*
X22940Y-14072D01*
X22950Y-14055D01*
X22960Y-14047D01*
X22979Y-14038D01*
X22998Y-14038D01*
X23026Y-14047D01*
X23140Y-14150D01*
X23140Y-14038D01*
G54D11*
X21493Y-20369D02*
X21482Y-20384D01*
X21451Y-20399D01*
X21430Y-20399D01*
X21399Y-20384D01*
X21378Y-20353D01*
X21367Y-20323D01*
X21357Y-20262D01*
X21357Y-20216D01*
X21367Y-20155D01*
X21378Y-20125D01*
X21399Y-20094D01*
X21430Y-20079D01*
X21451Y-20079D01*
X21482Y-20094D01*
X21493Y-20110D01*
X21681Y-20186D02*
X21681Y-20399D01*
X21629Y-20064D02*
X21577Y-20292D01*
X21713Y-20292D01*
X15239Y-21181D02*
X15254Y-21191D01*
X15269Y-21223D01*
X15269Y-21244D01*
X15254Y-21275D01*
X15223Y-21296D01*
X15193Y-21307D01*
X15132Y-21317D01*
X15086Y-21317D01*
X15025Y-21307D01*
X14995Y-21296D01*
X14964Y-21275D01*
X14949Y-21244D01*
X14949Y-21223D01*
X14964Y-21191D01*
X14980Y-21181D01*
X15269Y-20971D02*
X15269Y-21097D01*
X15269Y-21034D02*
X14949Y-21034D01*
X14995Y-21055D01*
X15025Y-21076D01*
X15040Y-21097D01*
X14949Y-20783D02*
X14949Y-20825D01*
X14964Y-20846D01*
X14980Y-20856D01*
X15025Y-20877D01*
X15086Y-20888D01*
X15208Y-20888D01*
X15239Y-20877D01*
X15254Y-20867D01*
X15269Y-20846D01*
X15269Y-20804D01*
X15254Y-20783D01*
X15239Y-20772D01*
X15208Y-20762D01*
X15132Y-20762D01*
X15101Y-20772D01*
X15086Y-20783D01*
X15071Y-20804D01*
X15071Y-20846D01*
X15086Y-20867D01*
X15101Y-20877D01*
X15132Y-20888D01*
X16959Y-21181D02*
X16974Y-21191D01*
X16989Y-21223D01*
X16989Y-21244D01*
X16974Y-21275D01*
X16943Y-21296D01*
X16913Y-21307D01*
X16852Y-21317D01*
X16806Y-21317D01*
X16745Y-21307D01*
X16715Y-21296D01*
X16684Y-21275D01*
X16669Y-21244D01*
X16669Y-21223D01*
X16684Y-21191D01*
X16700Y-21181D01*
X16989Y-20971D02*
X16989Y-21097D01*
X16989Y-21034D02*
X16669Y-21034D01*
X16715Y-21055D01*
X16745Y-21076D01*
X16760Y-21097D01*
X16669Y-20898D02*
X16669Y-20751D01*
X16989Y-20846D01*
X20029Y-18762D02*
X19709Y-18762D01*
X19709Y-18710D01*
X19724Y-18678D01*
X19755Y-18657D01*
X19785Y-18647D01*
X19846Y-18636D01*
X19892Y-18636D01*
X19953Y-18647D01*
X19983Y-18657D01*
X20014Y-18678D01*
X20029Y-18710D01*
X20029Y-18762D01*
X19816Y-18448D02*
X20029Y-18448D01*
X19694Y-18500D02*
X19922Y-18552D01*
X19922Y-18416D01*
X19229Y-18291D02*
X19077Y-18364D01*
X19229Y-18417D02*
X18909Y-18417D01*
X18909Y-18333D01*
X18924Y-18312D01*
X18940Y-18301D01*
X18970Y-18291D01*
X19016Y-18291D01*
X19046Y-18301D01*
X19061Y-18312D01*
X19077Y-18333D01*
X19077Y-18417D01*
X19229Y-18081D02*
X19229Y-18207D01*
X19229Y-18144D02*
X18909Y-18144D01*
X18955Y-18165D01*
X18985Y-18186D01*
X19000Y-18207D01*
X19016Y-17893D02*
X19229Y-17893D01*
X18894Y-17945D02*
X19122Y-17998D01*
X19122Y-17861D01*
X17108Y-15199D02*
X17098Y-15214D01*
X17066Y-15229D01*
X17045Y-15229D01*
X17014Y-15214D01*
X16993Y-15183D01*
X16982Y-15153D01*
X16972Y-15092D01*
X16972Y-15046D01*
X16982Y-14985D01*
X16993Y-14955D01*
X17014Y-14924D01*
X17045Y-14909D01*
X17066Y-14909D01*
X17098Y-14924D01*
X17108Y-14940D01*
X17318Y-15229D02*
X17192Y-15229D01*
X17255Y-15229D02*
X17255Y-14909D01*
X17234Y-14955D01*
X17213Y-14985D01*
X17192Y-15000D01*
X17527Y-15229D02*
X17401Y-15229D01*
X17464Y-15229D02*
X17464Y-14909D01*
X17443Y-14955D01*
X17422Y-14985D01*
X17401Y-15000D01*
X17213Y-14529D02*
X17108Y-14529D01*
X17108Y-14209D01*
X17276Y-14240D02*
X17286Y-14224D01*
X17307Y-14209D01*
X17360Y-14209D01*
X17380Y-14224D01*
X17391Y-14240D01*
X17401Y-14270D01*
X17401Y-14300D01*
X17391Y-14346D01*
X17265Y-14529D01*
X17401Y-14529D01*
G54D26*
X21874Y-22201D02*
X21865Y-22211D01*
X21840Y-22220D01*
X21822Y-22220D01*
X21797Y-22211D01*
X21780Y-22192D01*
X21771Y-22173D01*
X21762Y-22135D01*
X21762Y-22106D01*
X21771Y-22068D01*
X21780Y-22049D01*
X21797Y-22030D01*
X21822Y-22020D01*
X21840Y-22020D01*
X21865Y-22030D01*
X21874Y-22040D01*
X22045Y-22220D02*
X21942Y-22220D01*
X21994Y-22220D02*
X21994Y-22020D01*
X21977Y-22049D01*
X21960Y-22068D01*
X21942Y-22078D01*
X22208Y-22020D02*
X22122Y-22020D01*
X22114Y-22116D01*
X22122Y-22106D01*
X22140Y-22097D01*
X22182Y-22097D01*
X22200Y-22106D01*
X22208Y-22116D01*
X22217Y-22135D01*
X22217Y-22182D01*
X22208Y-22201D01*
X22200Y-22211D01*
X22182Y-22220D01*
X22140Y-22220D01*
X22122Y-22211D01*
X22114Y-22201D01*
X21884Y-21281D02*
X21875Y-21291D01*
X21850Y-21300D01*
X21832Y-21300D01*
X21807Y-21291D01*
X21790Y-21272D01*
X21781Y-21253D01*
X21772Y-21215D01*
X21772Y-21186D01*
X21781Y-21148D01*
X21790Y-21129D01*
X21807Y-21110D01*
X21832Y-21100D01*
X21850Y-21100D01*
X21875Y-21110D01*
X21884Y-21120D01*
X22055Y-21300D02*
X21952Y-21300D01*
X22004Y-21300D02*
X22004Y-21100D01*
X21987Y-21129D01*
X21970Y-21148D01*
X21952Y-21158D01*
X22210Y-21167D02*
X22210Y-21300D01*
X22167Y-21091D02*
X22124Y-21234D01*
X22235Y-21234D01*
G54D19*
X20535Y-22692D02*
X20868Y-23192D01*
X20868Y-22692D02*
X20535Y-23192D01*
X21320Y-23192D02*
X21035Y-23192D01*
X21178Y-23192D02*
X21178Y-22692D01*
X21130Y-22763D01*
X21082Y-22811D01*
X21035Y-22835D01*
G54D26*
X23100Y-16850D02*
X23005Y-16910D01*
X23100Y-16952D02*
X22900Y-16952D01*
X22900Y-16884D01*
X22910Y-16867D01*
X22920Y-16858D01*
X22939Y-16850D01*
X22967Y-16850D01*
X22986Y-16858D01*
X22996Y-16867D01*
X23005Y-16884D01*
X23005Y-16952D01*
X22920Y-16781D02*
X22910Y-16772D01*
X22900Y-16755D01*
X22900Y-16712D01*
X22910Y-16695D01*
X22920Y-16687D01*
X22939Y-16678D01*
X22958Y-16678D01*
X22986Y-16687D01*
X23100Y-16790D01*
X23100Y-16678D01*
G54D11*
X17152Y-32440D02*
X17152Y-32240D01*
X17200Y-32240D01*
X17228Y-32250D01*
X17247Y-32269D01*
X17257Y-32288D01*
X17266Y-32326D01*
X17266Y-32355D01*
X17257Y-32393D01*
X17247Y-32412D01*
X17228Y-32431D01*
X17200Y-32440D01*
X17152Y-32440D01*
X17447Y-32240D02*
X17352Y-32240D01*
X17342Y-32336D01*
X17352Y-32326D01*
X17371Y-32317D01*
X17419Y-32317D01*
X17438Y-32326D01*
X17447Y-32336D01*
X17457Y-32355D01*
X17457Y-32402D01*
X17447Y-32421D01*
X17438Y-32431D01*
X17419Y-32440D01*
X17371Y-32440D01*
X17352Y-32431D01*
X17342Y-32421D01*
M02*
