M48
INCH,TZ
T1C0.025
T2C0.028
T3C0.029
T4C0.030
T5C0.032
T6C0.039
T7C0.040
T8C0.095
T9C0.125
%
G90
G05
T1
X1.165Y-1.42
X1.195Y-1.245
X1.26Y-2.85
X1.423Y-2.428
X1.475Y-1.36
X1.54Y-2.805
X1.6Y-2.88
X1.602Y-2.471
X1.61Y-2.695
X1.715Y-2.765
X1.755Y-3.
X1.763Y-2.942
X1.768Y-2.772
X1.785Y-2.515
X1.785Y-2.7
X1.81Y-3.235
X1.845Y-1.61
X1.85Y-2.665
X1.858Y-2.946
X1.893Y-2.864
X1.967Y-2.167
X2.155Y-2.88
X2.275Y-1.387
T2
X2.1058Y-1.875
X2.2042Y-1.875
T3
X1.2819Y-3.25
X1.3409Y-3.25
X1.4Y-3.25
X1.4591Y-3.25
X1.5181Y-3.25
T4
X1.943Y-2.0489
X1.943Y-2.2411
T5
X1.434Y-2.105
X1.434Y-2.205
X1.548Y-2.204
X1.648Y-2.204
X1.762Y-2.105
X1.762Y-2.205
X2.1Y-1.65
X2.2Y-1.65
T6
X1.478Y-1.1567
X1.6512Y-1.1567
T7
X1.1Y-1.2
X1.1Y-1.3
X1.1Y-1.4
X1.1Y-1.5
X1.1Y-1.6
X1.1Y-1.7
X1.1Y-1.8
X1.1Y-1.9
X1.1Y-2.
X1.1Y-2.1
X1.1Y-2.2
X1.1Y-2.3
X1.1Y-2.4
X1.1Y-2.5
X1.1Y-2.6
X1.1Y-2.7
X1.1Y-2.8
X1.1Y-2.9
X1.1Y-3.
X1.1Y-3.1
X1.3Y-1.635
X1.4Y-1.635
X1.5Y-1.635
X1.59Y-1.79
X1.69Y-1.79
X2.4Y-1.2
X2.4Y-1.3
X2.4Y-1.4
X2.4Y-1.5
X2.4Y-1.6
X2.4Y-1.7
X2.4Y-1.8
X2.4Y-1.9
X2.4Y-2.
X2.4Y-2.1
X2.4Y-2.2
X2.4Y-2.3
X2.4Y-2.4
X2.4Y-2.5
X2.4Y-2.6
X2.4Y-2.7
X2.4Y-2.8
X2.4Y-2.9
X2.4Y-3.
X2.4Y-3.1
T8
X1.9189Y-1.3791
X2.1Y-1.2531
X2.1Y-1.4933
T9
X1.1Y-1.05
X1.1Y-3.25
X2.4Y-1.05
X2.4Y-3.25
T0
M30
