G04 (created by PCBNEW (2013-07-07 BZR 4022)-stable) date 12/3/2013 2:23:43 AM*
%MOIN*%
G04 Gerber Fmt 3.4, Leading zero omitted, Abs format*
%FSLAX34Y34*%
G01*
G70*
G90*
G04 APERTURE LIST*
%ADD10C,0.00590551*%
%ADD11R,0.0787X0.0984*%
%ADD12C,0.0433*%
%ADD13R,0.0197X0.0906*%
%ADD14R,0.045X0.045*%
%ADD15R,0.06X0.06*%
%ADD16C,0.06*%
%ADD17R,0.07X0.07*%
%ADD18C,0.07*%
%ADD19R,0.055X0.055*%
%ADD20C,0.055*%
%ADD21C,0.1654*%
%ADD22R,0.0314X0.0314*%
%ADD23C,0.0512*%
%ADD24R,0.0669X0.0551*%
%ADD25C,0.045*%
%ADD26C,0.126*%
%ADD27R,0.05X0.04*%
%ADD28R,0.035X0.055*%
%ADD29R,0.025X0.045*%
%ADD30C,0.056*%
%ADD31R,0.045X0.025*%
%ADD32C,0.035*%
%ADD33C,0.008*%
%ADD34C,0.02*%
%ADD35C,0.015*%
G04 APERTURE END LIST*
G54D10*
G54D11*
X13894Y-10386D03*
X17398Y-10386D03*
X17398Y-12551D03*
X13894Y-12551D03*
G54D12*
X16512Y-11567D03*
X14780Y-11567D03*
G54D13*
X16276Y-12591D03*
X15961Y-12591D03*
X15646Y-12591D03*
X15331Y-12591D03*
X15016Y-12591D03*
G54D10*
G36*
X15714Y-24527D02*
X15290Y-24103D01*
X15403Y-23990D01*
X15827Y-24414D01*
X15714Y-24527D01*
X15714Y-24527D01*
G37*
G36*
X15491Y-24750D02*
X15067Y-24326D01*
X15180Y-24213D01*
X15604Y-24637D01*
X15491Y-24750D01*
X15491Y-24750D01*
G37*
G36*
X15269Y-24973D02*
X14844Y-24548D01*
X14957Y-24435D01*
X15382Y-24860D01*
X15269Y-24973D01*
X15269Y-24973D01*
G37*
G36*
X15046Y-25195D02*
X14622Y-24771D01*
X14735Y-24658D01*
X15159Y-25082D01*
X15046Y-25195D01*
X15046Y-25195D01*
G37*
G36*
X14823Y-25418D02*
X14399Y-24994D01*
X14512Y-24881D01*
X14936Y-25305D01*
X14823Y-25418D01*
X14823Y-25418D01*
G37*
G36*
X14600Y-25641D02*
X14176Y-25217D01*
X14289Y-25104D01*
X14714Y-25528D01*
X14600Y-25641D01*
X14600Y-25641D01*
G37*
G36*
X15937Y-24304D02*
X15513Y-23880D01*
X15626Y-23767D01*
X16050Y-24191D01*
X15937Y-24304D01*
X15937Y-24304D01*
G37*
G36*
X16160Y-24082D02*
X15735Y-23657D01*
X15848Y-23544D01*
X16273Y-23969D01*
X16160Y-24082D01*
X16160Y-24082D01*
G37*
G36*
X16382Y-23859D02*
X15958Y-23435D01*
X16071Y-23322D01*
X16495Y-23746D01*
X16382Y-23859D01*
X16382Y-23859D01*
G37*
G36*
X16605Y-23636D02*
X16181Y-23212D01*
X16294Y-23099D01*
X16718Y-23523D01*
X16605Y-23636D01*
X16605Y-23636D01*
G37*
G36*
X16828Y-23414D02*
X16404Y-22989D01*
X16517Y-22876D01*
X16941Y-23300D01*
X16828Y-23414D01*
X16828Y-23414D01*
G37*
G36*
X18896Y-27709D02*
X18472Y-27285D01*
X18585Y-27172D01*
X19009Y-27596D01*
X18896Y-27709D01*
X18896Y-27709D01*
G37*
G36*
X18673Y-27932D02*
X18249Y-27508D01*
X18362Y-27395D01*
X18786Y-27819D01*
X18673Y-27932D01*
X18673Y-27932D01*
G37*
G36*
X18451Y-28155D02*
X18026Y-27730D01*
X18139Y-27617D01*
X18564Y-28042D01*
X18451Y-28155D01*
X18451Y-28155D01*
G37*
G36*
X18228Y-28377D02*
X17804Y-27953D01*
X17917Y-27840D01*
X18341Y-28264D01*
X18228Y-28377D01*
X18228Y-28377D01*
G37*
G36*
X18005Y-28600D02*
X17581Y-28176D01*
X17694Y-28063D01*
X18118Y-28487D01*
X18005Y-28600D01*
X18005Y-28600D01*
G37*
G36*
X17782Y-28823D02*
X17358Y-28399D01*
X17471Y-28285D01*
X17895Y-28710D01*
X17782Y-28823D01*
X17782Y-28823D01*
G37*
G36*
X19119Y-27486D02*
X18695Y-27062D01*
X18808Y-26949D01*
X19232Y-27373D01*
X19119Y-27486D01*
X19119Y-27486D01*
G37*
G36*
X19342Y-27264D02*
X18917Y-26839D01*
X19030Y-26726D01*
X19455Y-27151D01*
X19342Y-27264D01*
X19342Y-27264D01*
G37*
G36*
X19564Y-27041D02*
X19140Y-26617D01*
X19253Y-26504D01*
X19677Y-26928D01*
X19564Y-27041D01*
X19564Y-27041D01*
G37*
G36*
X19787Y-26818D02*
X19363Y-26394D01*
X19476Y-26281D01*
X19900Y-26705D01*
X19787Y-26818D01*
X19787Y-26818D01*
G37*
G36*
X20010Y-26595D02*
X19585Y-26171D01*
X19699Y-26058D01*
X20123Y-26482D01*
X20010Y-26595D01*
X20010Y-26595D01*
G37*
G36*
X15403Y-27709D02*
X15290Y-27596D01*
X15714Y-27172D01*
X15827Y-27285D01*
X15403Y-27709D01*
X15403Y-27709D01*
G37*
G36*
X18585Y-24527D02*
X18472Y-24414D01*
X18896Y-23990D01*
X19009Y-24103D01*
X18585Y-24527D01*
X18585Y-24527D01*
G37*
G36*
X15626Y-27932D02*
X15513Y-27819D01*
X15937Y-27395D01*
X16050Y-27508D01*
X15626Y-27932D01*
X15626Y-27932D01*
G37*
G36*
X18808Y-24750D02*
X18695Y-24637D01*
X19119Y-24213D01*
X19232Y-24326D01*
X18808Y-24750D01*
X18808Y-24750D01*
G37*
G36*
X19030Y-24973D02*
X18917Y-24860D01*
X19342Y-24435D01*
X19455Y-24548D01*
X19030Y-24973D01*
X19030Y-24973D01*
G37*
G36*
X15848Y-28155D02*
X15735Y-28042D01*
X16160Y-27617D01*
X16273Y-27730D01*
X15848Y-28155D01*
X15848Y-28155D01*
G37*
G36*
X16071Y-28377D02*
X15958Y-28264D01*
X16382Y-27840D01*
X16495Y-27953D01*
X16071Y-28377D01*
X16071Y-28377D01*
G37*
G36*
X19253Y-25195D02*
X19140Y-25082D01*
X19564Y-24658D01*
X19677Y-24771D01*
X19253Y-25195D01*
X19253Y-25195D01*
G37*
G36*
X19476Y-25418D02*
X19363Y-25305D01*
X19787Y-24881D01*
X19900Y-24994D01*
X19476Y-25418D01*
X19476Y-25418D01*
G37*
G36*
X16294Y-28600D02*
X16181Y-28487D01*
X16605Y-28063D01*
X16718Y-28176D01*
X16294Y-28600D01*
X16294Y-28600D01*
G37*
G36*
X16517Y-28823D02*
X16404Y-28710D01*
X16828Y-28285D01*
X16941Y-28399D01*
X16517Y-28823D01*
X16517Y-28823D01*
G37*
G36*
X19699Y-25641D02*
X19585Y-25528D01*
X20010Y-25104D01*
X20123Y-25217D01*
X19699Y-25641D01*
X19699Y-25641D01*
G37*
G36*
X18362Y-24304D02*
X18249Y-24191D01*
X18673Y-23767D01*
X18786Y-23880D01*
X18362Y-24304D01*
X18362Y-24304D01*
G37*
G36*
X15180Y-27486D02*
X15067Y-27373D01*
X15491Y-26949D01*
X15604Y-27062D01*
X15180Y-27486D01*
X15180Y-27486D01*
G37*
G36*
X14957Y-27264D02*
X14844Y-27151D01*
X15269Y-26726D01*
X15382Y-26839D01*
X14957Y-27264D01*
X14957Y-27264D01*
G37*
G36*
X18139Y-24082D02*
X18026Y-23969D01*
X18451Y-23544D01*
X18564Y-23657D01*
X18139Y-24082D01*
X18139Y-24082D01*
G37*
G36*
X17917Y-23859D02*
X17804Y-23746D01*
X18228Y-23322D01*
X18341Y-23435D01*
X17917Y-23859D01*
X17917Y-23859D01*
G37*
G36*
X14735Y-27041D02*
X14622Y-26928D01*
X15046Y-26504D01*
X15159Y-26617D01*
X14735Y-27041D01*
X14735Y-27041D01*
G37*
G36*
X14512Y-26818D02*
X14399Y-26705D01*
X14823Y-26281D01*
X14936Y-26394D01*
X14512Y-26818D01*
X14512Y-26818D01*
G37*
G36*
X17694Y-23636D02*
X17581Y-23523D01*
X18005Y-23099D01*
X18118Y-23212D01*
X17694Y-23636D01*
X17694Y-23636D01*
G37*
G36*
X17471Y-23414D02*
X17358Y-23300D01*
X17782Y-22876D01*
X17895Y-22989D01*
X17471Y-23414D01*
X17471Y-23414D01*
G37*
G36*
X14289Y-26595D02*
X14176Y-26482D01*
X14600Y-26058D01*
X14714Y-26171D01*
X14289Y-26595D01*
X14289Y-26595D01*
G37*
G54D14*
X23150Y-27800D03*
X23150Y-27000D03*
X21950Y-28250D03*
X21950Y-27450D03*
X21250Y-28250D03*
X21250Y-27450D03*
X14150Y-20130D03*
X14150Y-19330D03*
X17820Y-20130D03*
X17820Y-19330D03*
X17800Y-31800D03*
X17000Y-31800D03*
X17000Y-30850D03*
X17800Y-30850D03*
X12050Y-13000D03*
X12850Y-13000D03*
G54D15*
X15000Y-16350D03*
G54D16*
X14000Y-16350D03*
X13000Y-16350D03*
G54D17*
X11000Y-31000D03*
G54D18*
X11000Y-30000D03*
X11000Y-29000D03*
X11000Y-28000D03*
X11000Y-27000D03*
X11000Y-26000D03*
X11000Y-25000D03*
X11000Y-24000D03*
X11000Y-23000D03*
X11000Y-22000D03*
X11000Y-21000D03*
X11000Y-20000D03*
X11000Y-19000D03*
X11000Y-18000D03*
X11000Y-17000D03*
X11000Y-16000D03*
X11000Y-15000D03*
X11000Y-14000D03*
X11000Y-13000D03*
X11000Y-12000D03*
G54D17*
X24000Y-12000D03*
G54D18*
X24000Y-13000D03*
X24000Y-14000D03*
X24000Y-15000D03*
X24000Y-16000D03*
X24000Y-17000D03*
X24000Y-18000D03*
X24000Y-19000D03*
X24000Y-20000D03*
X24000Y-21000D03*
X24000Y-22000D03*
X24000Y-23000D03*
X24000Y-24000D03*
X24000Y-25000D03*
X24000Y-26000D03*
X24000Y-27000D03*
X24000Y-28000D03*
X24000Y-29000D03*
X24000Y-30000D03*
X24000Y-31000D03*
G54D19*
X15480Y-22040D03*
G54D20*
X16480Y-22040D03*
G54D15*
X16900Y-17900D03*
G54D16*
X15900Y-17900D03*
G54D19*
X21000Y-16500D03*
G54D20*
X22000Y-16500D03*
G54D21*
X21000Y-14933D03*
X19189Y-13791D03*
X21000Y-12531D03*
G54D22*
X12155Y-12000D03*
X12745Y-12000D03*
X23190Y-15205D03*
X23190Y-14615D03*
G54D23*
X21058Y-18750D03*
X22042Y-18750D03*
G54D20*
X14340Y-22050D03*
X14340Y-21050D03*
X17620Y-22050D03*
X17620Y-21050D03*
G54D24*
X19200Y-31000D03*
X22330Y-31000D03*
X19200Y-32772D03*
X22330Y-32772D03*
G54D25*
X12819Y-32500D03*
X13409Y-32500D03*
X14000Y-32500D03*
X14591Y-32500D03*
X15181Y-32500D03*
G54D26*
X11000Y-32500D03*
X24000Y-32500D03*
X24000Y-10500D03*
X11000Y-10500D03*
G54D27*
X19900Y-16605D03*
X19900Y-17895D03*
G54D14*
X19050Y-16600D03*
X19050Y-17400D03*
G54D22*
X18300Y-16655D03*
X18300Y-17245D03*
G54D28*
X15825Y-15100D03*
X16575Y-15100D03*
X15825Y-14400D03*
X16575Y-14400D03*
G54D29*
X20880Y-22120D03*
X21480Y-22120D03*
X20880Y-21200D03*
X21480Y-21200D03*
G54D30*
X19430Y-20489D03*
X19430Y-22411D03*
G54D31*
X23200Y-16400D03*
X23200Y-15800D03*
G54D22*
X17005Y-32760D03*
X17595Y-32760D03*
G54D32*
X18100Y-32350D03*
X22750Y-13870D03*
X17150Y-27650D03*
X17850Y-25150D03*
X21550Y-28800D03*
X17550Y-30000D03*
X18930Y-28640D03*
X11950Y-12450D03*
X11650Y-14200D03*
X18580Y-29460D03*
X17630Y-29420D03*
X17680Y-27720D03*
X16000Y-28800D03*
X12600Y-28500D03*
X14230Y-24280D03*
X14750Y-13600D03*
X18450Y-16100D03*
X16100Y-26950D03*
X19670Y-21670D03*
X16020Y-24710D03*
X17850Y-27000D03*
X18500Y-26650D03*
X15400Y-28050D03*
G54D33*
X17800Y-32050D02*
X17800Y-31800D01*
X18100Y-32350D02*
X17800Y-32050D01*
X22750Y-12650D02*
X23400Y-12000D01*
X17150Y-27650D02*
X17141Y-27641D01*
X17850Y-25150D02*
X17250Y-25750D01*
X17200Y-25800D02*
X16654Y-25800D01*
X23400Y-12000D02*
X24000Y-12000D01*
X17250Y-27532D02*
X17141Y-27641D01*
X17850Y-25150D02*
X18741Y-24259D01*
X16654Y-25800D02*
X15336Y-24482D01*
X22750Y-13870D02*
X22750Y-12650D01*
X17250Y-25750D02*
X17200Y-25800D01*
X17141Y-27641D02*
X16450Y-28332D01*
X17250Y-25750D02*
X17250Y-27532D01*
G54D34*
X15450Y-16350D02*
X15000Y-16350D01*
X16900Y-17800D02*
X15450Y-16350D01*
X16900Y-17900D02*
X16900Y-17800D01*
G54D33*
X22850Y-31600D02*
X24600Y-31600D01*
X20600Y-28800D02*
X21100Y-28800D01*
X16150Y-31350D02*
X18400Y-31350D01*
X23104Y-23396D02*
X22800Y-23700D01*
X23104Y-23154D02*
X23100Y-23158D01*
X22800Y-23700D02*
X22800Y-25050D01*
X20400Y-26850D02*
X20400Y-28600D01*
X21100Y-28800D02*
X21250Y-28650D01*
X24650Y-22500D02*
X23758Y-22500D01*
X23104Y-23154D02*
X23104Y-23396D01*
X20400Y-28600D02*
X20600Y-28800D01*
X24750Y-31450D02*
X24750Y-22600D01*
X19855Y-26327D02*
X19877Y-26327D01*
X15181Y-32500D02*
X15181Y-32319D01*
X22800Y-25050D02*
X21000Y-26850D01*
X21250Y-28650D02*
X21250Y-28250D01*
X15181Y-32319D02*
X16150Y-31350D01*
X22600Y-31850D02*
X22850Y-31600D01*
X18400Y-31350D02*
X18400Y-31350D01*
X19877Y-26327D02*
X20400Y-26850D01*
X21000Y-26850D02*
X20400Y-26850D01*
X24750Y-22600D02*
X24650Y-22500D01*
X18400Y-31350D02*
X18900Y-31850D01*
X23758Y-22500D02*
X23104Y-23154D01*
X18900Y-31850D02*
X22600Y-31850D01*
X18400Y-31350D02*
X18400Y-31350D01*
X24600Y-31600D02*
X24750Y-31450D01*
X20050Y-28850D02*
X20250Y-29050D01*
X20050Y-26950D02*
X20050Y-28850D01*
X21950Y-29000D02*
X21950Y-28800D01*
X21900Y-29050D02*
X21950Y-29000D01*
X19632Y-26550D02*
X19650Y-26550D01*
X20250Y-29050D02*
X21900Y-29050D01*
X19650Y-26550D02*
X20050Y-26950D01*
X21950Y-28800D02*
X21950Y-28250D01*
X21950Y-28800D02*
X21550Y-28800D01*
X19018Y-27218D02*
X19350Y-27550D01*
X12819Y-32500D02*
X12819Y-32031D01*
X15850Y-30850D02*
X17000Y-30850D01*
X19350Y-27950D02*
X19350Y-28650D01*
X19700Y-29650D02*
X22800Y-29650D01*
X15300Y-31400D02*
X15850Y-30850D01*
X19350Y-28650D02*
X19100Y-28650D01*
X18964Y-27218D02*
X19018Y-27218D01*
X22800Y-29650D02*
X23150Y-29300D01*
X12819Y-32031D02*
X13450Y-31400D01*
X18940Y-28650D02*
X18930Y-28640D01*
X19350Y-27950D02*
X19350Y-27950D01*
X17000Y-30550D02*
X17550Y-30000D01*
X19350Y-28650D02*
X19350Y-29300D01*
X13450Y-31400D02*
X15300Y-31400D01*
X23150Y-29300D02*
X23150Y-27800D01*
X19350Y-29300D02*
X19700Y-29650D01*
X19350Y-27550D02*
X19350Y-27950D01*
X17000Y-30550D02*
X17000Y-30850D01*
X19100Y-28650D02*
X18940Y-28650D01*
X18296Y-23814D02*
X19210Y-22900D01*
X19210Y-22631D02*
X19430Y-22411D01*
X19210Y-22900D02*
X19210Y-22631D01*
X20880Y-22120D02*
X20600Y-22120D01*
X20309Y-22411D02*
X19430Y-22411D01*
X20600Y-22120D02*
X20309Y-22411D01*
X20250Y-20720D02*
X20019Y-20489D01*
X20250Y-20870D02*
X20250Y-20720D01*
X19061Y-20489D02*
X19430Y-20489D01*
X20880Y-21200D02*
X20580Y-21200D01*
X18073Y-23587D02*
X18660Y-23000D01*
X20580Y-21200D02*
X20250Y-20870D01*
X18660Y-23000D02*
X18660Y-20890D01*
X20019Y-20489D02*
X19430Y-20489D01*
X18073Y-23591D02*
X18073Y-23587D01*
X18660Y-20890D02*
X19061Y-20489D01*
G54D34*
X19900Y-17895D02*
X20203Y-17895D01*
X20203Y-17895D02*
X21058Y-18750D01*
G54D35*
X11950Y-14500D02*
X11950Y-15250D01*
G54D33*
X12050Y-13000D02*
X12050Y-12550D01*
G54D35*
X12600Y-16900D02*
X13450Y-16900D01*
X11650Y-14200D02*
X11950Y-14500D01*
X11950Y-15250D02*
X12050Y-15350D01*
X13450Y-16900D02*
X14000Y-16350D01*
G54D33*
X12050Y-12550D02*
X11950Y-12450D01*
G54D35*
X12050Y-16350D02*
X12600Y-16900D01*
X12050Y-15350D02*
X12050Y-16350D01*
G54D33*
X19600Y-29250D02*
X19818Y-29468D01*
X19186Y-26996D02*
X19186Y-27036D01*
X22432Y-29468D02*
X22600Y-29300D01*
X22600Y-26600D02*
X23200Y-26000D01*
X22600Y-29300D02*
X22600Y-26600D01*
X19600Y-27450D02*
X19600Y-29250D01*
X19186Y-27036D02*
X19600Y-27450D01*
X19818Y-29468D02*
X22432Y-29468D01*
X23200Y-26000D02*
X24000Y-26000D01*
X22250Y-29250D02*
X22400Y-29100D01*
X20150Y-29250D02*
X22250Y-29250D01*
X22400Y-29100D02*
X22400Y-26500D01*
X22400Y-26500D02*
X23200Y-25700D01*
X23400Y-25700D02*
X24000Y-25100D01*
X19850Y-28950D02*
X20150Y-29250D01*
X19409Y-26773D02*
X19423Y-26773D01*
X19850Y-27200D02*
X19850Y-28950D01*
X23200Y-25700D02*
X23400Y-25700D01*
X19423Y-26773D02*
X19850Y-27200D01*
X24000Y-25100D02*
X24000Y-25000D01*
X17950Y-29650D02*
X18800Y-30500D01*
X23750Y-31000D02*
X24000Y-31000D01*
X23250Y-30500D02*
X23750Y-31000D01*
X17627Y-28577D02*
X17950Y-28900D01*
X18800Y-30500D02*
X23250Y-30500D01*
X17950Y-28900D02*
X17950Y-29650D01*
X17627Y-28555D02*
X17627Y-28577D01*
X18918Y-30318D02*
X23182Y-30318D01*
X18200Y-28700D02*
X18200Y-29600D01*
X17850Y-28350D02*
X18200Y-28700D01*
X23500Y-30000D02*
X24000Y-30000D01*
X18200Y-29600D02*
X18918Y-30318D01*
X23182Y-30318D02*
X23500Y-30000D01*
X17850Y-28332D02*
X17850Y-28350D01*
X17850Y-23350D02*
X18300Y-22900D01*
X23100Y-18000D02*
X24000Y-17100D01*
X17850Y-23368D02*
X17850Y-23350D01*
X18300Y-19500D02*
X18600Y-19200D01*
X21600Y-18400D02*
X22000Y-18000D01*
X18600Y-19200D02*
X21400Y-19200D01*
X21400Y-19200D02*
X21600Y-19000D01*
X22000Y-18000D02*
X23100Y-18000D01*
X21600Y-19000D02*
X21600Y-18400D01*
X18300Y-22900D02*
X18300Y-19500D01*
X24000Y-17100D02*
X24000Y-17000D01*
X11800Y-17000D02*
X11000Y-16200D01*
X12950Y-22010D02*
X12950Y-20550D01*
X16450Y-23350D02*
X16100Y-23000D01*
X11800Y-18150D02*
X11800Y-17000D01*
X12300Y-18650D02*
X11800Y-18150D01*
X12300Y-19900D02*
X12300Y-18650D01*
X12950Y-20550D02*
X12300Y-19900D01*
X16100Y-23000D02*
X13940Y-23000D01*
X16450Y-23368D02*
X16450Y-23350D01*
X13940Y-23000D02*
X12950Y-22010D01*
X11000Y-16200D02*
X11000Y-16000D01*
X17640Y-29420D02*
X17630Y-29420D01*
X24000Y-29000D02*
X24000Y-29130D01*
X16400Y-29070D02*
X16620Y-29070D01*
X16620Y-29070D02*
X16620Y-29070D01*
X17640Y-29410D02*
X17640Y-29420D01*
X16330Y-29000D02*
X16400Y-29070D01*
X23050Y-30080D02*
X19200Y-30080D01*
X16620Y-29070D02*
X17300Y-29070D01*
X17300Y-29070D02*
X17640Y-29410D01*
X24000Y-29130D02*
X23050Y-30080D01*
X19200Y-30080D02*
X18580Y-29460D01*
X16330Y-29000D02*
X16330Y-28898D01*
X16673Y-28555D02*
X16330Y-28898D01*
X18069Y-28109D02*
X17680Y-27720D01*
X18069Y-28109D02*
X18073Y-28109D01*
X14980Y-30420D02*
X14980Y-29690D01*
X14980Y-30420D02*
X11900Y-30420D01*
X14990Y-30420D02*
X14980Y-30420D01*
X11900Y-30420D02*
X11480Y-30000D01*
X11480Y-30000D02*
X11000Y-30000D01*
X14980Y-29690D02*
X15870Y-28800D01*
X15870Y-28800D02*
X16000Y-28800D01*
X19490Y-29850D02*
X22900Y-29850D01*
X18600Y-28200D02*
X18600Y-28960D01*
X22900Y-29850D02*
X23350Y-29400D01*
X23350Y-29400D02*
X23350Y-28650D01*
X18600Y-28960D02*
X19490Y-29850D01*
X23350Y-28650D02*
X24000Y-28000D01*
X18296Y-27896D02*
X18600Y-28200D01*
X18296Y-27886D02*
X18296Y-27896D01*
X22550Y-23450D02*
X24000Y-22000D01*
X19877Y-25373D02*
X20150Y-25100D01*
X22550Y-24100D02*
X22550Y-23450D01*
X19855Y-25373D02*
X19877Y-25373D01*
X20200Y-25050D02*
X21600Y-25050D01*
X20200Y-25050D02*
X20150Y-25100D01*
X21600Y-25050D02*
X22550Y-24100D01*
X20150Y-25100D02*
X20200Y-25050D01*
X19650Y-25150D02*
X19950Y-24850D01*
X19950Y-24850D02*
X21450Y-24850D01*
X22350Y-23950D02*
X22350Y-23200D01*
X23350Y-21650D02*
X24000Y-21000D01*
X23350Y-22200D02*
X23350Y-21650D01*
X22350Y-23200D02*
X23350Y-22200D01*
X19632Y-25150D02*
X19650Y-25150D01*
X21450Y-24850D02*
X22350Y-23950D01*
X15114Y-24704D02*
X15104Y-24704D01*
X11990Y-20990D02*
X11000Y-20000D01*
X15114Y-24704D02*
X15104Y-24704D01*
X15104Y-24704D02*
X14300Y-23900D01*
X11990Y-21590D02*
X11990Y-20990D01*
X12000Y-22220D02*
X12000Y-21600D01*
X12000Y-21600D02*
X11990Y-21590D01*
X13680Y-23900D02*
X12000Y-22220D01*
X14300Y-23900D02*
X13680Y-23900D01*
X11800Y-21800D02*
X11000Y-21000D01*
X14650Y-25150D02*
X11800Y-22300D01*
X11800Y-22300D02*
X11800Y-21800D01*
X14668Y-25150D02*
X14650Y-25150D01*
X11100Y-22000D02*
X11000Y-22000D01*
X14445Y-25345D02*
X11100Y-22000D01*
X14445Y-25373D02*
X14445Y-25345D01*
X12600Y-24600D02*
X11000Y-23000D01*
X13350Y-26800D02*
X12600Y-26050D01*
X12600Y-26050D02*
X12600Y-24600D01*
X14423Y-26327D02*
X13950Y-26800D01*
X14445Y-26327D02*
X14423Y-26327D01*
X13950Y-26800D02*
X13350Y-26800D01*
X23350Y-20250D02*
X23600Y-20000D01*
X22100Y-23900D02*
X22100Y-23100D01*
X19423Y-24927D02*
X19750Y-24600D01*
X19423Y-24927D02*
X19409Y-24927D01*
X23100Y-22100D02*
X23100Y-21600D01*
X21400Y-24600D02*
X22100Y-23900D01*
X21400Y-24600D02*
X19750Y-24600D01*
X22100Y-23100D02*
X23100Y-22100D01*
X24000Y-20000D02*
X23600Y-20000D01*
X23350Y-21350D02*
X23350Y-20250D01*
X23100Y-21600D02*
X23350Y-21350D01*
X19482Y-24418D02*
X21282Y-24418D01*
X21900Y-23000D02*
X22918Y-21982D01*
X22918Y-21982D02*
X22918Y-21432D01*
X19196Y-24704D02*
X19482Y-24418D01*
X21900Y-23800D02*
X21900Y-23000D01*
X23150Y-21200D02*
X23150Y-19850D01*
X21282Y-24418D02*
X21900Y-23800D01*
X19186Y-24704D02*
X19196Y-24704D01*
X22918Y-21432D02*
X23150Y-21200D01*
X23150Y-19850D02*
X24000Y-19000D01*
X21650Y-22950D02*
X22650Y-21950D01*
X18964Y-24482D02*
X18968Y-24482D01*
X23450Y-18550D02*
X24000Y-18000D01*
X19250Y-24200D02*
X21200Y-24200D01*
X22650Y-21950D02*
X22650Y-21400D01*
X22900Y-21150D02*
X22900Y-19800D01*
X18968Y-24482D02*
X19250Y-24200D01*
X21200Y-24200D02*
X21650Y-23750D01*
X22650Y-21400D02*
X22900Y-21150D01*
X21650Y-23750D02*
X21650Y-22950D01*
X22900Y-19800D02*
X23450Y-19250D01*
X23450Y-19250D02*
X23450Y-18550D01*
X16227Y-23577D02*
X15850Y-23200D01*
X12700Y-22030D02*
X12700Y-20600D01*
X11600Y-18250D02*
X11600Y-17600D01*
X15850Y-23200D02*
X13870Y-23200D01*
X13870Y-23200D02*
X12700Y-22030D01*
X16227Y-23591D02*
X16227Y-23577D01*
X12050Y-18700D02*
X11600Y-18250D01*
X12050Y-19950D02*
X12050Y-18700D01*
X11600Y-17600D02*
X11000Y-17000D01*
X12700Y-20600D02*
X12050Y-19950D01*
X11800Y-20050D02*
X11800Y-18800D01*
X12450Y-20700D02*
X11800Y-20050D01*
X16004Y-23814D02*
X16004Y-23804D01*
X12450Y-22090D02*
X12450Y-20700D01*
X13810Y-23450D02*
X12450Y-22090D01*
X15650Y-23450D02*
X13810Y-23450D01*
X11800Y-18800D02*
X11000Y-18000D01*
X16004Y-23804D02*
X15650Y-23450D01*
X11600Y-19550D02*
X11300Y-19250D01*
X11000Y-19000D02*
X11050Y-19000D01*
X11050Y-19000D02*
X11300Y-19250D01*
X13790Y-23700D02*
X12250Y-22160D01*
X12250Y-20850D02*
X11600Y-20200D01*
X15450Y-23700D02*
X13790Y-23700D01*
X15782Y-24032D02*
X15450Y-23700D01*
X12250Y-22160D02*
X12250Y-20850D01*
X15782Y-24032D02*
X15782Y-24036D01*
X11600Y-20200D02*
X11600Y-19550D01*
X14200Y-27050D02*
X13100Y-27050D01*
X11200Y-24000D02*
X11000Y-24000D01*
X13100Y-27050D02*
X12350Y-26300D01*
X12350Y-26300D02*
X12350Y-25150D01*
X12350Y-25150D02*
X11200Y-24000D01*
X14668Y-26550D02*
X14668Y-26582D01*
X14668Y-26582D02*
X14200Y-27050D01*
X11350Y-25000D02*
X12050Y-25700D01*
X14214Y-27450D02*
X14891Y-26773D01*
X12050Y-26450D02*
X13050Y-27450D01*
X11000Y-25000D02*
X11350Y-25000D01*
X13050Y-27450D02*
X14214Y-27450D01*
X12050Y-25700D02*
X12050Y-26450D01*
X15104Y-26996D02*
X14350Y-27750D01*
X11150Y-26000D02*
X11000Y-26000D01*
X12900Y-27750D02*
X11150Y-26000D01*
X15114Y-26996D02*
X15104Y-26996D01*
X14350Y-27750D02*
X12900Y-27750D01*
X12600Y-28050D02*
X14504Y-28050D01*
X11550Y-27000D02*
X12600Y-28050D01*
X11000Y-27000D02*
X11550Y-27000D01*
X14504Y-28050D02*
X15336Y-27218D01*
G54D35*
X24000Y-14800D02*
X24000Y-15000D01*
X22650Y-14230D02*
X23430Y-14230D01*
X21947Y-14933D02*
X22650Y-14230D01*
X23430Y-14230D02*
X24000Y-14800D01*
X21000Y-14933D02*
X21947Y-14933D01*
G54D34*
X21000Y-14933D02*
X21000Y-16500D01*
G54D33*
X19055Y-16605D02*
X19050Y-16600D01*
G54D34*
X21000Y-16500D02*
X20005Y-16500D01*
G54D33*
X19900Y-16605D02*
X19055Y-16605D01*
G54D34*
X20005Y-16500D02*
X19900Y-16605D01*
G54D33*
X17770Y-22050D02*
X18100Y-21720D01*
X16490Y-22050D02*
X16480Y-22040D01*
X17620Y-22050D02*
X17770Y-22050D01*
X18100Y-20740D02*
X17820Y-20460D01*
X17620Y-22050D02*
X16490Y-22050D01*
X17627Y-23145D02*
X17635Y-23145D01*
X18100Y-21720D02*
X18100Y-20740D01*
X17635Y-23145D02*
X17950Y-22830D01*
X17950Y-22380D02*
X17620Y-22050D01*
X17950Y-22830D02*
X17950Y-22380D01*
X17820Y-20460D02*
X17820Y-20130D01*
X13780Y-21810D02*
X13780Y-20880D01*
X15210Y-22760D02*
X14890Y-22440D01*
X15480Y-22040D02*
X14890Y-22040D01*
X14880Y-22050D02*
X14340Y-22050D01*
X13780Y-20880D02*
X14150Y-20510D01*
X16665Y-23145D02*
X16280Y-22760D01*
X16673Y-23145D02*
X16665Y-23145D01*
X14890Y-22040D02*
X14880Y-22050D01*
X14890Y-22060D02*
X14880Y-22050D01*
X16280Y-22760D02*
X15210Y-22760D01*
X14340Y-22050D02*
X14020Y-22050D01*
X14890Y-22440D02*
X14890Y-22060D01*
X14150Y-20510D02*
X14150Y-20130D01*
X14020Y-22050D02*
X13780Y-21810D01*
X10250Y-12600D02*
X10250Y-27250D01*
X15650Y-28250D02*
X14750Y-29150D01*
X10350Y-12500D02*
X10250Y-12600D01*
X11650Y-28050D02*
X11600Y-28000D01*
X11000Y-28000D02*
X10250Y-27250D01*
X14750Y-29150D02*
X12750Y-29150D01*
X15050Y-13950D02*
X12150Y-13950D01*
X15650Y-28250D02*
X15650Y-28250D01*
X16004Y-27896D02*
X15650Y-28250D01*
X11600Y-13400D02*
X11600Y-12500D01*
X10700Y-12500D02*
X10350Y-12500D01*
X12150Y-13950D02*
X11600Y-13400D01*
X11600Y-12500D02*
X10700Y-12500D01*
X15475Y-13525D02*
X15050Y-13950D01*
X12750Y-29150D02*
X11650Y-28050D01*
X15646Y-13354D02*
X15475Y-13525D01*
X15646Y-13354D02*
X15646Y-12591D01*
X16004Y-27886D02*
X16004Y-27896D01*
X11650Y-28050D02*
X11650Y-28050D01*
X11600Y-28000D02*
X11000Y-28000D01*
X11550Y-27500D02*
X12600Y-28500D01*
X15300Y-14150D02*
X12050Y-14150D01*
X10432Y-13668D02*
X10432Y-27174D01*
X16227Y-28123D02*
X15950Y-28400D01*
X11650Y-29650D02*
X11000Y-29000D01*
X16227Y-28109D02*
X16227Y-28123D01*
X15961Y-12591D02*
X15961Y-13489D01*
X10600Y-13500D02*
X10432Y-13668D01*
X10758Y-27500D02*
X11550Y-27500D01*
X15961Y-13489D02*
X15300Y-14150D01*
X14680Y-29660D02*
X11660Y-29660D01*
X15950Y-28390D02*
X14680Y-29660D01*
X11400Y-13500D02*
X10600Y-13500D01*
X15950Y-28400D02*
X15950Y-28390D01*
X12050Y-14150D02*
X11400Y-13500D01*
X11660Y-29660D02*
X11650Y-29650D01*
X10432Y-27174D02*
X10758Y-27500D01*
X15900Y-14400D02*
X15600Y-14400D01*
X12350Y-15700D02*
X13000Y-16350D01*
X14891Y-24927D02*
X14877Y-24927D01*
X12550Y-14400D02*
X12350Y-14600D01*
X15900Y-15100D02*
X15900Y-14400D01*
X14877Y-24927D02*
X14230Y-24280D01*
X15600Y-14400D02*
X15150Y-14400D01*
X12350Y-14600D02*
X12350Y-15700D01*
X15150Y-14400D02*
X12550Y-14400D01*
X22300Y-16500D02*
X22700Y-16500D01*
X22000Y-16500D02*
X22300Y-16500D01*
X22800Y-16400D02*
X23200Y-16400D01*
X22700Y-16500D02*
X22800Y-16400D01*
X16060Y-24580D02*
X15880Y-24580D01*
X18157Y-24397D02*
X18077Y-24397D01*
X18077Y-24397D02*
X17260Y-23580D01*
X18157Y-24397D02*
X18518Y-24036D01*
X22042Y-18750D02*
X22042Y-21058D01*
X17607Y-32772D02*
X17595Y-32760D01*
X17260Y-23580D02*
X17060Y-23580D01*
X17060Y-23580D02*
X16060Y-24580D01*
X18300Y-16250D02*
X18450Y-16100D01*
X15880Y-24580D02*
X15559Y-24259D01*
X17500Y-33200D02*
X17595Y-33105D01*
X17500Y-33200D02*
X14300Y-33200D01*
X19200Y-32772D02*
X17607Y-32772D01*
X14000Y-32500D02*
X14000Y-32950D01*
X11950Y-32250D02*
X11950Y-32250D01*
X14750Y-13300D02*
X14750Y-13600D01*
X18518Y-24036D02*
X18518Y-24032D01*
X22042Y-21058D02*
X21900Y-21200D01*
X19680Y-21660D02*
X19670Y-21670D01*
X11950Y-31400D02*
X11550Y-31000D01*
X21000Y-23100D02*
X21480Y-22620D01*
X14950Y-13300D02*
X15016Y-13234D01*
X15609Y-27441D02*
X15559Y-27441D01*
X13400Y-13300D02*
X14750Y-13300D01*
X14000Y-32950D02*
X14000Y-33150D01*
X21480Y-21660D02*
X21480Y-21200D01*
X19450Y-23100D02*
X21000Y-23100D01*
X18514Y-27664D02*
X18518Y-27664D01*
X12745Y-12000D02*
X12950Y-12000D01*
X17595Y-32760D02*
X17595Y-33105D01*
X13250Y-13150D02*
X13400Y-13300D01*
X17850Y-27000D02*
X18514Y-27664D01*
X14750Y-13300D02*
X14950Y-13300D01*
X18518Y-24032D02*
X19450Y-23100D01*
X16500Y-15100D02*
X17450Y-15100D01*
X13250Y-12300D02*
X13250Y-13150D01*
X15016Y-13234D02*
X15016Y-12591D01*
X15880Y-24580D02*
X15890Y-24580D01*
X15890Y-24580D02*
X16020Y-24710D01*
X11950Y-32250D02*
X11950Y-31400D01*
X21480Y-21660D02*
X19680Y-21660D01*
X21480Y-22120D02*
X21480Y-21660D01*
X12950Y-12000D02*
X13250Y-12300D01*
X21480Y-22620D02*
X21480Y-22120D01*
X14300Y-33200D02*
X14150Y-33200D01*
X14050Y-33200D02*
X13750Y-33200D01*
X14150Y-33200D02*
X14200Y-33200D01*
X14000Y-33150D02*
X14050Y-33200D01*
X17450Y-15100D02*
X18450Y-16100D01*
X14050Y-33200D02*
X14150Y-33200D01*
X16100Y-26950D02*
X15609Y-27441D01*
X19200Y-32772D02*
X22330Y-32772D01*
X12550Y-33200D02*
X11950Y-32600D01*
X13750Y-33200D02*
X12550Y-33200D01*
X11950Y-32600D02*
X11950Y-32250D01*
X11550Y-31000D02*
X11000Y-31000D01*
X21900Y-21200D02*
X21480Y-21200D01*
X18300Y-16655D02*
X18300Y-16250D01*
X14250Y-33200D02*
X14300Y-33200D01*
X23190Y-15205D02*
X23395Y-15205D01*
X24000Y-15810D02*
X24000Y-16000D01*
X23395Y-15205D02*
X24000Y-15810D01*
X24000Y-27000D02*
X23150Y-27000D01*
X12750Y-18400D02*
X12182Y-17832D01*
X11800Y-15500D02*
X11600Y-15300D01*
X11600Y-15300D02*
X11600Y-14600D01*
X17820Y-19330D02*
X17820Y-19040D01*
X17820Y-19040D02*
X17550Y-18770D01*
X11600Y-14600D02*
X11000Y-14000D01*
X11800Y-16442D02*
X11800Y-15500D01*
X12182Y-16824D02*
X11800Y-16442D01*
X13120Y-18770D02*
X12750Y-18400D01*
X12182Y-17832D02*
X12182Y-16824D01*
X17550Y-18770D02*
X13120Y-18770D01*
X12000Y-18000D02*
X12000Y-16900D01*
X11600Y-15600D02*
X11000Y-15000D01*
X13670Y-19330D02*
X13330Y-19330D01*
X11600Y-16500D02*
X11600Y-15600D01*
X12500Y-18500D02*
X12000Y-18000D01*
X13670Y-19330D02*
X13670Y-19330D01*
X14150Y-19330D02*
X13670Y-19330D01*
X13330Y-19330D02*
X12500Y-18500D01*
X12000Y-16900D02*
X11600Y-16500D01*
X21950Y-26650D02*
X23300Y-25300D01*
X23300Y-25300D02*
X23300Y-24700D01*
X21950Y-27450D02*
X21950Y-26650D01*
X23300Y-24700D02*
X24000Y-24000D01*
X23050Y-25200D02*
X23050Y-23950D01*
X23050Y-23950D02*
X24000Y-23000D01*
X21250Y-27450D02*
X21250Y-27000D01*
X21250Y-27000D02*
X23050Y-25200D01*
X17005Y-32760D02*
X17005Y-31805D01*
X17005Y-31805D02*
X17000Y-31800D01*
X17005Y-31805D02*
X17000Y-31800D01*
X12155Y-12105D02*
X12155Y-12000D01*
X12850Y-12800D02*
X12155Y-12105D01*
X12850Y-13000D02*
X12850Y-12800D01*
X18800Y-31000D02*
X18650Y-30850D01*
X18650Y-30850D02*
X17800Y-30850D01*
X22330Y-31000D02*
X19200Y-31000D01*
X19200Y-31000D02*
X18800Y-31000D01*
X18350Y-26800D02*
X18350Y-27050D01*
X18500Y-26650D02*
X18350Y-26800D01*
X18350Y-27050D02*
X18741Y-27441D01*
X19050Y-17400D02*
X19050Y-17900D01*
X19050Y-17900D02*
X18950Y-18000D01*
X18450Y-18000D02*
X18300Y-17850D01*
X18300Y-17850D02*
X18300Y-17245D01*
X18950Y-18000D02*
X18450Y-18000D01*
X22780Y-15540D02*
X22780Y-15680D01*
X23190Y-14615D02*
X22975Y-14615D01*
X22780Y-14810D02*
X22780Y-15540D01*
X22975Y-14615D02*
X22780Y-14810D01*
X22900Y-15800D02*
X23200Y-15800D01*
X22780Y-15680D02*
X22900Y-15800D01*
X15782Y-27668D02*
X15400Y-28050D01*
X15782Y-27668D02*
X15782Y-27664D01*
X16300Y-12615D02*
X16276Y-12591D01*
X16600Y-13950D02*
X16300Y-13650D01*
X16300Y-13650D02*
X16300Y-12615D01*
X16600Y-14400D02*
X16600Y-13950D01*
G54D10*
G36*
X11090Y-12005D02*
X11005Y-12090D01*
X11000Y-12084D01*
X10994Y-12090D01*
X10909Y-12005D01*
X10915Y-12000D01*
X10909Y-11994D01*
X10994Y-11909D01*
X11000Y-11915D01*
X11005Y-11909D01*
X11090Y-11994D01*
X11084Y-12000D01*
X11090Y-12005D01*
X11090Y-12005D01*
G37*
G54D33*
X11090Y-12005D02*
X11005Y-12090D01*
X11000Y-12084D01*
X10994Y-12090D01*
X10909Y-12005D01*
X10915Y-12000D01*
X10909Y-11994D01*
X10994Y-11909D01*
X11000Y-11915D01*
X11005Y-11909D01*
X11090Y-11994D01*
X11084Y-12000D01*
X11090Y-12005D01*
G54D10*
G36*
X15412Y-24501D02*
X15355Y-24558D01*
X15350Y-24552D01*
X15346Y-24555D01*
X15262Y-24471D01*
X15265Y-24467D01*
X14968Y-24170D01*
X14895Y-24170D01*
X14655Y-23930D01*
X15195Y-23930D01*
X15151Y-23973D01*
X15132Y-23973D01*
X15044Y-24009D01*
X15025Y-24029D01*
X15025Y-24114D01*
X15322Y-24411D01*
X15325Y-24407D01*
X15410Y-24492D01*
X15406Y-24495D01*
X15412Y-24501D01*
X15412Y-24501D01*
G37*
G54D33*
X15412Y-24501D02*
X15355Y-24558D01*
X15350Y-24552D01*
X15346Y-24555D01*
X15262Y-24471D01*
X15265Y-24467D01*
X14968Y-24170D01*
X14895Y-24170D01*
X14655Y-23930D01*
X15195Y-23930D01*
X15151Y-23973D01*
X15132Y-23973D01*
X15044Y-24009D01*
X15025Y-24029D01*
X15025Y-24114D01*
X15322Y-24411D01*
X15325Y-24407D01*
X15410Y-24492D01*
X15406Y-24495D01*
X15412Y-24501D01*
G54D10*
G36*
X22570Y-24954D02*
X22330Y-25194D01*
X20904Y-26620D01*
X20495Y-26620D01*
X20308Y-26433D01*
X20284Y-26375D01*
X20231Y-26321D01*
X19806Y-25897D01*
X19737Y-25868D01*
X19661Y-25868D01*
X19591Y-25897D01*
X19538Y-25950D01*
X19425Y-26063D01*
X19408Y-26103D01*
X19368Y-26120D01*
X19315Y-26173D01*
X19202Y-26286D01*
X19185Y-26326D01*
X19146Y-26342D01*
X19092Y-26396D01*
X18979Y-26509D01*
X18962Y-26549D01*
X18923Y-26565D01*
X18869Y-26619D01*
X18865Y-26623D01*
X18865Y-26577D01*
X18809Y-26443D01*
X18707Y-26340D01*
X18572Y-26285D01*
X18427Y-26284D01*
X18293Y-26340D01*
X18190Y-26442D01*
X18135Y-26577D01*
X18134Y-26722D01*
X18135Y-26723D01*
X18127Y-26761D01*
X18057Y-26690D01*
X17922Y-26635D01*
X17777Y-26634D01*
X17643Y-26690D01*
X17540Y-26792D01*
X17485Y-26927D01*
X17484Y-27072D01*
X17540Y-27206D01*
X17642Y-27309D01*
X17777Y-27364D01*
X17889Y-27365D01*
X18006Y-27482D01*
X17982Y-27506D01*
X17887Y-27410D01*
X17752Y-27355D01*
X17607Y-27354D01*
X17473Y-27410D01*
X17370Y-27512D01*
X17315Y-27647D01*
X17314Y-27792D01*
X17370Y-27926D01*
X17466Y-28022D01*
X17420Y-28068D01*
X17403Y-28108D01*
X17364Y-28124D01*
X17310Y-28178D01*
X17197Y-28291D01*
X17168Y-28361D01*
X17168Y-28436D01*
X17197Y-28506D01*
X17250Y-28560D01*
X17290Y-28600D01*
X17009Y-28600D01*
X17102Y-28506D01*
X17131Y-28437D01*
X17131Y-28361D01*
X17102Y-28291D01*
X17049Y-28238D01*
X16958Y-28147D01*
X16958Y-28128D01*
X16922Y-28040D01*
X16902Y-28020D01*
X16817Y-28020D01*
X16520Y-28317D01*
X16524Y-28321D01*
X16439Y-28406D01*
X16435Y-28402D01*
X16430Y-28408D01*
X16373Y-28351D01*
X16379Y-28346D01*
X16375Y-28342D01*
X16460Y-28257D01*
X16464Y-28261D01*
X16761Y-27964D01*
X16761Y-27879D01*
X16741Y-27859D01*
X16653Y-27823D01*
X16634Y-27823D01*
X16603Y-27792D01*
X16490Y-27679D01*
X16450Y-27662D01*
X16434Y-27623D01*
X16380Y-27569D01*
X16267Y-27456D01*
X16227Y-27440D01*
X16211Y-27400D01*
X16158Y-27347D01*
X16126Y-27315D01*
X16172Y-27315D01*
X16306Y-27259D01*
X16409Y-27157D01*
X16464Y-27022D01*
X16465Y-26877D01*
X16409Y-26743D01*
X16307Y-26640D01*
X16172Y-26585D01*
X16027Y-26584D01*
X15893Y-26640D01*
X15790Y-26742D01*
X15735Y-26877D01*
X15735Y-26924D01*
X15712Y-26901D01*
X15599Y-26788D01*
X15559Y-26772D01*
X15543Y-26732D01*
X15489Y-26678D01*
X15376Y-26565D01*
X15337Y-26549D01*
X15320Y-26509D01*
X15267Y-26456D01*
X15154Y-26343D01*
X15114Y-26326D01*
X15097Y-26286D01*
X15044Y-26233D01*
X14931Y-26120D01*
X14891Y-26103D01*
X14875Y-26064D01*
X14821Y-26010D01*
X14708Y-25897D01*
X14638Y-25868D01*
X14563Y-25868D01*
X14493Y-25897D01*
X14439Y-25950D01*
X14015Y-26375D01*
X13991Y-26433D01*
X13854Y-26570D01*
X13445Y-26570D01*
X12830Y-25954D01*
X12830Y-24600D01*
X12829Y-24599D01*
X12830Y-24599D01*
X12812Y-24511D01*
X12762Y-24437D01*
X12762Y-24437D01*
X11508Y-23183D01*
X11539Y-23107D01*
X11540Y-22893D01*
X11458Y-22694D01*
X11306Y-22542D01*
X11203Y-22499D01*
X11254Y-22479D01*
X13986Y-25211D01*
X13986Y-25254D01*
X14015Y-25324D01*
X14068Y-25378D01*
X14493Y-25802D01*
X14562Y-25831D01*
X14638Y-25831D01*
X14708Y-25802D01*
X14761Y-25749D01*
X14874Y-25636D01*
X14891Y-25596D01*
X14931Y-25579D01*
X14984Y-25526D01*
X15097Y-25413D01*
X15114Y-25373D01*
X15153Y-25357D01*
X15207Y-25303D01*
X15320Y-25190D01*
X15337Y-25150D01*
X15376Y-25134D01*
X15430Y-25080D01*
X15520Y-24990D01*
X15539Y-24990D01*
X15627Y-24953D01*
X15647Y-24934D01*
X15647Y-24877D01*
X15675Y-24906D01*
X15697Y-24884D01*
X15710Y-24916D01*
X15812Y-25019D01*
X15947Y-25074D01*
X16092Y-25075D01*
X16226Y-25019D01*
X16329Y-24917D01*
X16384Y-24782D01*
X16385Y-24637D01*
X16368Y-24597D01*
X17155Y-23810D01*
X17164Y-23810D01*
X17914Y-24559D01*
X17914Y-24559D01*
X17988Y-24609D01*
X18077Y-24627D01*
X18157Y-24627D01*
X18245Y-24609D01*
X18245Y-24609D01*
X18294Y-24576D01*
X18294Y-24576D01*
X18303Y-24570D01*
X18373Y-24570D01*
X18670Y-24273D01*
X18666Y-24269D01*
X18751Y-24184D01*
X18755Y-24188D01*
X19052Y-23891D01*
X19052Y-23823D01*
X19060Y-23814D01*
X19052Y-23806D01*
X19052Y-23806D01*
X19060Y-23814D01*
X19324Y-23550D01*
X21420Y-23557D01*
X21420Y-23654D01*
X21104Y-23970D01*
X19250Y-23970D01*
X19249Y-23970D01*
X19216Y-23976D01*
X19213Y-23967D01*
X19193Y-23947D01*
X19108Y-23947D01*
X18811Y-24244D01*
X18815Y-24248D01*
X18730Y-24333D01*
X18726Y-24329D01*
X18429Y-24626D01*
X18429Y-24711D01*
X18449Y-24731D01*
X18537Y-24767D01*
X18556Y-24767D01*
X18587Y-24798D01*
X18700Y-24911D01*
X18740Y-24927D01*
X18756Y-24967D01*
X18810Y-25021D01*
X18923Y-25134D01*
X18962Y-25150D01*
X18979Y-25190D01*
X19032Y-25243D01*
X19145Y-25356D01*
X19185Y-25373D01*
X19202Y-25413D01*
X19255Y-25466D01*
X19368Y-25579D01*
X19408Y-25596D01*
X19424Y-25635D01*
X19478Y-25689D01*
X19591Y-25802D01*
X19661Y-25831D01*
X19736Y-25831D01*
X19806Y-25802D01*
X19860Y-25749D01*
X20284Y-25324D01*
X20303Y-25280D01*
X21600Y-25280D01*
X21688Y-25262D01*
X21688Y-25262D01*
X21762Y-25212D01*
X22330Y-24645D01*
X22570Y-24405D01*
X22570Y-24954D01*
X22570Y-24954D01*
G37*
G54D33*
X22570Y-24954D02*
X22330Y-25194D01*
X20904Y-26620D01*
X20495Y-26620D01*
X20308Y-26433D01*
X20284Y-26375D01*
X20231Y-26321D01*
X19806Y-25897D01*
X19737Y-25868D01*
X19661Y-25868D01*
X19591Y-25897D01*
X19538Y-25950D01*
X19425Y-26063D01*
X19408Y-26103D01*
X19368Y-26120D01*
X19315Y-26173D01*
X19202Y-26286D01*
X19185Y-26326D01*
X19146Y-26342D01*
X19092Y-26396D01*
X18979Y-26509D01*
X18962Y-26549D01*
X18923Y-26565D01*
X18869Y-26619D01*
X18865Y-26623D01*
X18865Y-26577D01*
X18809Y-26443D01*
X18707Y-26340D01*
X18572Y-26285D01*
X18427Y-26284D01*
X18293Y-26340D01*
X18190Y-26442D01*
X18135Y-26577D01*
X18134Y-26722D01*
X18135Y-26723D01*
X18127Y-26761D01*
X18057Y-26690D01*
X17922Y-26635D01*
X17777Y-26634D01*
X17643Y-26690D01*
X17540Y-26792D01*
X17485Y-26927D01*
X17484Y-27072D01*
X17540Y-27206D01*
X17642Y-27309D01*
X17777Y-27364D01*
X17889Y-27365D01*
X18006Y-27482D01*
X17982Y-27506D01*
X17887Y-27410D01*
X17752Y-27355D01*
X17607Y-27354D01*
X17473Y-27410D01*
X17370Y-27512D01*
X17315Y-27647D01*
X17314Y-27792D01*
X17370Y-27926D01*
X17466Y-28022D01*
X17420Y-28068D01*
X17403Y-28108D01*
X17364Y-28124D01*
X17310Y-28178D01*
X17197Y-28291D01*
X17168Y-28361D01*
X17168Y-28436D01*
X17197Y-28506D01*
X17250Y-28560D01*
X17290Y-28600D01*
X17009Y-28600D01*
X17102Y-28506D01*
X17131Y-28437D01*
X17131Y-28361D01*
X17102Y-28291D01*
X17049Y-28238D01*
X16958Y-28147D01*
X16958Y-28128D01*
X16922Y-28040D01*
X16902Y-28020D01*
X16817Y-28020D01*
X16520Y-28317D01*
X16524Y-28321D01*
X16439Y-28406D01*
X16435Y-28402D01*
X16430Y-28408D01*
X16373Y-28351D01*
X16379Y-28346D01*
X16375Y-28342D01*
X16460Y-28257D01*
X16464Y-28261D01*
X16761Y-27964D01*
X16761Y-27879D01*
X16741Y-27859D01*
X16653Y-27823D01*
X16634Y-27823D01*
X16603Y-27792D01*
X16490Y-27679D01*
X16450Y-27662D01*
X16434Y-27623D01*
X16380Y-27569D01*
X16267Y-27456D01*
X16227Y-27440D01*
X16211Y-27400D01*
X16158Y-27347D01*
X16126Y-27315D01*
X16172Y-27315D01*
X16306Y-27259D01*
X16409Y-27157D01*
X16464Y-27022D01*
X16465Y-26877D01*
X16409Y-26743D01*
X16307Y-26640D01*
X16172Y-26585D01*
X16027Y-26584D01*
X15893Y-26640D01*
X15790Y-26742D01*
X15735Y-26877D01*
X15735Y-26924D01*
X15712Y-26901D01*
X15599Y-26788D01*
X15559Y-26772D01*
X15543Y-26732D01*
X15489Y-26678D01*
X15376Y-26565D01*
X15337Y-26549D01*
X15320Y-26509D01*
X15267Y-26456D01*
X15154Y-26343D01*
X15114Y-26326D01*
X15097Y-26286D01*
X15044Y-26233D01*
X14931Y-26120D01*
X14891Y-26103D01*
X14875Y-26064D01*
X14821Y-26010D01*
X14708Y-25897D01*
X14638Y-25868D01*
X14563Y-25868D01*
X14493Y-25897D01*
X14439Y-25950D01*
X14015Y-26375D01*
X13991Y-26433D01*
X13854Y-26570D01*
X13445Y-26570D01*
X12830Y-25954D01*
X12830Y-24600D01*
X12829Y-24599D01*
X12830Y-24599D01*
X12812Y-24511D01*
X12762Y-24437D01*
X12762Y-24437D01*
X11508Y-23183D01*
X11539Y-23107D01*
X11540Y-22893D01*
X11458Y-22694D01*
X11306Y-22542D01*
X11203Y-22499D01*
X11254Y-22479D01*
X13986Y-25211D01*
X13986Y-25254D01*
X14015Y-25324D01*
X14068Y-25378D01*
X14493Y-25802D01*
X14562Y-25831D01*
X14638Y-25831D01*
X14708Y-25802D01*
X14761Y-25749D01*
X14874Y-25636D01*
X14891Y-25596D01*
X14931Y-25579D01*
X14984Y-25526D01*
X15097Y-25413D01*
X15114Y-25373D01*
X15153Y-25357D01*
X15207Y-25303D01*
X15320Y-25190D01*
X15337Y-25150D01*
X15376Y-25134D01*
X15430Y-25080D01*
X15520Y-24990D01*
X15539Y-24990D01*
X15627Y-24953D01*
X15647Y-24934D01*
X15647Y-24877D01*
X15675Y-24906D01*
X15697Y-24884D01*
X15710Y-24916D01*
X15812Y-25019D01*
X15947Y-25074D01*
X16092Y-25075D01*
X16226Y-25019D01*
X16329Y-24917D01*
X16384Y-24782D01*
X16385Y-24637D01*
X16368Y-24597D01*
X17155Y-23810D01*
X17164Y-23810D01*
X17914Y-24559D01*
X17914Y-24559D01*
X17988Y-24609D01*
X18077Y-24627D01*
X18157Y-24627D01*
X18245Y-24609D01*
X18245Y-24609D01*
X18294Y-24576D01*
X18294Y-24576D01*
X18303Y-24570D01*
X18373Y-24570D01*
X18670Y-24273D01*
X18666Y-24269D01*
X18751Y-24184D01*
X18755Y-24188D01*
X19052Y-23891D01*
X19052Y-23823D01*
X19060Y-23814D01*
X19052Y-23806D01*
X19052Y-23806D01*
X19060Y-23814D01*
X19324Y-23550D01*
X21420Y-23557D01*
X21420Y-23654D01*
X21104Y-23970D01*
X19250Y-23970D01*
X19249Y-23970D01*
X19216Y-23976D01*
X19213Y-23967D01*
X19193Y-23947D01*
X19108Y-23947D01*
X18811Y-24244D01*
X18815Y-24248D01*
X18730Y-24333D01*
X18726Y-24329D01*
X18429Y-24626D01*
X18429Y-24711D01*
X18449Y-24731D01*
X18537Y-24767D01*
X18556Y-24767D01*
X18587Y-24798D01*
X18700Y-24911D01*
X18740Y-24927D01*
X18756Y-24967D01*
X18810Y-25021D01*
X18923Y-25134D01*
X18962Y-25150D01*
X18979Y-25190D01*
X19032Y-25243D01*
X19145Y-25356D01*
X19185Y-25373D01*
X19202Y-25413D01*
X19255Y-25466D01*
X19368Y-25579D01*
X19408Y-25596D01*
X19424Y-25635D01*
X19478Y-25689D01*
X19591Y-25802D01*
X19661Y-25831D01*
X19736Y-25831D01*
X19806Y-25802D01*
X19860Y-25749D01*
X20284Y-25324D01*
X20303Y-25280D01*
X21600Y-25280D01*
X21688Y-25262D01*
X21688Y-25262D01*
X21762Y-25212D01*
X22330Y-24645D01*
X22570Y-24405D01*
X22570Y-24954D01*
G54D10*
G36*
X24067Y-12060D02*
X24060Y-12060D01*
X24060Y-12067D01*
X23940Y-12067D01*
X23940Y-12060D01*
X23470Y-12060D01*
X23410Y-12120D01*
X23409Y-12397D01*
X23446Y-12485D01*
X23513Y-12553D01*
X23602Y-12589D01*
X23646Y-12589D01*
X23542Y-12693D01*
X23460Y-12892D01*
X23459Y-13106D01*
X23541Y-13305D01*
X23693Y-13457D01*
X23796Y-13500D01*
X23694Y-13541D01*
X23542Y-13693D01*
X23460Y-13892D01*
X23460Y-13970D01*
X23430Y-13964D01*
X23429Y-13965D01*
X22650Y-13965D01*
X22650Y-13964D01*
X22548Y-13985D01*
X22462Y-14042D01*
X21945Y-14559D01*
X21862Y-14357D01*
X21576Y-14071D01*
X21203Y-13916D01*
X20798Y-13915D01*
X20424Y-14070D01*
X20206Y-14288D01*
X20206Y-13589D01*
X20051Y-13215D01*
X19765Y-12929D01*
X19392Y-12774D01*
X18987Y-12773D01*
X18613Y-12928D01*
X18327Y-13214D01*
X18172Y-13587D01*
X18171Y-13992D01*
X18326Y-14366D01*
X18612Y-14652D01*
X18985Y-14807D01*
X19390Y-14808D01*
X19764Y-14653D01*
X20050Y-14367D01*
X20205Y-13994D01*
X20206Y-13589D01*
X20206Y-14288D01*
X20138Y-14356D01*
X19983Y-14729D01*
X19982Y-15134D01*
X20137Y-15508D01*
X20423Y-15794D01*
X20710Y-15913D01*
X20710Y-16034D01*
X20687Y-16034D01*
X20617Y-16063D01*
X20564Y-16117D01*
X20535Y-16187D01*
X20535Y-16210D01*
X20005Y-16210D01*
X20004Y-16210D01*
X19980Y-16214D01*
X19612Y-16214D01*
X19542Y-16243D01*
X19489Y-16297D01*
X19465Y-16355D01*
X19465Y-16337D01*
X19436Y-16267D01*
X19382Y-16214D01*
X19312Y-16185D01*
X19237Y-16184D01*
X18809Y-16184D01*
X18814Y-16172D01*
X18815Y-16027D01*
X18759Y-15893D01*
X18657Y-15790D01*
X18522Y-15735D01*
X18410Y-15734D01*
X17981Y-15306D01*
X17981Y-13005D01*
X17981Y-12021D01*
X17952Y-11951D01*
X17899Y-11898D01*
X17829Y-11869D01*
X17753Y-11868D01*
X16966Y-11868D01*
X16897Y-11897D01*
X16843Y-11951D01*
X16814Y-12021D01*
X16814Y-12096D01*
X16814Y-13080D01*
X16843Y-13150D01*
X16896Y-13203D01*
X16966Y-13232D01*
X17042Y-13233D01*
X17829Y-13233D01*
X17898Y-13204D01*
X17952Y-13150D01*
X17981Y-13080D01*
X17981Y-13005D01*
X17981Y-15306D01*
X17612Y-14937D01*
X17538Y-14887D01*
X17450Y-14870D01*
X16940Y-14870D01*
X16940Y-14787D01*
X16924Y-14749D01*
X16939Y-14712D01*
X16940Y-14637D01*
X16940Y-14087D01*
X16911Y-14017D01*
X16857Y-13964D01*
X16830Y-13952D01*
X16830Y-13950D01*
X16829Y-13949D01*
X16830Y-13949D01*
X16812Y-13861D01*
X16762Y-13787D01*
X16762Y-13787D01*
X16530Y-13554D01*
X16530Y-13157D01*
X16535Y-13151D01*
X16564Y-13081D01*
X16564Y-13006D01*
X16564Y-12100D01*
X16535Y-12030D01*
X16482Y-11977D01*
X16473Y-11973D01*
X16592Y-11973D01*
X16741Y-11911D01*
X16856Y-11797D01*
X16901Y-11690D01*
X20402Y-11690D01*
X20138Y-11954D01*
X19983Y-12327D01*
X19982Y-12732D01*
X20137Y-13106D01*
X20423Y-13392D01*
X20796Y-13547D01*
X21201Y-13548D01*
X21575Y-13393D01*
X21861Y-13107D01*
X22016Y-12734D01*
X22017Y-12329D01*
X21862Y-11955D01*
X21597Y-11690D01*
X23409Y-11690D01*
X23410Y-11880D01*
X23470Y-11940D01*
X23940Y-11940D01*
X23940Y-11932D01*
X24060Y-11932D01*
X24060Y-11940D01*
X24067Y-11940D01*
X24067Y-12060D01*
X24067Y-12060D01*
G37*
G54D33*
X24067Y-12060D02*
X24060Y-12060D01*
X24060Y-12067D01*
X23940Y-12067D01*
X23940Y-12060D01*
X23470Y-12060D01*
X23410Y-12120D01*
X23409Y-12397D01*
X23446Y-12485D01*
X23513Y-12553D01*
X23602Y-12589D01*
X23646Y-12589D01*
X23542Y-12693D01*
X23460Y-12892D01*
X23459Y-13106D01*
X23541Y-13305D01*
X23693Y-13457D01*
X23796Y-13500D01*
X23694Y-13541D01*
X23542Y-13693D01*
X23460Y-13892D01*
X23460Y-13970D01*
X23430Y-13964D01*
X23429Y-13965D01*
X22650Y-13965D01*
X22650Y-13964D01*
X22548Y-13985D01*
X22462Y-14042D01*
X21945Y-14559D01*
X21862Y-14357D01*
X21576Y-14071D01*
X21203Y-13916D01*
X20798Y-13915D01*
X20424Y-14070D01*
X20206Y-14288D01*
X20206Y-13589D01*
X20051Y-13215D01*
X19765Y-12929D01*
X19392Y-12774D01*
X18987Y-12773D01*
X18613Y-12928D01*
X18327Y-13214D01*
X18172Y-13587D01*
X18171Y-13992D01*
X18326Y-14366D01*
X18612Y-14652D01*
X18985Y-14807D01*
X19390Y-14808D01*
X19764Y-14653D01*
X20050Y-14367D01*
X20205Y-13994D01*
X20206Y-13589D01*
X20206Y-14288D01*
X20138Y-14356D01*
X19983Y-14729D01*
X19982Y-15134D01*
X20137Y-15508D01*
X20423Y-15794D01*
X20710Y-15913D01*
X20710Y-16034D01*
X20687Y-16034D01*
X20617Y-16063D01*
X20564Y-16117D01*
X20535Y-16187D01*
X20535Y-16210D01*
X20005Y-16210D01*
X20004Y-16210D01*
X19980Y-16214D01*
X19612Y-16214D01*
X19542Y-16243D01*
X19489Y-16297D01*
X19465Y-16355D01*
X19465Y-16337D01*
X19436Y-16267D01*
X19382Y-16214D01*
X19312Y-16185D01*
X19237Y-16184D01*
X18809Y-16184D01*
X18814Y-16172D01*
X18815Y-16027D01*
X18759Y-15893D01*
X18657Y-15790D01*
X18522Y-15735D01*
X18410Y-15734D01*
X17981Y-15306D01*
X17981Y-13005D01*
X17981Y-12021D01*
X17952Y-11951D01*
X17899Y-11898D01*
X17829Y-11869D01*
X17753Y-11868D01*
X16966Y-11868D01*
X16897Y-11897D01*
X16843Y-11951D01*
X16814Y-12021D01*
X16814Y-12096D01*
X16814Y-13080D01*
X16843Y-13150D01*
X16896Y-13203D01*
X16966Y-13232D01*
X17042Y-13233D01*
X17829Y-13233D01*
X17898Y-13204D01*
X17952Y-13150D01*
X17981Y-13080D01*
X17981Y-13005D01*
X17981Y-15306D01*
X17612Y-14937D01*
X17538Y-14887D01*
X17450Y-14870D01*
X16940Y-14870D01*
X16940Y-14787D01*
X16924Y-14749D01*
X16939Y-14712D01*
X16940Y-14637D01*
X16940Y-14087D01*
X16911Y-14017D01*
X16857Y-13964D01*
X16830Y-13952D01*
X16830Y-13950D01*
X16829Y-13949D01*
X16830Y-13949D01*
X16812Y-13861D01*
X16762Y-13787D01*
X16762Y-13787D01*
X16530Y-13554D01*
X16530Y-13157D01*
X16535Y-13151D01*
X16564Y-13081D01*
X16564Y-13006D01*
X16564Y-12100D01*
X16535Y-12030D01*
X16482Y-11977D01*
X16473Y-11973D01*
X16592Y-11973D01*
X16741Y-11911D01*
X16856Y-11797D01*
X16901Y-11690D01*
X20402Y-11690D01*
X20138Y-11954D01*
X19983Y-12327D01*
X19982Y-12732D01*
X20137Y-13106D01*
X20423Y-13392D01*
X20796Y-13547D01*
X21201Y-13548D01*
X21575Y-13393D01*
X21861Y-13107D01*
X22016Y-12734D01*
X22017Y-12329D01*
X21862Y-11955D01*
X21597Y-11690D01*
X23409Y-11690D01*
X23410Y-11880D01*
X23470Y-11940D01*
X23940Y-11940D01*
X23940Y-11932D01*
X24060Y-11932D01*
X24060Y-11940D01*
X24067Y-11940D01*
X24067Y-12060D01*
G54D10*
G36*
X17870Y-21624D02*
X17851Y-21642D01*
X17712Y-21585D01*
X17527Y-21584D01*
X17356Y-21655D01*
X17226Y-21786D01*
X17212Y-21820D01*
X16892Y-21820D01*
X16874Y-21776D01*
X16743Y-21646D01*
X16572Y-21575D01*
X16387Y-21574D01*
X16216Y-21645D01*
X16086Y-21776D01*
X16015Y-21947D01*
X16014Y-22132D01*
X16085Y-22303D01*
X16216Y-22433D01*
X16387Y-22504D01*
X16572Y-22505D01*
X16743Y-22434D01*
X16873Y-22303D01*
X16883Y-22280D01*
X17211Y-22280D01*
X17225Y-22313D01*
X17356Y-22443D01*
X17527Y-22514D01*
X17712Y-22515D01*
X17720Y-22511D01*
X17720Y-22561D01*
X16393Y-22564D01*
X16368Y-22547D01*
X16280Y-22530D01*
X15305Y-22530D01*
X15280Y-22505D01*
X15792Y-22505D01*
X15862Y-22476D01*
X15915Y-22422D01*
X15944Y-22352D01*
X15945Y-22277D01*
X15945Y-21727D01*
X15916Y-21657D01*
X15862Y-21604D01*
X15792Y-21575D01*
X15717Y-21574D01*
X15167Y-21574D01*
X15097Y-21603D01*
X15044Y-21657D01*
X15015Y-21727D01*
X15014Y-21802D01*
X15014Y-21810D01*
X14890Y-21810D01*
X14861Y-21815D01*
X14861Y-21113D01*
X14845Y-20909D01*
X14797Y-20791D01*
X14708Y-20766D01*
X14424Y-21050D01*
X14708Y-21333D01*
X14797Y-21308D01*
X14861Y-21113D01*
X14861Y-21815D01*
X14839Y-21820D01*
X14748Y-21820D01*
X14734Y-21786D01*
X14623Y-21676D01*
X14603Y-21656D01*
X14432Y-21585D01*
X14247Y-21584D01*
X14076Y-21655D01*
X14013Y-21718D01*
X14010Y-21714D01*
X14010Y-21461D01*
X14011Y-21463D01*
X14056Y-21418D01*
X14081Y-21507D01*
X14276Y-21571D01*
X14480Y-21555D01*
X14598Y-21507D01*
X14623Y-21418D01*
X14340Y-21134D01*
X14334Y-21140D01*
X14249Y-21055D01*
X14255Y-21050D01*
X14249Y-21044D01*
X14334Y-20959D01*
X14340Y-20965D01*
X14623Y-20681D01*
X14598Y-20592D01*
X14430Y-20537D01*
X14482Y-20516D01*
X14535Y-20462D01*
X14564Y-20392D01*
X14565Y-20317D01*
X14565Y-19867D01*
X14536Y-19797D01*
X14482Y-19744D01*
X14449Y-19730D01*
X14482Y-19716D01*
X14535Y-19662D01*
X14564Y-19592D01*
X14565Y-19517D01*
X14565Y-19370D01*
X15466Y-19079D01*
X17405Y-19075D01*
X17404Y-19142D01*
X17404Y-19592D01*
X17433Y-19662D01*
X17487Y-19715D01*
X17520Y-19729D01*
X17487Y-19743D01*
X17434Y-19797D01*
X17405Y-19867D01*
X17404Y-19942D01*
X17404Y-20392D01*
X17433Y-20462D01*
X17487Y-20515D01*
X17543Y-20539D01*
X17479Y-20544D01*
X17361Y-20592D01*
X17336Y-20681D01*
X17620Y-20965D01*
X17625Y-20959D01*
X17710Y-21044D01*
X17704Y-21050D01*
X17710Y-21055D01*
X17625Y-21140D01*
X17620Y-21134D01*
X17535Y-21219D01*
X17535Y-21050D01*
X17251Y-20766D01*
X17162Y-20791D01*
X17098Y-20986D01*
X17114Y-21190D01*
X17162Y-21308D01*
X17251Y-21333D01*
X17535Y-21050D01*
X17535Y-21219D01*
X17336Y-21418D01*
X17361Y-21507D01*
X17556Y-21571D01*
X17760Y-21555D01*
X17870Y-21510D01*
X17870Y-21624D01*
X17870Y-21624D01*
G37*
G54D33*
X17870Y-21624D02*
X17851Y-21642D01*
X17712Y-21585D01*
X17527Y-21584D01*
X17356Y-21655D01*
X17226Y-21786D01*
X17212Y-21820D01*
X16892Y-21820D01*
X16874Y-21776D01*
X16743Y-21646D01*
X16572Y-21575D01*
X16387Y-21574D01*
X16216Y-21645D01*
X16086Y-21776D01*
X16015Y-21947D01*
X16014Y-22132D01*
X16085Y-22303D01*
X16216Y-22433D01*
X16387Y-22504D01*
X16572Y-22505D01*
X16743Y-22434D01*
X16873Y-22303D01*
X16883Y-22280D01*
X17211Y-22280D01*
X17225Y-22313D01*
X17356Y-22443D01*
X17527Y-22514D01*
X17712Y-22515D01*
X17720Y-22511D01*
X17720Y-22561D01*
X16393Y-22564D01*
X16368Y-22547D01*
X16280Y-22530D01*
X15305Y-22530D01*
X15280Y-22505D01*
X15792Y-22505D01*
X15862Y-22476D01*
X15915Y-22422D01*
X15944Y-22352D01*
X15945Y-22277D01*
X15945Y-21727D01*
X15916Y-21657D01*
X15862Y-21604D01*
X15792Y-21575D01*
X15717Y-21574D01*
X15167Y-21574D01*
X15097Y-21603D01*
X15044Y-21657D01*
X15015Y-21727D01*
X15014Y-21802D01*
X15014Y-21810D01*
X14890Y-21810D01*
X14861Y-21815D01*
X14861Y-21113D01*
X14845Y-20909D01*
X14797Y-20791D01*
X14708Y-20766D01*
X14424Y-21050D01*
X14708Y-21333D01*
X14797Y-21308D01*
X14861Y-21113D01*
X14861Y-21815D01*
X14839Y-21820D01*
X14748Y-21820D01*
X14734Y-21786D01*
X14623Y-21676D01*
X14603Y-21656D01*
X14432Y-21585D01*
X14247Y-21584D01*
X14076Y-21655D01*
X14013Y-21718D01*
X14010Y-21714D01*
X14010Y-21461D01*
X14011Y-21463D01*
X14056Y-21418D01*
X14081Y-21507D01*
X14276Y-21571D01*
X14480Y-21555D01*
X14598Y-21507D01*
X14623Y-21418D01*
X14340Y-21134D01*
X14334Y-21140D01*
X14249Y-21055D01*
X14255Y-21050D01*
X14249Y-21044D01*
X14334Y-20959D01*
X14340Y-20965D01*
X14623Y-20681D01*
X14598Y-20592D01*
X14430Y-20537D01*
X14482Y-20516D01*
X14535Y-20462D01*
X14564Y-20392D01*
X14565Y-20317D01*
X14565Y-19867D01*
X14536Y-19797D01*
X14482Y-19744D01*
X14449Y-19730D01*
X14482Y-19716D01*
X14535Y-19662D01*
X14564Y-19592D01*
X14565Y-19517D01*
X14565Y-19370D01*
X15466Y-19079D01*
X17405Y-19075D01*
X17404Y-19142D01*
X17404Y-19592D01*
X17433Y-19662D01*
X17487Y-19715D01*
X17520Y-19729D01*
X17487Y-19743D01*
X17434Y-19797D01*
X17405Y-19867D01*
X17404Y-19942D01*
X17404Y-20392D01*
X17433Y-20462D01*
X17487Y-20515D01*
X17543Y-20539D01*
X17479Y-20544D01*
X17361Y-20592D01*
X17336Y-20681D01*
X17620Y-20965D01*
X17625Y-20959D01*
X17710Y-21044D01*
X17704Y-21050D01*
X17710Y-21055D01*
X17625Y-21140D01*
X17620Y-21134D01*
X17535Y-21219D01*
X17535Y-21050D01*
X17251Y-20766D01*
X17162Y-20791D01*
X17098Y-20986D01*
X17114Y-21190D01*
X17162Y-21308D01*
X17251Y-21333D01*
X17535Y-21050D01*
X17535Y-21219D01*
X17336Y-21418D01*
X17361Y-21507D01*
X17556Y-21571D01*
X17760Y-21555D01*
X17870Y-21510D01*
X17870Y-21624D01*
G54D10*
G36*
X21295Y-21660D02*
X21219Y-21691D01*
X21151Y-21758D01*
X21147Y-21768D01*
X21112Y-21734D01*
X21042Y-21705D01*
X20967Y-21704D01*
X20717Y-21704D01*
X20647Y-21733D01*
X20594Y-21787D01*
X20565Y-21857D01*
X20564Y-21896D01*
X20511Y-21907D01*
X20437Y-21957D01*
X20437Y-21957D01*
X20213Y-22181D01*
X19843Y-22181D01*
X19828Y-22145D01*
X19696Y-22012D01*
X19523Y-21941D01*
X19336Y-21940D01*
X19164Y-22012D01*
X19031Y-22144D01*
X18960Y-22317D01*
X18959Y-22504D01*
X18990Y-22578D01*
X18980Y-22631D01*
X18980Y-22804D01*
X18890Y-22894D01*
X18890Y-20985D01*
X19075Y-20799D01*
X19163Y-20887D01*
X19336Y-20958D01*
X19523Y-20959D01*
X19695Y-20887D01*
X19828Y-20755D01*
X19843Y-20719D01*
X19923Y-20719D01*
X20020Y-20815D01*
X20020Y-20870D01*
X20037Y-20958D01*
X20087Y-21032D01*
X20417Y-21362D01*
X20417Y-21362D01*
X20491Y-21412D01*
X20564Y-21427D01*
X20564Y-21462D01*
X20593Y-21532D01*
X20647Y-21585D01*
X20717Y-21614D01*
X20792Y-21615D01*
X21042Y-21615D01*
X21112Y-21586D01*
X21147Y-21551D01*
X21151Y-21561D01*
X21219Y-21628D01*
X21295Y-21660D01*
X21295Y-21660D01*
G37*
G54D33*
X21295Y-21660D02*
X21219Y-21691D01*
X21151Y-21758D01*
X21147Y-21768D01*
X21112Y-21734D01*
X21042Y-21705D01*
X20967Y-21704D01*
X20717Y-21704D01*
X20647Y-21733D01*
X20594Y-21787D01*
X20565Y-21857D01*
X20564Y-21896D01*
X20511Y-21907D01*
X20437Y-21957D01*
X20437Y-21957D01*
X20213Y-22181D01*
X19843Y-22181D01*
X19828Y-22145D01*
X19696Y-22012D01*
X19523Y-21941D01*
X19336Y-21940D01*
X19164Y-22012D01*
X19031Y-22144D01*
X18960Y-22317D01*
X18959Y-22504D01*
X18990Y-22578D01*
X18980Y-22631D01*
X18980Y-22804D01*
X18890Y-22894D01*
X18890Y-20985D01*
X19075Y-20799D01*
X19163Y-20887D01*
X19336Y-20958D01*
X19523Y-20959D01*
X19695Y-20887D01*
X19828Y-20755D01*
X19843Y-20719D01*
X19923Y-20719D01*
X20020Y-20815D01*
X20020Y-20870D01*
X20037Y-20958D01*
X20087Y-21032D01*
X20417Y-21362D01*
X20417Y-21362D01*
X20491Y-21412D01*
X20564Y-21427D01*
X20564Y-21462D01*
X20593Y-21532D01*
X20647Y-21585D01*
X20717Y-21614D01*
X20792Y-21615D01*
X21042Y-21615D01*
X21112Y-21586D01*
X21147Y-21551D01*
X21151Y-21561D01*
X21219Y-21628D01*
X21295Y-21660D01*
G54D10*
G36*
X22096Y-22178D02*
X21818Y-22455D01*
X21844Y-22392D01*
X21845Y-22297D01*
X21845Y-21942D01*
X21844Y-21847D01*
X21808Y-21758D01*
X21740Y-21691D01*
X21664Y-21660D01*
X21740Y-21628D01*
X21808Y-21561D01*
X21844Y-21472D01*
X21845Y-21377D01*
X21845Y-21022D01*
X21844Y-20927D01*
X21808Y-20838D01*
X21740Y-20771D01*
X21652Y-20734D01*
X21600Y-20735D01*
X21540Y-20795D01*
X21540Y-21140D01*
X21785Y-21140D01*
X21845Y-21080D01*
X21845Y-21022D01*
X21845Y-21377D01*
X21845Y-21320D01*
X21785Y-21260D01*
X21540Y-21260D01*
X21540Y-21605D01*
X21595Y-21660D01*
X21540Y-21715D01*
X21540Y-22060D01*
X21785Y-22060D01*
X21845Y-22000D01*
X21845Y-21942D01*
X21845Y-22297D01*
X21845Y-22240D01*
X21785Y-22180D01*
X21540Y-22180D01*
X21540Y-22525D01*
X21600Y-22585D01*
X21652Y-22585D01*
X21715Y-22558D01*
X21487Y-22787D01*
X21437Y-22861D01*
X21420Y-22950D01*
X21420Y-23260D01*
X19281Y-23260D01*
X19217Y-23217D01*
X19372Y-23062D01*
X19372Y-23062D01*
X19372Y-23062D01*
X19422Y-22988D01*
X19440Y-22900D01*
X19440Y-22881D01*
X19523Y-22881D01*
X19695Y-22809D01*
X19828Y-22677D01*
X19843Y-22641D01*
X20309Y-22641D01*
X20397Y-22623D01*
X20397Y-22623D01*
X20471Y-22573D01*
X20593Y-22451D01*
X20593Y-22452D01*
X20647Y-22505D01*
X20717Y-22534D01*
X20792Y-22535D01*
X21042Y-22535D01*
X21112Y-22506D01*
X21147Y-22471D01*
X21151Y-22481D01*
X21219Y-22548D01*
X21307Y-22585D01*
X21360Y-22585D01*
X21420Y-22525D01*
X21420Y-22180D01*
X21412Y-22180D01*
X21412Y-22060D01*
X21420Y-22060D01*
X21420Y-21715D01*
X21365Y-21660D01*
X21420Y-21605D01*
X21420Y-21260D01*
X21412Y-21260D01*
X21412Y-21140D01*
X21420Y-21140D01*
X21420Y-20795D01*
X21360Y-20735D01*
X21307Y-20734D01*
X21219Y-20771D01*
X21151Y-20838D01*
X21147Y-20848D01*
X21112Y-20814D01*
X21042Y-20785D01*
X20967Y-20784D01*
X20717Y-20784D01*
X20647Y-20813D01*
X20594Y-20867D01*
X20587Y-20882D01*
X20480Y-20774D01*
X20480Y-20720D01*
X20462Y-20631D01*
X20412Y-20557D01*
X20412Y-20557D01*
X20181Y-20326D01*
X20107Y-20276D01*
X20019Y-20259D01*
X19843Y-20259D01*
X19828Y-20223D01*
X19696Y-20090D01*
X19523Y-20019D01*
X19336Y-20018D01*
X19164Y-20090D01*
X19031Y-20222D01*
X19012Y-20268D01*
X18972Y-20276D01*
X18898Y-20326D01*
X18530Y-20694D01*
X18530Y-19595D01*
X18695Y-19430D01*
X20160Y-19430D01*
X20716Y-20460D01*
X22090Y-20460D01*
X22090Y-21620D01*
X22096Y-22178D01*
X22096Y-22178D01*
G37*
G54D33*
X22096Y-22178D02*
X21818Y-22455D01*
X21844Y-22392D01*
X21845Y-22297D01*
X21845Y-21942D01*
X21844Y-21847D01*
X21808Y-21758D01*
X21740Y-21691D01*
X21664Y-21660D01*
X21740Y-21628D01*
X21808Y-21561D01*
X21844Y-21472D01*
X21845Y-21377D01*
X21845Y-21022D01*
X21844Y-20927D01*
X21808Y-20838D01*
X21740Y-20771D01*
X21652Y-20734D01*
X21600Y-20735D01*
X21540Y-20795D01*
X21540Y-21140D01*
X21785Y-21140D01*
X21845Y-21080D01*
X21845Y-21022D01*
X21845Y-21377D01*
X21845Y-21320D01*
X21785Y-21260D01*
X21540Y-21260D01*
X21540Y-21605D01*
X21595Y-21660D01*
X21540Y-21715D01*
X21540Y-22060D01*
X21785Y-22060D01*
X21845Y-22000D01*
X21845Y-21942D01*
X21845Y-22297D01*
X21845Y-22240D01*
X21785Y-22180D01*
X21540Y-22180D01*
X21540Y-22525D01*
X21600Y-22585D01*
X21652Y-22585D01*
X21715Y-22558D01*
X21487Y-22787D01*
X21437Y-22861D01*
X21420Y-22950D01*
X21420Y-23260D01*
X19281Y-23260D01*
X19217Y-23217D01*
X19372Y-23062D01*
X19372Y-23062D01*
X19372Y-23062D01*
X19422Y-22988D01*
X19440Y-22900D01*
X19440Y-22881D01*
X19523Y-22881D01*
X19695Y-22809D01*
X19828Y-22677D01*
X19843Y-22641D01*
X20309Y-22641D01*
X20397Y-22623D01*
X20397Y-22623D01*
X20471Y-22573D01*
X20593Y-22451D01*
X20593Y-22452D01*
X20647Y-22505D01*
X20717Y-22534D01*
X20792Y-22535D01*
X21042Y-22535D01*
X21112Y-22506D01*
X21147Y-22471D01*
X21151Y-22481D01*
X21219Y-22548D01*
X21307Y-22585D01*
X21360Y-22585D01*
X21420Y-22525D01*
X21420Y-22180D01*
X21412Y-22180D01*
X21412Y-22060D01*
X21420Y-22060D01*
X21420Y-21715D01*
X21365Y-21660D01*
X21420Y-21605D01*
X21420Y-21260D01*
X21412Y-21260D01*
X21412Y-21140D01*
X21420Y-21140D01*
X21420Y-20795D01*
X21360Y-20735D01*
X21307Y-20734D01*
X21219Y-20771D01*
X21151Y-20838D01*
X21147Y-20848D01*
X21112Y-20814D01*
X21042Y-20785D01*
X20967Y-20784D01*
X20717Y-20784D01*
X20647Y-20813D01*
X20594Y-20867D01*
X20587Y-20882D01*
X20480Y-20774D01*
X20480Y-20720D01*
X20462Y-20631D01*
X20412Y-20557D01*
X20412Y-20557D01*
X20181Y-20326D01*
X20107Y-20276D01*
X20019Y-20259D01*
X19843Y-20259D01*
X19828Y-20223D01*
X19696Y-20090D01*
X19523Y-20019D01*
X19336Y-20018D01*
X19164Y-20090D01*
X19031Y-20222D01*
X19012Y-20268D01*
X18972Y-20276D01*
X18898Y-20326D01*
X18530Y-20694D01*
X18530Y-19595D01*
X18695Y-19430D01*
X20160Y-19430D01*
X20716Y-20460D01*
X22090Y-20460D01*
X22090Y-21620D01*
X22096Y-22178D01*
M02*
